<svg width="191" height="46" viewBox="0 0 191 46" fill="none" xmlns="http://www.w3.org/2000/svg">
<path d="M141.397 34.9974H135.834V7.64445C135.834 6.90849 136.124 6.20267 136.641 5.68227C137.158 5.16187 137.86 4.86951 138.591 4.86951C139.326 4.86939 140.033 5.16016 140.558 5.67919C141.082 6.19821 141.384 6.90397 141.397 7.64445V34.9974Z" fill="white"/>
<path d="M149.777 14.5323V34.9974H144.312V8.38781C144.312 7.45472 144.681 6.55986 145.336 5.90007C145.992 5.24027 146.881 4.8696 147.808 4.8696C148.453 4.8648 149.088 5.03765 149.643 5.36951C150.199 5.70136 150.653 6.17962 150.958 6.7526L160.508 25.3347V7.59498C160.508 6.87216 160.793 6.17895 161.301 5.66785C161.809 5.15674 162.497 4.8696 163.215 4.8696C163.938 4.86949 164.632 5.15503 165.148 5.66477C165.663 6.1745 165.959 6.86764 165.972 7.59498V34.9974H160.311L149.777 14.5323Z" fill="white"/>
<path d="M175.068 24.7819C175.023 26.1604 175.496 27.5057 176.394 28.5504C177.292 29.595 178.549 30.2627 179.915 30.4206C182.969 30.4206 184.763 28.7193 184.763 26.2402C184.763 23.7611 183.357 22.5945 180.594 22.0598L177.007 21.2821C174.89 21.1448 172.907 20.194 171.472 18.6276C170.036 17.0612 169.258 14.9998 169.3 12.8727C169.3 8.0118 172.644 4.41471 178.994 4.41471C180.771 4.27173 182.552 4.62257 184.143 5.42866C185.733 6.23475 187.071 7.4649 188.01 8.98396C188.207 9.38974 188.297 9.83871 188.274 10.2891C188.251 10.7395 188.114 11.1766 187.877 11.5599C187.64 11.9431 187.31 12.26 186.918 12.4811C186.526 12.7021 186.085 12.8201 185.635 12.8241C185.116 12.8402 184.603 12.7009 184.163 12.4239C183.723 12.1469 183.375 11.7447 183.163 11.2686C182.776 10.5165 182.17 9.89997 181.425 9.5007C180.681 9.10143 179.833 8.93819 178.994 9.03258C176.086 9.03258 174.583 10.5881 174.583 12.8241C174.583 15.0601 175.844 16.0809 178.704 16.7128L182.242 17.442C184.393 17.6153 186.396 18.6091 187.839 20.2186C189.282 21.8281 190.054 23.9309 189.998 26.0944C189.998 31.2955 186.168 34.9899 179.576 34.9899C178.212 35.0426 176.851 34.8168 175.576 34.3263C174.301 33.8357 173.139 33.0905 172.16 32.136C171.181 31.1814 170.405 30.0374 169.88 28.7732C169.355 27.5091 169.092 26.1512 169.106 24.7819H175.068Z" fill="white"/>
<path d="M54.9779 7.95078C55.2997 6.95648 55.9877 6.11839 56.9052 5.60313C57.7996 5.12066 58.8021 4.8684 59.8208 4.86951C60.7989 4.86951 61.7576 5.14059 62.5881 5.65205C63.4869 6.1537 64.1586 6.97585 64.466 7.95078L74.3494 34.9974H66.0967L64.6142 30.1065H54.7308L53.3471 34.9974H45.1934L54.9779 7.95078ZM56.8063 24.0907H62.5881L59.7219 14.798L56.8063 24.0907Z" fill="#0052C9"/>
<path d="M92.789 33.6632C92.3979 33.6594 92.0082 33.6188 91.6248 33.5419C91.2039 33.471 90.7913 33.3581 90.393 33.205C90.0212 33.0705 89.6703 32.8845 89.3507 32.6525C89.0795 32.4444 88.8807 32.1569 88.7822 31.8305L84.9919 18.2062L83.2593 34.9974H76.1797L79.3201 8.6113C79.3642 8.07104 79.5258 7.54683 79.7939 7.07506C80.0415 6.64199 80.3673 6.25822 80.755 5.94308C81.1177 5.6348 81.5294 5.38885 81.9733 5.21536C82.3835 5.04222 82.8166 4.92875 83.2593 4.87846C83.7431 4.85504 84.2281 4.87759 84.7077 4.94582C85.218 5.02086 85.7121 5.18029 86.1696 5.41749C86.6467 5.65937 87.0738 5.98853 87.4285 6.38777C87.8239 6.83142 88.1071 7.36277 88.2542 7.9375L92.789 25.0386L97.3237 7.9375C97.4716 7.36581 97.7495 6.83561 98.1359 6.38777C98.4773 5.98018 98.9018 5.64945 99.3812 5.41749C99.8498 5.18389 100.352 5.02474 100.87 4.94582C101.35 4.87759 101.835 4.85504 102.319 4.87846C102.761 4.92875 103.194 5.04222 103.605 5.21536C104.047 5.39188 104.458 5.63755 104.823 5.94308C105.206 6.26293 105.531 6.64581 105.784 7.07506C106.054 7.54524 106.211 8.07086 106.244 8.6113L109.358 34.9974H102.319L100.627 18.0849L96.7958 31.8305C96.6971 32.1604 96.4926 32.4491 96.2137 32.6525C95.9006 32.8871 95.5538 33.0734 95.1849 33.205C94.7867 33.3581 94.374 33.471 93.9531 33.5419C93.5697 33.6182 93.1799 33.6588 92.789 33.6632Z" fill="#0052C9"/>
<path d="M119.036 16.5005H129.374C129.848 16.4854 130.318 16.5877 130.742 16.7979C131.112 16.9906 131.438 17.2577 131.699 17.5821C131.948 17.9008 132.133 18.2632 132.246 18.6502C132.352 19.0197 132.407 19.4017 132.41 19.7858C132.41 20.1701 132.355 20.5525 132.246 20.9214C132.135 21.294 131.954 21.6426 131.712 21.949C131.458 22.2632 131.135 22.5172 130.769 22.6925C130.34 22.8852 129.873 22.9821 129.401 22.9764H119.064V27.3568C119.021 27.6666 119.099 27.9808 119.282 28.2356C119.543 28.3988 119.851 28.4702 120.157 28.4384H130.126C130.598 28.4309 131.065 28.5279 131.494 28.7223C131.867 28.8998 132.194 29.1586 132.451 29.4794C132.686 29.7928 132.862 30.1455 132.97 30.5204C133.089 30.8923 133.149 31.2798 133.148 31.6695C133.146 32.0636 133.087 32.4553 132.97 32.8323C132.864 33.2256 132.678 33.5935 132.424 33.9138C132.171 34.2409 131.849 34.5087 131.48 34.698C131.055 34.9051 130.586 35.0071 130.113 34.9954H117.19C116.232 35.0133 115.276 34.9088 114.346 34.6844C113.657 34.5093 113.029 34.1544 112.527 33.6569C112.053 33.1361 111.723 32.5027 111.57 31.8183C111.365 30.9316 111.269 30.0238 111.283 29.1144V10.7682C111.268 9.85872 111.364 8.95082 111.57 8.06424C111.716 7.37748 112.047 6.74236 112.527 6.22559C113.025 5.72318 113.655 5.36745 114.346 5.19808C115.274 4.96189 116.231 4.85273 117.19 4.87362H129.73C130.183 4.84888 130.635 4.93602 131.046 5.1272C131.456 5.31837 131.812 5.60756 132.082 5.96871C132.328 6.2938 132.514 6.66017 132.629 7.05027C132.736 7.4288 132.791 7.81989 132.793 8.21298C132.791 8.59718 132.736 8.9793 132.629 9.34863C132.518 9.72961 132.337 10.0871 132.095 10.4032C131.841 10.7174 131.518 10.9714 131.152 11.1467C130.722 11.3381 130.256 11.435 129.784 11.4306H120.212C119.906 11.3988 119.597 11.4703 119.337 11.6335C119.154 11.8883 119.076 12.2024 119.118 12.5122L119.036 16.5005Z" fill="#0052C9"/>
<g clip-path="url(#clip0_4444_5813)">
<path d="M46.8577 41.8426V43.7636H45.1937V38.5399C45.1903 38.3416 45.2106 38.1436 45.2543 37.9502C45.2878 37.8027 45.3591 37.6664 45.4611 37.5548C45.5666 37.4442 45.7007 37.3651 45.8486 37.3262C46.0465 37.2767 46.2502 37.2536 46.4542 37.2576H47.8588C48.1866 37.2546 48.5131 37.2996 48.8278 37.3914C49.1084 37.4718 49.3694 37.6092 49.5947 37.7948C49.8147 37.9804 49.9877 38.2153 50.0998 38.4805C50.2271 38.7957 50.289 39.1336 50.2815 39.4735V39.6107C50.2887 39.9506 50.2269 40.2884 50.0998 40.6038C49.9877 40.8689 49.8147 41.1038 49.5947 41.2895C49.3694 41.4751 49.1084 41.6124 48.8278 41.6929C48.5131 41.7846 48.1866 41.8297 47.8588 41.8266L46.8577 41.8426ZM46.8577 40.4369H47.7719C47.8953 40.4392 48.0179 40.4158 48.1319 40.3684C48.2335 40.3255 48.3244 40.2607 48.3982 40.1787C48.4703 40.0985 48.5265 40.0055 48.5639 39.9044C48.6015 39.8008 48.6205 39.6912 48.6199 39.581V39.525C48.6206 39.4147 48.6016 39.3052 48.5639 39.2016C48.5262 39.1006 48.47 39.0076 48.3982 38.9273C48.3254 38.8456 48.2357 38.7809 48.1353 38.7376C48.0213 38.6901 47.8988 38.6668 47.7753 38.669H47.0896C47.0243 38.6618 46.9584 38.6776 46.9034 38.7136C46.8638 38.7684 46.8466 38.8362 46.8554 38.9033L46.8577 40.4369Z" fill="white"/>
<path d="M50.959 37.7491C50.959 37.4691 51.0413 37.2634 51.2058 37.1354C51.3725 37.0049 51.5793 36.9362 51.7909 36.9412C52.0026 36.9362 52.2094 37.0049 52.3761 37.1354C52.5406 37.2634 52.6229 37.4691 52.6229 37.7491V43.7637H50.959V37.7491Z" fill="white"/>
<path d="M56.4978 43.7636L56.4338 43.4208C56.2725 43.567 56.0864 43.6832 55.8841 43.7636C55.6686 43.8511 55.4379 43.895 55.2053 43.8928H55.0281C54.8454 43.8908 54.6637 43.865 54.4876 43.8162C54.293 43.7655 54.1104 43.6765 53.9505 43.5545C53.7779 43.4203 53.6374 43.2493 53.5391 43.054C53.4195 42.8076 53.3622 42.5357 53.3722 42.262C53.3634 41.997 53.419 41.7338 53.5345 41.4952C53.6355 41.2978 53.7839 41.1285 53.9665 41.0026C54.1573 40.874 54.3711 40.7833 54.5962 40.7352C54.8442 40.6808 55.0976 40.654 55.3516 40.6552H56.1835C56.1818 40.5531 56.158 40.4525 56.1138 40.3604C56.077 40.2858 56.0215 40.222 55.9527 40.1752C55.8818 40.1276 55.8022 40.0946 55.7184 40.0781C55.6271 40.0586 55.534 40.0491 55.4407 40.0495C55.351 40.0493 55.2615 40.0573 55.1733 40.0735C55.0876 40.0907 54.995 40.1112 54.899 40.1387C54.8371 40.1591 54.7764 40.1831 54.7173 40.2107C54.6602 40.2381 54.595 40.2678 54.5196 40.2998C54.4458 40.3373 54.3646 40.358 54.2819 40.3604C54.1984 40.363 54.1151 40.3522 54.035 40.3284C53.9545 40.3048 53.8793 40.266 53.8133 40.2141C53.745 40.1605 53.6909 40.0911 53.6556 40.0118C53.6186 39.9394 53.5967 39.8602 53.5911 39.7791C53.5856 39.698 53.5967 39.6166 53.6236 39.5398C53.6797 39.3838 53.7807 39.2478 53.9139 39.149C54.0254 39.0656 54.1477 38.9975 54.2773 38.9467C54.4138 38.8924 54.554 38.8477 54.6967 38.813C54.8416 38.7783 54.9886 38.7531 55.1367 38.7376C55.2801 38.7209 55.4243 38.7125 55.5687 38.7124C55.8502 38.7111 56.131 38.7426 56.4052 38.8062C56.6608 38.8626 56.9006 38.9754 57.1069 39.1364C57.3212 39.3116 57.4879 39.538 57.5915 39.7947C57.7238 40.1369 57.7856 40.5023 57.7732 40.8689V43.7591L56.4978 43.7636ZM56.1835 41.8494H55.4487C55.3205 41.8421 55.1942 41.8828 55.0944 41.9637C55.0531 42.0022 55.0207 42.0492 54.9996 42.1015C54.9785 42.1539 54.9691 42.2102 54.9721 42.2666C54.9678 42.3225 54.9767 42.3788 54.9979 42.4307C55.0191 42.4827 55.0522 42.529 55.0944 42.566C55.1903 42.6348 55.3069 42.6686 55.4247 42.662H55.539C55.6163 42.6622 55.6933 42.6514 55.7675 42.63C55.841 42.6093 55.9106 42.5764 55.9732 42.5328C56.0349 42.4903 56.087 42.4354 56.1264 42.3717C56.1687 42.3031 56.1902 42.2237 56.1881 42.1431L56.1835 41.8494Z" fill="white"/>
<path d="M59.1303 40.2117H58.864C58.6114 40.2117 58.4297 40.1432 58.3189 40.0095C58.2119 39.8812 58.1536 39.7193 58.1543 39.5523C58.1542 39.4703 58.1662 39.3887 58.1897 39.3101C58.2145 39.2297 58.2557 39.1553 58.3109 39.0918C58.3726 39.0235 58.4487 38.9696 58.5337 38.9341C58.6384 38.8913 58.7509 38.8707 58.864 38.8735H59.1303V38.0335C59.1279 37.9119 59.1513 37.7912 59.1988 37.6793C59.2397 37.5815 59.3018 37.4941 59.3805 37.4233C59.4557 37.3592 59.5421 37.3096 59.6354 37.277C59.7303 37.2448 59.83 37.2286 59.9302 37.229C60.0305 37.2286 60.1301 37.2448 60.2251 37.277C60.3175 37.3099 60.4031 37.3595 60.4776 37.4233C60.5557 37.4925 60.6177 37.5779 60.6593 37.6736C60.7063 37.7857 60.7297 37.9063 60.7279 38.0278V38.8678H61.2033C61.3153 38.8645 61.4267 38.8851 61.5301 38.9284C61.6134 38.9645 61.6879 39.0183 61.7484 39.0861C61.8045 39.1497 61.8473 39.2239 61.8741 39.3043C61.9003 39.3825 61.9138 39.4642 61.9141 39.5466C61.9149 39.7138 61.8562 39.8759 61.7484 40.0037C61.6341 40.1374 61.457 40.206 61.2033 40.206H60.7279V42.2071C60.7216 42.2507 60.7251 42.2952 60.7382 42.3373C60.7512 42.3794 60.7735 42.418 60.8033 42.4505C60.857 42.4878 60.9198 42.5099 60.985 42.5145C61.0394 42.5204 61.0945 42.5161 61.1473 42.5019C61.2106 42.4875 61.2755 42.481 61.3404 42.4825C61.4697 42.4804 61.5957 42.5232 61.697 42.6036C61.7984 42.684 61.867 42.7986 61.8901 42.9259C61.9294 43.0739 61.9165 43.2309 61.8536 43.3704C61.796 43.4949 61.705 43.6009 61.5907 43.6767C61.4839 43.7433 61.3686 43.7952 61.2479 43.831C61.1116 43.8729 60.9699 43.8944 60.8273 43.895C60.5848 43.8987 60.343 43.8691 60.1085 43.807C59.9118 43.7542 59.7296 43.6573 59.5759 43.5236C59.4243 43.3848 59.3103 43.2098 59.2445 43.015C59.1625 42.7652 59.1239 42.5031 59.1303 42.2402V40.2117Z" fill="white"/>
<path d="M62.9433 43.7638V40.2119H62.6679C62.4153 40.2119 62.2336 40.1434 62.1227 40.0096C62.0154 39.8815 61.9567 39.7197 61.957 39.5525C61.9571 39.4678 61.9694 39.3835 61.9936 39.3023C62.0186 39.222 62.0598 39.1477 62.1147 39.084C62.1762 39.0164 62.2525 38.964 62.3376 38.9308C62.4429 38.8903 62.5551 38.8709 62.6679 38.8737H62.9433V38.6966C62.9357 38.419 62.9744 38.1421 63.0576 37.8772C63.1248 37.6708 63.2426 37.4846 63.4004 37.3355C63.5611 37.1929 63.7534 37.0906 63.9615 37.0372C64.2133 36.972 64.4728 36.9408 64.7329 36.9446C64.8958 36.9452 65.0582 36.9628 65.2175 36.9972C65.3746 37.0283 65.525 37.0867 65.662 37.1698C65.7886 37.2407 65.8847 37.3559 65.9317 37.4932C65.9713 37.6333 65.9713 37.7816 65.9317 37.9217C65.894 38.0452 65.8242 38.1564 65.7294 38.244C65.6376 38.3332 65.5146 38.3828 65.3866 38.3823C65.3322 38.3829 65.2779 38.3787 65.2243 38.3697L65.054 38.3412C65.0144 38.3323 64.9744 38.3254 64.934 38.3206C64.9009 38.3206 64.8666 38.3206 64.8278 38.3206C64.7942 38.3181 64.7605 38.3233 64.7292 38.3357C64.6979 38.3482 64.6698 38.3677 64.6472 38.3926C64.5988 38.4699 64.5775 38.5612 64.5866 38.652V38.8806H65.0437C65.1551 38.8775 65.2658 38.8969 65.3694 38.9377C65.4531 38.9717 65.5281 39.0241 65.5889 39.0908C65.644 39.155 65.6863 39.2291 65.7134 39.3091C65.7404 39.3898 65.7539 39.4743 65.7534 39.5594C65.7542 39.7264 65.6959 39.8883 65.5889 40.0165C65.4746 40.1502 65.2963 40.2188 65.0437 40.2188H64.5866V43.7706L62.9433 43.7638Z" fill="white"/>
<path d="M66.068 40.9375C66.0551 40.5656 66.1266 40.1956 66.2771 39.8553C66.4044 39.5873 66.5921 39.3526 66.8257 39.1696C67.05 38.9981 67.3071 38.8745 67.5811 38.8062C67.8515 38.7372 68.1294 38.7019 68.4084 38.701C68.6852 38.7022 68.9608 38.7375 69.229 38.8062C69.503 38.8745 69.76 38.9981 69.9844 39.1696C70.2184 39.3529 70.4072 39.5875 70.5363 39.8553C70.6906 40.1946 70.7641 40.565 70.7512 40.9375V41.6803C70.7644 42.0529 70.6908 42.4233 70.5363 42.7626C70.4072 43.0304 70.2184 43.2649 69.9844 43.4483C69.7598 43.6193 69.5028 43.7429 69.229 43.8117C68.9608 43.8804 68.6852 43.9157 68.4084 43.9168C68.132 43.9156 67.8568 43.8803 67.5891 43.8117C67.3156 43.7429 67.059 43.6192 66.8348 43.4483C66.5997 43.2657 66.4104 43.0309 66.2817 42.7626C66.1277 42.4232 66.0545 42.0528 66.068 41.6803V40.9375ZM69.1273 40.8655C69.1308 40.7398 69.109 40.6147 69.0633 40.4975C69.0251 40.4054 68.9687 40.3218 68.8976 40.2518C68.8327 40.1884 68.7547 40.14 68.669 40.1101C68.5856 40.081 68.4979 40.066 68.4096 40.0656C68.322 40.0659 68.2351 40.0809 68.1525 40.1101C68.0667 40.1399 67.9887 40.1883 67.9239 40.2518C67.8527 40.3218 67.7964 40.4054 67.7582 40.4975C67.7118 40.6145 67.69 40.7398 67.6942 40.8655V41.7535C67.6901 41.8789 67.7119 42.0037 67.7582 42.1203C67.7964 42.2129 67.8527 42.2968 67.9239 42.3672C67.9887 42.4304 68.0668 42.4784 68.1525 42.5077C68.2351 42.5369 68.322 42.552 68.4096 42.5523C68.4979 42.5519 68.5856 42.5368 68.669 42.5077C68.7546 42.4783 68.8327 42.4303 68.8976 42.3672C68.9688 42.2968 69.0251 42.2129 69.0633 42.1203C69.1089 42.0036 69.1307 41.8788 69.1273 41.7535V40.8655Z" fill="white"/>
<path d="M71.4924 43.7634V39.5248C71.4896 39.4042 71.513 39.2845 71.561 39.1739C71.603 39.0785 71.6649 38.9931 71.7427 38.9237C71.8181 38.8561 71.9058 38.8038 72.001 38.7694C72.0995 38.7338 72.2036 38.716 72.3084 38.7168C72.462 38.7167 72.6131 38.7561 72.7472 38.8311C72.8861 38.908 72.9957 39.0285 73.0592 39.1739C73.2057 39.036 73.3746 38.9239 73.5586 38.8425C73.7385 38.7626 73.9332 38.7213 74.13 38.7214C74.1934 38.7219 74.2568 38.7261 74.3197 38.734C74.3853 38.7413 74.4494 38.7591 74.5094 38.7865C74.6625 38.8475 74.7878 38.9626 74.8614 39.1099C74.9405 39.2665 74.9674 39.4444 74.938 39.6173C74.9189 39.7942 74.8341 39.9573 74.7003 40.0745C74.5715 40.1865 74.4059 40.2472 74.2351 40.2448C74.1757 40.2448 74.114 40.2448 74.05 40.2448C73.988 40.2401 73.9257 40.2401 73.8637 40.2448C73.6694 40.2487 73.4825 40.3198 73.3346 40.4459C73.2701 40.5091 73.2187 40.5845 73.1834 40.6676C73.1481 40.7508 73.1296 40.8401 73.1289 40.9304V43.7726L71.4924 43.7634Z" fill="white"/>
<path d="M75.3596 43.7634V39.5248C75.3568 39.4042 75.3802 39.2845 75.4282 39.1739C75.4701 39.0785 75.5321 38.9931 75.6099 38.9237C75.6854 38.8564 75.7731 38.804 75.8682 38.7694C75.9667 38.7338 76.0708 38.716 76.1756 38.7168C76.3292 38.7167 76.4803 38.7561 76.6144 38.8311C76.7501 38.9043 76.8572 39.021 76.9184 39.1625C77.0682 39.0176 77.2452 38.9037 77.4391 38.8274C77.6331 38.7511 77.8402 38.7139 78.0486 38.718C78.2915 38.7173 78.5324 38.7611 78.7594 38.8471C78.9926 38.9387 79.1981 39.0891 79.356 39.2837C79.5286 39.1075 79.7345 38.9672 79.9617 38.8711C80.2311 38.7632 80.5195 38.7111 80.8096 38.718C81.059 38.7181 81.3068 38.7566 81.5445 38.8322C81.774 38.9028 81.9833 39.0274 82.1547 39.1957C82.3446 39.3895 82.4881 39.624 82.5741 39.8813C82.6878 40.2218 82.7412 40.5796 82.7318 40.9384V43.7726H81.0679V40.8413C81.071 40.7245 81.052 40.6082 81.0119 40.4985C80.9787 40.4125 80.9277 40.3346 80.8622 40.2699C80.8054 40.2135 80.7367 40.1705 80.6611 40.1442C80.5948 40.1215 80.5254 40.1096 80.4554 40.1088C80.3839 40.1095 80.3129 40.1215 80.2451 40.1442C80.1685 40.1691 80.0991 40.2123 80.0428 40.2699C79.9792 40.3361 79.9284 40.4136 79.8931 40.4985C79.8503 40.6076 79.8297 40.7241 79.8325 40.8413V43.7726H78.2326V40.8413C78.2353 40.7244 78.2159 40.6081 78.1755 40.4985C78.1423 40.4125 78.0913 40.3346 78.0258 40.2699C77.969 40.2135 77.9002 40.1705 77.8246 40.1442C77.758 40.1214 77.6882 40.1095 77.6178 40.1088C77.5478 40.1096 77.4783 40.1215 77.4121 40.1442C77.3389 40.168 77.2715 40.2069 77.2144 40.2585C77.1505 40.3188 77.0996 40.3915 77.0647 40.4722C77.0215 40.5758 76.9982 40.6867 76.9961 40.799V43.7703L75.3596 43.7634Z" fill="white"/>
<path d="M85.5332 40.5262C85.5336 40.4441 85.5459 40.3625 85.5698 40.284C85.5932 40.2044 85.632 40.1302 85.6841 40.0657C85.7387 39.9985 85.8078 39.9445 85.8863 39.908C85.9815 39.8657 86.085 39.8454 86.1892 39.8486H87.0611V38.9995C87.0611 38.7366 87.1354 38.5423 87.2828 38.4189C87.4284 38.296 87.6135 38.2298 87.804 38.2326C87.9944 38.23 88.1794 38.2962 88.3251 38.4189C88.4725 38.5423 88.5468 38.7366 88.5468 38.9995V39.8486H89.4187C89.5229 39.8454 89.6264 39.8657 89.7216 39.908C89.8001 39.9445 89.8693 39.9985 89.9239 40.0657C89.9751 40.1308 90.0138 40.2048 90.0381 40.284C90.0616 40.3626 90.0736 40.4442 90.0736 40.5262C90.0733 40.6094 90.0614 40.6921 90.0381 40.7719C90.0153 40.8549 89.9765 40.9325 89.9239 41.0005C89.8689 41.0694 89.7999 41.1259 89.7216 41.1662C89.6291 41.2125 89.5266 41.2349 89.4233 41.2313H88.5514V42.0782C88.5514 42.3425 88.4774 42.5364 88.3296 42.6599C88.1841 42.7827 87.9989 42.8485 87.8085 42.845C87.6181 42.8487 87.4328 42.7829 87.2874 42.6599C87.1396 42.5364 87.0657 42.3425 87.0657 42.0782V41.2313H86.1903C86.0856 41.2344 85.9817 41.2121 85.8875 41.1662C85.8083 41.1271 85.7391 41.0704 85.6852 41.0005C85.6328 40.9324 85.594 40.8548 85.5709 40.7719C85.5469 40.6922 85.5342 40.6095 85.5332 40.5262Z" fill="white"/>
<path d="M94.4974 41.3331C94.4939 41.5034 94.5254 41.6726 94.59 41.8302C94.6466 41.9655 94.732 42.0868 94.8403 42.1856C94.9445 42.28 95.0665 42.3527 95.1991 42.3993C95.3339 42.4484 95.4763 42.4731 95.6197 42.4725C95.7833 42.4746 95.9467 42.4608 96.1076 42.4313C96.2339 42.4075 96.357 42.3692 96.4745 42.3171C96.5339 42.2896 96.6002 42.2576 96.6733 42.2199C96.7424 42.1828 96.8174 42.1581 96.895 42.1468C97.0272 42.119 97.1647 42.1305 97.2904 42.1799C97.4176 42.2361 97.5228 42.3324 97.5899 42.4542C97.6385 42.5267 97.6706 42.609 97.6839 42.6954C97.6971 42.7817 97.6911 42.8698 97.6664 42.9536C97.616 43.1198 97.5159 43.2666 97.3796 43.3742C97.1392 43.5642 96.861 43.7005 96.5636 43.7741C96.2557 43.8562 95.9384 43.8981 95.6197 43.8987C95.2722 43.8994 94.9263 43.8533 94.5911 43.7616C94.2678 43.6754 93.9648 43.5259 93.6998 43.3216C93.4338 43.1144 93.2185 42.8494 93.0701 42.5468C92.9014 42.19 92.8196 41.7984 92.8312 41.404V39.724C92.8193 39.3296 92.9011 38.9379 93.0701 38.5812C93.2182 38.278 93.4335 38.0126 93.6998 37.8053C93.965 37.6014 94.268 37.4519 94.5911 37.3653C94.9263 37.2735 95.2722 37.2274 95.6197 37.2282C95.9395 37.2235 96.2586 37.262 96.5682 37.3424C96.797 37.3986 97.0143 37.4941 97.2104 37.6247C97.3675 37.7328 97.4873 37.8869 97.5533 38.0658C97.5856 38.1504 97.598 38.2413 97.5897 38.3314C97.5814 38.4215 97.5525 38.5086 97.5053 38.5858C97.4335 38.7179 97.3202 38.8227 97.183 38.8841C97.0539 38.9427 96.9098 38.9599 96.7705 38.9332C96.6854 38.9194 96.6026 38.8936 96.5248 38.8566C96.4516 38.8212 96.3853 38.7904 96.3271 38.7641C96.229 38.726 96.1271 38.6988 96.0231 38.6829C95.8883 38.6645 95.7523 38.6561 95.6162 38.6578C95.4729 38.6577 95.3306 38.6825 95.1957 38.7309C95.0632 38.7785 94.9413 38.8515 94.8368 38.9458C94.7283 39.0444 94.6429 39.1658 94.5866 39.3012C94.5219 39.4584 94.4904 39.6272 94.494 39.7972L94.4974 41.3331Z" fill="white"/>
<path d="M98.2438 40.9375C98.2306 40.5655 98.3026 40.1953 98.454 39.8553C98.5805 39.5868 98.7684 39.3519 99.0026 39.1696C99.2264 38.998 99.4832 38.8743 99.7568 38.8062C100.028 38.7372 100.306 38.7019 100.585 38.701C100.862 38.7022 101.137 38.7376 101.405 38.8062C101.679 38.8742 101.936 38.9979 102.16 39.1696C102.395 39.3524 102.584 39.5871 102.712 39.8553C102.866 40.1946 102.94 40.565 102.927 40.9375V41.6803C102.94 42.0529 102.867 42.4233 102.712 42.7626C102.584 43.0309 102.395 43.2656 102.16 43.4483C101.936 43.6195 101.679 43.7431 101.405 43.8117C101.137 43.8803 100.862 43.9156 100.585 43.9168C100.309 43.9158 100.034 43.8805 99.766 43.8117C99.4921 43.7431 99.2351 43.6195 99.0106 43.4483C98.7758 43.2654 98.5865 43.0307 98.4575 42.7626C98.3034 42.4232 98.2303 42.0528 98.2438 41.6803V40.9375ZM101.304 40.8655C101.308 40.7397 101.286 40.6144 101.239 40.4975C101.201 40.4051 101.145 40.3215 101.073 40.2518C101.008 40.1884 100.93 40.14 100.845 40.1101C100.762 40.0809 100.674 40.0659 100.587 40.0656C100.499 40.0658 100.411 40.0809 100.328 40.1101C100.243 40.1399 100.164 40.1883 100.1 40.2518C100.029 40.3218 99.9722 40.4054 99.934 40.4975C99.8882 40.6147 99.8665 40.7398 99.87 40.8655V41.7535C99.8665 41.8788 99.8883 42.0036 99.934 42.1203C99.9721 42.2129 100.028 42.2968 100.1 42.3672C100.164 42.4304 100.243 42.4784 100.328 42.5077C100.411 42.537 100.499 42.5521 100.587 42.5523C100.674 42.552 100.762 42.5369 100.845 42.5077C100.93 42.4783 101.008 42.4303 101.073 42.3672C101.145 42.2971 101.201 42.2131 101.239 42.1203C101.286 42.0038 101.308 41.8789 101.304 41.7535V40.8655Z" fill="white"/>
<path d="M103.668 43.7635V39.5248C103.665 39.4043 103.689 39.2846 103.737 39.174C103.78 39.079 103.841 38.9938 103.918 38.9237C103.994 38.8564 104.082 38.8041 104.178 38.7694C104.276 38.734 104.38 38.7162 104.484 38.7169C104.638 38.7166 104.79 38.756 104.924 38.8311C105.061 38.9053 105.17 39.0215 105.235 39.1626C105.393 39.0166 105.578 38.9039 105.78 38.8311C105.983 38.756 106.198 38.7173 106.414 38.7169C106.659 38.715 106.903 38.7505 107.137 38.822C107.358 38.8906 107.558 39.0141 107.718 39.1808C107.898 39.3776 108.032 39.6118 108.11 39.8665C108.216 40.2118 108.265 40.5719 108.255 40.9328V43.7669H106.591V40.8356C106.595 40.7184 106.574 40.6017 106.531 40.4928C106.496 40.407 106.444 40.3293 106.378 40.2642C106.32 40.2069 106.249 40.1639 106.172 40.1385C106.102 40.1155 106.028 40.1036 105.954 40.1031C105.88 40.1036 105.806 40.1155 105.736 40.1385C105.657 40.1647 105.585 40.2076 105.525 40.2642C105.458 40.3286 105.404 40.4064 105.369 40.4928C105.325 40.6017 105.305 40.7184 105.308 40.8356V43.7669L103.668 43.7635Z" fill="white"/>
<path d="M109.618 40.2117H109.35C109.098 40.2117 108.916 40.1432 108.806 40.0095C108.699 39.8816 108.64 39.7196 108.641 39.5523C108.641 39.4703 108.652 39.3887 108.676 39.3101C108.701 39.2294 108.742 39.155 108.798 39.0918C108.86 39.0235 108.935 38.9696 109.02 38.9341C109.125 38.8913 109.237 38.8707 109.35 38.8735H109.618V38.0335C109.615 37.9119 109.638 37.791 109.686 37.6793C109.725 37.5816 109.785 37.494 109.862 37.4233C109.937 37.359 110.023 37.3094 110.116 37.277C110.211 37.245 110.311 37.2287 110.411 37.229C110.511 37.2286 110.611 37.2448 110.706 37.277C110.799 37.3093 110.886 37.359 110.961 37.4233C111.039 37.4922 111.101 37.5777 111.142 37.6736C111.189 37.7857 111.213 37.9063 111.211 38.0278V38.8678H111.687C111.799 38.8646 111.91 38.8852 112.013 38.9284C112.097 38.9648 112.171 39.0186 112.232 39.0861C112.29 39.1501 112.333 39.2252 112.36 39.3066C112.387 39.3846 112.401 39.4665 112.4 39.5489C112.401 39.7159 112.343 39.8778 112.236 40.006C112.122 40.1397 111.943 40.2083 111.691 40.2083H111.211V42.2094C111.211 42.3339 111.236 42.4151 111.287 42.4528C111.341 42.4905 111.404 42.5126 111.469 42.5168C111.523 42.5227 111.578 42.5185 111.63 42.5042C111.694 42.4898 111.759 42.4833 111.824 42.4848C111.953 42.4829 112.079 42.5257 112.18 42.6059C112.281 42.6863 112.35 42.8009 112.373 42.9282C112.413 43.0761 112.4 43.2333 112.336 43.3727C112.279 43.4971 112.189 43.6031 112.075 43.679C111.968 43.7453 111.852 43.7972 111.732 43.8333C111.596 43.8752 111.455 43.8967 111.313 43.8973C111.07 43.901 110.827 43.8714 110.593 43.8093C110.396 43.7562 110.214 43.6593 110.06 43.5259C109.907 43.3894 109.792 43.2164 109.725 43.023C109.643 42.7733 109.604 42.5111 109.611 42.2482L109.618 40.2117Z" fill="white"/>
<path d="M115.265 43.9008C114.968 43.8991 114.672 43.8607 114.385 43.7865C114.097 43.7133 113.826 43.5869 113.585 43.4139C113.339 43.2352 113.14 43 113.004 42.7283C112.847 42.3972 112.771 42.0331 112.783 41.6666V40.9558C112.77 40.5861 112.843 40.2185 112.995 39.8815C113.124 39.6144 113.312 39.38 113.545 39.1958C113.765 39.0251 114.018 38.9003 114.288 38.829C114.548 38.7557 114.817 38.7172 115.088 38.7147C115.364 38.7146 115.639 38.7484 115.907 38.8153C116.174 38.8824 116.419 39.0143 116.622 39.1993C116.851 39.4177 117.024 39.6877 117.126 39.9867C117.266 40.4067 117.33 40.8482 117.316 41.2906C117.316 41.3603 117.316 41.4437 117.305 41.5409C117.293 41.638 117.286 41.7214 117.276 41.7912H114.376V41.7992C114.372 41.9196 114.403 42.0387 114.465 42.142C114.524 42.2336 114.602 42.3116 114.693 42.3706C114.783 42.4311 114.884 42.4749 114.989 42.4997C115.09 42.5236 115.193 42.5359 115.296 42.5363C115.448 42.5387 115.601 42.5306 115.753 42.5123C115.863 42.4955 115.97 42.4683 116.075 42.4311C116.134 42.4094 116.195 42.3877 116.257 42.3626C116.321 42.3382 116.387 42.3206 116.454 42.31C116.585 42.2926 116.717 42.3095 116.838 42.3591C116.896 42.383 116.948 42.4182 116.992 42.4625C117.036 42.5069 117.07 42.5595 117.093 42.6174C117.135 42.7022 117.157 42.7954 117.157 42.89C117.157 42.9845 117.135 43.0777 117.093 43.1625C116.998 43.3387 116.854 43.4833 116.677 43.5785C116.599 43.6233 116.517 43.6615 116.432 43.6928C116.319 43.7337 116.205 43.7684 116.089 43.7968C115.956 43.8308 115.821 43.8567 115.685 43.8745C115.546 43.8919 115.405 43.9007 115.265 43.9008ZM115.087 40.0255C114.998 40.025 114.909 40.0369 114.824 40.0609C114.742 40.0851 114.666 40.1268 114.602 40.1832C114.534 40.244 114.479 40.3179 114.441 40.4004C114.394 40.506 114.372 40.6209 114.376 40.7363H115.747C115.755 40.6225 115.739 40.5083 115.703 40.4004C115.672 40.3184 115.623 40.2443 115.561 40.1832C115.5 40.1258 115.426 40.0839 115.346 40.0609C115.262 40.0368 115.174 40.0248 115.087 40.0255Z" fill="white"/>
<path d="M118.033 43.7635V39.5248C118.031 39.4043 118.054 39.2846 118.102 39.174C118.144 39.0788 118.206 38.9935 118.284 38.9237C118.36 38.8563 118.448 38.8039 118.543 38.7694C118.641 38.7338 118.745 38.716 118.849 38.7169C119.003 38.7166 119.155 38.7559 119.289 38.8311C119.426 38.9057 119.535 39.0218 119.6 39.1625C119.758 39.0166 119.943 38.9039 120.145 38.8311C120.348 38.756 120.563 38.7173 120.78 38.7169C121.024 38.7152 121.268 38.7506 121.502 38.822C121.723 38.8906 121.923 39.014 122.084 39.1808C122.263 39.3779 122.397 39.612 122.476 39.8665C122.58 40.212 122.629 40.5719 122.62 40.9328V43.7669H120.957V40.8356C120.96 40.7184 120.94 40.6017 120.896 40.4928C120.861 40.407 120.808 40.3293 120.742 40.2642C120.684 40.2065 120.614 40.1634 120.536 40.1385C120.466 40.1155 120.393 40.1036 120.319 40.1031C120.245 40.1036 120.171 40.1155 120.101 40.1385C120.022 40.1647 119.951 40.2076 119.89 40.2642C119.823 40.3285 119.769 40.4064 119.734 40.4928C119.691 40.6017 119.67 40.7184 119.673 40.8356V43.7669L118.033 43.7635Z" fill="white"/>
<path d="M123.976 40.2118H123.71C123.457 40.2118 123.275 40.1432 123.165 40.0095C123.058 39.8813 122.999 39.7194 123 39.5524C123 39.4703 123.012 39.3887 123.035 39.3101C123.06 39.2297 123.101 39.1553 123.157 39.0918C123.22 39.0228 123.298 38.9689 123.385 38.9341C123.49 38.8912 123.602 38.8706 123.715 38.8735H123.982V38.0336C123.979 37.912 124.003 37.7912 124.05 37.6793C124.092 37.5836 124.154 37.4982 124.232 37.429C124.307 37.3649 124.394 37.3154 124.487 37.2827C124.582 37.2505 124.681 37.2343 124.782 37.2347C124.882 37.2343 124.982 37.2505 125.076 37.2827C125.17 37.3154 125.256 37.3649 125.331 37.429C125.409 37.4982 125.471 37.5836 125.513 37.6793C125.56 37.7914 125.583 37.912 125.582 38.0336V38.8735H126.057C126.169 38.8702 126.28 38.8909 126.384 38.9341C126.467 38.9703 126.542 39.0241 126.602 39.0918C126.658 39.1554 126.701 39.2296 126.728 39.3101C126.754 39.3882 126.767 39.47 126.768 39.5524C126.769 39.7196 126.71 39.8816 126.602 40.0095C126.488 40.1432 126.311 40.2118 126.057 40.2118H125.582V42.2128C125.575 42.2564 125.579 42.3009 125.592 42.343C125.605 42.3851 125.627 42.4238 125.657 42.4562C125.711 42.4936 125.773 42.5157 125.839 42.5202C125.893 42.5261 125.948 42.5219 126.001 42.5076C126.064 42.4933 126.129 42.4867 126.194 42.4882C126.323 42.4861 126.449 42.5289 126.551 42.6094C126.652 42.6898 126.721 42.8043 126.744 42.9316C126.783 43.0796 126.77 43.2366 126.707 43.3762C126.65 43.5006 126.559 43.6067 126.444 43.6825C126.338 43.749 126.222 43.8009 126.102 43.8367C125.965 43.8786 125.824 43.9002 125.681 43.9007C125.439 43.9044 125.197 43.8748 124.962 43.8127C124.765 43.7599 124.583 43.663 124.43 43.5293C124.278 43.3905 124.164 43.2156 124.098 43.0208C124.016 42.7709 123.978 42.5088 123.984 42.2459L123.976 40.2118Z" fill="white"/>
<path d="M128.757 40.2598C128.747 40.3558 128.805 40.429 128.931 40.4781C129.14 40.5468 129.355 40.598 129.573 40.6313L129.73 40.6633L129.879 40.6952C130.364 40.8194 130.719 41.0309 130.945 41.3295C131.172 41.6282 131.255 42.0224 131.196 42.5123C131.17 42.7337 131.092 42.9458 130.967 43.1306C130.844 43.3078 130.682 43.4553 130.495 43.5625C130.288 43.6811 130.063 43.7667 129.83 43.8162C129.567 43.8745 129.299 43.9029 129.03 43.9008C128.889 43.9008 128.745 43.894 128.598 43.8814C128.45 43.8677 128.302 43.8448 128.157 43.8128C128.013 43.7807 127.873 43.736 127.737 43.6791C127.609 43.6263 127.489 43.5542 127.382 43.4654C127.247 43.3492 127.15 43.1951 127.103 43.0231C127.078 42.9351 127.073 42.8426 127.089 42.7525C127.105 42.6624 127.142 42.5771 127.196 42.5032C127.252 42.4201 127.331 42.3556 127.424 42.318C127.518 42.2793 127.618 42.2572 127.719 42.2529C127.824 42.2428 127.93 42.2622 128.025 42.3089C128.101 42.3523 128.174 42.3957 128.244 42.438C128.359 42.5022 128.485 42.5459 128.615 42.5672C128.772 42.5996 128.932 42.6161 129.092 42.6163C129.217 42.6241 129.341 42.5959 129.45 42.5352C129.487 42.5154 129.518 42.4878 129.543 42.4544C129.567 42.4211 129.584 42.3827 129.592 42.342C129.604 42.2449 129.52 42.1683 129.345 42.1135C129.105 42.0399 128.862 41.9792 128.615 41.9318C128.556 41.9203 128.501 41.9078 128.441 41.894C128.388 41.8824 128.335 41.8675 128.284 41.8495C128.01 41.7766 127.756 41.643 127.541 41.4586C127.374 41.3104 127.247 41.1231 127.171 40.9135C127.1 40.7144 127.075 40.5019 127.097 40.2918C127.116 40.0823 127.171 39.8774 127.259 39.6862C127.337 39.5223 127.445 39.3743 127.577 39.2496C127.712 39.1245 127.867 39.0226 128.035 38.9479C128.209 38.8685 128.392 38.8099 128.58 38.7731C128.776 38.7358 128.976 38.7171 129.176 38.7171C129.456 38.7122 129.736 38.7422 130.008 38.8062C130.203 38.8511 130.39 38.9219 130.566 39.0165C130.728 39.1044 130.865 39.2337 130.961 39.3913C131.009 39.467 131.039 39.5521 131.05 39.6408C131.061 39.7294 131.053 39.8194 131.025 39.9044C131.009 39.9716 130.979 40.0349 130.938 40.0903C130.896 40.1456 130.844 40.1921 130.784 40.2267C130.664 40.2879 130.53 40.3185 130.396 40.3158C130.334 40.3148 130.273 40.3052 130.214 40.2873C130.158 40.2735 130.104 40.2503 130.056 40.2187C130.001 40.1831 129.941 40.1547 129.879 40.1341C129.809 40.1101 129.735 40.0873 129.657 40.0656C129.579 40.0445 129.499 40.0281 129.418 40.0164C129.346 40.0069 129.274 40.0019 129.201 40.0016C129.094 39.9957 128.986 40.0224 128.894 40.0781C128.858 40.0949 128.827 40.1202 128.803 40.1519C128.779 40.1836 128.763 40.2206 128.757 40.2598Z" fill="white"/>
<path d="M133.803 40.5259C133.805 40.4423 133.819 40.3596 133.846 40.2802C133.869 40.2006 133.908 40.1264 133.96 40.0619C134.014 39.9948 134.083 39.9409 134.161 39.9042C134.257 39.862 134.36 39.8417 134.465 39.8448H135.331V38.9957C135.331 38.7328 135.405 38.5385 135.56 38.4151C135.705 38.2922 135.89 38.226 136.081 38.2288C136.271 38.226 136.456 38.2922 136.601 38.4151C136.749 38.5385 136.829 38.7328 136.829 38.9957V39.8448H137.701C137.805 39.8417 137.909 39.8621 138.004 39.9042C138.082 39.9412 138.152 39.995 138.206 40.0619C138.258 40.127 138.296 40.201 138.321 40.2802C138.344 40.3588 138.356 40.4404 138.356 40.5225C138.356 40.6056 138.344 40.6883 138.321 40.7682C138.298 40.8511 138.259 40.9287 138.206 40.9967C138.151 41.0656 138.083 41.1221 138.004 41.1624C137.912 41.2085 137.809 41.2308 137.706 41.2276H136.817V42.0744C136.817 42.3388 136.741 42.5326 136.588 42.6561C136.443 42.7791 136.258 42.845 136.068 42.8412C135.878 42.845 135.693 42.7791 135.547 42.6561C135.395 42.5326 135.319 42.3388 135.319 42.0744V41.2276H134.448C134.343 41.2307 134.238 41.2083 134.144 41.1624C134.065 41.1234 133.996 41.0667 133.943 40.9967C133.89 40.9286 133.851 40.851 133.828 40.7682C133.809 40.6889 133.8 40.6074 133.803 40.5259Z" fill="white"/>
<path d="M142.767 41.3331C142.763 41.5034 142.795 41.6726 142.859 41.8302C142.916 41.9655 143.001 42.0868 143.11 42.1856C143.214 42.2803 143.337 42.3529 143.47 42.3993C143.604 42.4483 143.746 42.4731 143.889 42.4725C144.053 42.4747 144.216 42.4609 144.377 42.4313C144.503 42.4075 144.626 42.3692 144.744 42.3171C144.803 42.2896 144.87 42.2576 144.943 42.2199C145.012 42.1828 145.087 42.1581 145.164 42.1468C145.297 42.119 145.434 42.1305 145.56 42.1799C145.687 42.2357 145.793 42.3322 145.859 42.4542C145.908 42.5267 145.94 42.609 145.953 42.6954C145.967 42.7817 145.961 42.8698 145.936 42.9536C145.885 43.1198 145.785 43.2666 145.649 43.3742C145.409 43.5642 145.13 43.7005 144.833 43.7741C144.525 43.8562 144.208 43.8981 143.889 43.8987C143.542 43.8994 143.196 43.8533 142.861 43.7616C142.537 43.6754 142.234 43.5259 141.969 43.3216C141.703 43.1144 141.488 42.8494 141.34 42.5468C141.171 42.1898 141.089 41.7984 141.101 41.404V39.724C141.089 39.3296 141.171 38.9381 141.34 38.5812C141.488 38.278 141.703 38.0126 141.969 37.8053C142.234 37.6014 142.537 37.4519 142.861 37.3653C143.196 37.2735 143.542 37.2274 143.889 37.2282C144.209 37.2235 144.528 37.262 144.838 37.3424C145.067 37.3984 145.284 37.4939 145.48 37.6247C145.637 37.7328 145.757 37.8869 145.823 38.0658C145.855 38.1504 145.867 38.2413 145.859 38.3314C145.851 38.4215 145.822 38.5086 145.775 38.5858C145.703 38.7179 145.59 38.8227 145.452 38.8841C145.323 38.9432 145.179 38.9604 145.04 38.9332C144.955 38.9194 144.872 38.8936 144.794 38.8566C144.721 38.8212 144.655 38.7904 144.596 38.7641C144.498 38.726 144.397 38.6988 144.293 38.6829C144.158 38.6645 144.022 38.6561 143.886 38.6578C143.743 38.6578 143.601 38.6825 143.466 38.7309C143.333 38.7782 143.211 38.8512 143.106 38.9458C142.998 39.0444 142.912 39.1658 142.856 39.3012C142.791 39.4584 142.76 39.6272 142.763 39.7972L142.767 41.3331Z" fill="white"/>
<path d="M146.511 40.9375C146.498 40.5655 146.57 40.1953 146.722 39.8553C146.848 39.5868 147.036 39.3519 147.27 39.1696C147.494 38.998 147.751 38.8743 148.024 38.8062C148.295 38.7372 148.573 38.7019 148.853 38.701C149.129 38.7022 149.405 38.7376 149.672 38.8062C149.946 38.8742 150.203 38.9979 150.428 39.1696C150.662 39.3528 150.851 39.5874 150.981 39.8553C151.135 40.1947 151.208 40.5651 151.194 40.9375V41.6803C151.208 42.0528 151.135 42.4232 150.981 42.7626C150.852 43.0307 150.662 43.2654 150.428 43.4483C150.203 43.6195 149.946 43.7431 149.672 43.8117C149.405 43.8803 149.129 43.9156 148.853 43.9168C148.576 43.9158 148.301 43.8805 148.034 43.8117C147.76 43.7431 147.503 43.6195 147.278 43.4483C147.043 43.2654 146.854 43.0307 146.725 42.7626C146.572 42.4231 146.498 42.0527 146.511 41.6803V40.9375ZM149.572 40.8655C149.575 40.7398 149.553 40.6147 149.508 40.4975C149.47 40.4051 149.413 40.3214 149.341 40.2518C149.276 40.1882 149.198 40.1397 149.112 40.1101C149.029 40.0809 148.942 40.0659 148.854 40.0656C148.766 40.0658 148.679 40.0809 148.596 40.1101C148.51 40.1402 148.432 40.1885 148.367 40.2518C148.296 40.3219 148.24 40.4054 148.203 40.4975C148.156 40.6144 148.134 40.7397 148.137 40.8655V41.7535C148.134 41.8789 148.156 42.0038 148.203 42.1203C148.24 42.2128 148.296 42.2967 148.367 42.3672C148.432 42.4302 148.51 42.4781 148.596 42.5077C148.679 42.537 148.766 42.5521 148.854 42.5523C148.942 42.552 149.029 42.5369 149.112 42.5077C149.198 42.4785 149.276 42.4305 149.341 42.3672C149.413 42.2972 149.47 42.2132 149.508 42.1203C149.553 42.0036 149.575 41.8788 149.572 41.7535V40.8655Z" fill="white"/>
<path d="M151.938 43.7635V39.5248C151.935 39.4043 151.958 39.2845 152.006 39.1739C152.049 39.0787 152.111 38.9935 152.188 38.9237C152.264 38.8563 152.352 38.8039 152.447 38.7694C152.546 38.7337 152.649 38.7159 152.754 38.7168C152.908 38.7166 153.059 38.7559 153.194 38.8311C153.329 38.9045 153.436 39.0212 153.497 39.1625C153.646 39.0177 153.823 38.9039 154.017 38.8276C154.211 38.7513 154.418 38.7141 154.627 38.718C154.87 38.7173 155.111 38.761 155.338 38.8471C155.571 38.9387 155.776 39.0891 155.934 39.2837C156.107 39.1072 156.313 38.9669 156.541 38.8711C156.81 38.7631 157.098 38.711 157.388 38.718C157.638 38.718 157.886 38.7566 158.124 38.8323C158.353 38.9031 158.562 39.0277 158.733 39.1957C158.923 39.3892 159.067 39.6238 159.152 39.8813C159.266 40.2219 159.319 40.5796 159.31 40.9384V43.7726H157.647V40.8413C157.65 40.7244 157.631 40.6081 157.59 40.4985C157.557 40.4128 157.506 40.335 157.441 40.2699C157.384 40.2137 157.315 40.1707 157.239 40.1442C157.173 40.1215 157.104 40.1096 157.033 40.1088C156.962 40.1096 156.891 40.1216 156.823 40.1442C156.747 40.1691 156.677 40.2123 156.621 40.2699C156.557 40.3359 156.507 40.4135 156.472 40.4985C156.429 40.6073 156.408 40.724 156.411 40.8413V43.7726H154.811V40.8413C154.813 40.7244 154.794 40.6081 154.754 40.4985C154.721 40.4123 154.67 40.3344 154.604 40.2699C154.547 40.2132 154.479 40.1702 154.403 40.1442C154.336 40.1215 154.266 40.1095 154.196 40.1088C154.126 40.1096 154.056 40.1215 153.99 40.1442C153.917 40.1682 153.85 40.2071 153.792 40.2585C153.729 40.3186 153.678 40.3914 153.644 40.4722C153.6 40.5755 153.576 40.6866 153.575 40.799V43.7703L151.938 43.7635Z" fill="white"/>
<path d="M160.094 43.7634V39.5248C160.091 39.4042 160.115 39.2845 160.163 39.1739C160.205 39.0789 160.267 38.9938 160.344 38.9237C160.42 38.8564 160.508 38.804 160.604 38.7694C160.702 38.7339 160.806 38.7161 160.91 38.7168C161.064 38.7166 161.215 38.7559 161.35 38.8311C161.485 38.9045 161.592 39.0212 161.653 39.1625C161.803 39.0177 161.98 38.9039 162.174 38.8276C162.368 38.7513 162.575 38.7141 162.783 38.718C163.026 38.7172 163.267 38.761 163.494 38.8471C163.727 38.9387 163.933 39.0891 164.092 39.2836C164.264 39.1074 164.47 38.9672 164.697 38.8711C164.967 38.7631 165.255 38.711 165.545 38.718C165.795 38.7181 166.042 38.7566 166.28 38.8322C166.509 38.9031 166.718 39.0277 166.889 39.1956C167.079 39.3892 167.223 39.6238 167.309 39.8813C167.423 40.2217 167.476 40.5795 167.466 40.9384V43.7726H165.803V40.8413C165.806 40.7244 165.787 40.6081 165.746 40.4984C165.714 40.4124 165.663 40.3344 165.598 40.2699C165.541 40.2132 165.472 40.1702 165.395 40.1442C165.329 40.1215 165.26 40.1096 165.19 40.1088C165.118 40.1096 165.047 40.1216 164.979 40.1442C164.903 40.1691 164.833 40.2122 164.777 40.2699C164.714 40.3359 164.663 40.4135 164.629 40.4984C164.586 40.6076 164.565 40.7241 164.568 40.8413V43.7726H162.968V40.8413C162.971 40.7245 162.952 40.6083 162.912 40.4984C162.879 40.4128 162.828 40.3349 162.762 40.2699C162.705 40.2132 162.636 40.1702 162.56 40.1442C162.494 40.1213 162.424 40.1094 162.354 40.1088C162.284 40.1094 162.215 40.1213 162.149 40.1442C162.075 40.168 162.007 40.2069 161.95 40.2585C161.886 40.3186 161.835 40.3914 161.801 40.4722C161.758 40.5757 161.734 40.6867 161.733 40.799V43.7703L160.094 43.7634Z" fill="white"/>
<path d="M170.073 43.9006C169.828 43.9029 169.584 43.8674 169.349 43.7955C169.128 43.7272 168.928 43.6037 168.768 43.4366C168.588 43.2396 168.455 43.0055 168.377 42.7509C168.271 42.4057 168.222 42.0456 168.232 41.6847V39.5214C168.232 39.2418 168.314 39.0372 168.477 38.9077C168.644 38.7776 168.851 38.709 169.062 38.7134C169.274 38.7088 169.481 38.7774 169.649 38.9077C169.812 39.0364 169.894 39.241 169.894 39.5214V41.7818C169.891 41.899 169.912 42.0157 169.955 42.1247C169.991 42.2103 170.043 42.288 170.109 42.3532C170.167 42.4107 170.237 42.4534 170.315 42.4778C170.385 42.5012 170.458 42.5135 170.532 42.5144C170.604 42.5131 170.675 42.5007 170.742 42.4778C170.818 42.454 170.889 42.4151 170.949 42.3635C171.015 42.3031 171.068 42.2305 171.106 42.1498C171.152 42.0466 171.177 41.935 171.179 41.8218V39.5134C171.179 39.2391 171.258 39.0372 171.417 38.9077C171.578 38.778 171.781 38.7093 171.988 38.7134C172.199 38.7083 172.404 38.777 172.57 38.9077C172.73 39.0364 172.811 39.2383 172.812 39.5134V43.76H171.529L171.439 43.2355C171.287 43.4412 171.088 43.6074 170.858 43.72C170.614 43.8408 170.345 43.9026 170.073 43.9006Z" fill="white"/>
<path d="M173.615 43.7635V39.5248C173.613 39.4043 173.636 39.2846 173.684 39.174C173.727 39.079 173.789 38.9938 173.866 38.9237C173.942 38.8564 174.03 38.8041 174.125 38.7694C174.223 38.7339 174.327 38.7161 174.431 38.7169C174.585 38.7166 174.737 38.756 174.871 38.8311C175.008 38.9053 175.117 39.0215 175.182 39.1626C175.34 39.0166 175.525 38.9039 175.727 38.8311C175.93 38.756 176.145 38.7173 176.362 38.7169C176.606 38.715 176.85 38.7505 177.084 38.822C177.305 38.8906 177.505 39.0141 177.666 39.1808C177.845 39.3776 177.979 39.6118 178.058 39.8665C178.163 40.2118 178.212 40.5719 178.203 40.9328V43.7669H176.542V40.8356C176.546 40.7184 176.525 40.6017 176.482 40.4928C176.447 40.407 176.394 40.3293 176.328 40.2642C176.271 40.2069 176.2 40.1639 176.123 40.1385C176.052 40.1155 175.979 40.1036 175.905 40.1031C175.83 40.1036 175.757 40.1155 175.686 40.1385C175.608 40.1647 175.536 40.2076 175.476 40.2642C175.408 40.3286 175.355 40.4064 175.319 40.4928C175.276 40.6017 175.255 40.7184 175.259 40.8356V43.7669L173.615 43.7635Z" fill="white"/>
<path d="M179.02 37.6838C179.02 37.4194 179.103 37.2289 179.27 37.1124C179.444 36.9941 179.65 36.9334 179.86 36.9387C180.07 36.9334 180.276 36.9941 180.45 37.1124C180.616 37.2267 180.699 37.4175 180.699 37.6838C180.702 37.8018 180.679 37.919 180.63 38.0266C180.588 38.1157 180.526 38.1939 180.45 38.2552C180.37 38.3161 180.279 38.3601 180.182 38.3843C180.077 38.4122 179.969 38.426 179.86 38.4255C179.751 38.426 179.642 38.4122 179.536 38.3843C179.439 38.3608 179.349 38.3168 179.27 38.2552C179.193 38.1943 179.13 38.116 179.088 38.0266C179.04 37.919 179.016 37.8018 179.02 37.6838ZM179.028 39.5808C179.028 39.302 179.109 39.0963 179.274 38.9672C179.441 38.8369 179.648 38.7682 179.86 38.7729C180.071 38.7679 180.278 38.8366 180.445 38.9672C180.608 39.0963 180.691 39.302 180.691 39.5808V43.7635H179.028V39.5808Z" fill="white"/>
<path d="M181.957 40.0262H181.687C181.434 40.0262 181.252 39.9576 181.142 39.8239C181.034 39.6961 180.976 39.534 180.977 39.3668C180.977 39.2847 180.989 39.2031 181.013 39.1245C181.037 39.0439 181.079 38.9695 181.134 38.9063C181.196 38.8382 181.272 38.7844 181.356 38.7486C181.461 38.7058 181.574 38.6852 181.687 38.688H181.954V37.848C181.951 37.7264 181.975 37.6057 182.022 37.4938C182.063 37.3976 182.125 37.312 182.204 37.2435C182.279 37.1789 182.365 37.1293 182.459 37.0972C182.554 37.065 182.653 37.0488 182.754 37.0492C182.854 37.0489 182.953 37.0651 183.048 37.0972C183.141 37.1296 183.228 37.1792 183.302 37.2435C183.381 37.312 183.443 37.3976 183.484 37.4938C183.531 37.6057 183.555 37.7264 183.552 37.848V38.688H184.029C184.141 38.6848 184.252 38.7054 184.356 38.7486C184.439 38.7847 184.514 38.8385 184.574 38.9063C184.63 38.9699 184.672 39.0442 184.699 39.1245C184.726 39.2025 184.74 39.2843 184.74 39.3668C184.74 39.5339 184.681 39.6958 184.574 39.8239C184.46 39.9576 184.283 40.0262 184.029 40.0262H183.552V42.0273C183.552 42.1518 183.578 42.233 183.629 42.2707C183.683 42.3082 183.745 42.3304 183.811 42.3347C183.865 42.3406 183.92 42.3363 183.973 42.3221C184.036 42.3077 184.101 42.3012 184.166 42.3027C184.295 42.3004 184.421 42.3432 184.522 42.4238C184.623 42.5041 184.692 42.6186 184.716 42.7461C184.754 42.8941 184.742 43.0509 184.679 43.1906C184.622 43.3151 184.531 43.4211 184.416 43.4969C184.31 43.5636 184.194 43.6155 184.074 43.6512C183.938 43.6931 183.796 43.7146 183.654 43.7152C183.412 43.7189 183.17 43.6893 182.935 43.6272C182.738 43.5744 182.556 43.4775 182.402 43.3438C182.25 43.2049 182.137 43.0299 182.071 42.8352C181.989 42.5854 181.951 42.3233 181.957 42.0604V40.0262Z" fill="white"/>
<path d="M188.233 43.7555C187.986 44.3261 187.654 44.7299 187.237 44.9668C186.786 45.2094 186.267 45.292 185.763 45.2011C185.655 45.1882 185.551 45.154 185.456 45.1005C185.373 45.0517 185.301 44.9873 185.242 44.9108C185.188 44.8389 185.149 44.7564 185.128 44.6686C185.106 44.5812 185.1 44.4906 185.111 44.4012C185.134 44.2253 185.219 44.0633 185.35 43.944C185.482 43.8229 185.669 43.7848 185.911 43.8298C186.069 43.8622 186.233 43.8539 186.387 43.8058C186.456 43.7865 186.52 43.7535 186.576 43.709C186.631 43.6644 186.677 43.6091 186.711 43.5463V43.5395L185.063 39.8734C185.012 39.7664 184.986 39.6491 184.986 39.5305C184.988 39.4218 185.011 39.3145 185.055 39.2151C185.097 39.1186 185.159 39.0319 185.237 38.9603C185.317 38.8868 185.412 38.8307 185.515 38.7957C185.619 38.7576 185.728 38.7357 185.838 38.7306C185.946 38.7242 186.054 38.7393 186.157 38.7751C186.258 38.811 186.351 38.8691 186.427 38.9454C186.514 39.033 186.581 39.1388 186.622 39.2551L187.55 41.7693L188.406 39.2551C188.442 39.1383 188.506 39.0321 188.592 38.9454C188.668 38.8691 188.761 38.811 188.863 38.7751C188.962 38.7397 189.067 38.7245 189.172 38.7306C189.283 38.7367 189.392 38.7586 189.496 38.7957C189.596 38.8322 189.688 38.8881 189.767 38.9603C189.843 39.0315 189.904 39.1184 189.944 39.2151C189.985 39.3152 190.005 39.4224 190.004 39.5305C190.003 39.6485 189.978 39.7649 189.931 39.8734L188.233 43.7555Z" fill="white"/>
</g>
<path d="M11.8579 15.7207C11.8579 15.7207 8.79886 11.6617 10.9845 6.18183C13.1701 0.701975 19.1563 -0.1767 23.5222 0.0258282C27.8882 0.228356 37.369 1.71356 46.2254 0.0258282L43.4828 4.08482L28.4515 9.01195H16.6605L12.9865 11.4581L11.8579 13.7576V15.7207Z" fill="url(#paint0_linear_4444_5813)"/>
<path d="M11.858 15.7208C11.858 15.7208 12.6703 10.4467 20.0288 11.1196C27.3873 11.7926 44.2899 13.4877 46.2256 0.0249023C46.2256 0.0249023 41.2984 7.66928 24.7692 5.43725C24.7692 5.43725 8.42773 3.20417 11.858 15.7208Z" fill="url(#paint1_linear_4444_5813)"/>
<path d="M39.8203 17.4392C44.7137 17.4392 45.5164 24.2186 44.0607 28.8905L42.8287 32.9579C41.6388 36.7831 39.2058 40.1014 35.9156 42.3867C32.6254 44.6719 28.6664 45.7932 24.6665 45.5727C20.6497 45.3501 16.6182 44.7816 13.8134 43.5527C5.98967 40.1234 -1.23699 32.6731 0.178596 19.4128C1.28195 9.07546 7.55083 4.25698 10.2586 2.64098C10.3227 2.60241 10.3982 2.58702 10.4724 2.59739C10.5465 2.60776 10.6148 2.64327 10.666 2.69797C10.7171 2.75267 10.7479 2.82326 10.7532 2.89793C10.7586 2.97261 10.7381 3.04686 10.6953 3.10827C8.76705 5.87932 4.31143 13.3528 7.48015 20.8263C7.48015 20.8263 10.9611 35.3081 25.9545 32.6942C28.0452 32.3293 29.8627 31.0065 30.7371 29.0994C30.7614 29.0462 30.772 28.9877 30.768 28.9294C30.7639 28.8711 30.7453 28.8147 30.7138 28.7654C30.6823 28.7161 30.639 28.6754 30.5878 28.6472C30.5366 28.6189 30.4791 28.6039 30.4207 28.6036H29.7962C28.3135 28.6036 26.8915 28.0146 25.843 26.9661C24.7946 25.9177 24.2056 24.4957 24.2056 23.013C24.2056 22.2783 24.3504 21.5508 24.6318 20.8721C24.9131 20.1934 25.3255 19.5768 25.8453 19.0576C26.3651 18.5384 26.9821 18.1267 27.6612 17.8461C28.3402 17.5655 29.0678 17.4215 29.8025 17.4224L39.8203 17.4392Z" fill="url(#paint2_linear_4444_5813)"/>
<path d="M30.2234 28.6499C30.2234 28.6499 44.9911 29.1509 37.7296 40.9429C37.7296 40.9429 45.125 35.4279 44.8876 23.7498C44.8876 23.7498 44.9204 17.6227 40.3382 17.3431H29.1802C29.1802 17.3431 24.1328 17.4919 24.1328 22.5023C24.1328 26.9695 26.8437 28.6499 30.2234 28.6499Z" fill="url(#paint3_linear_4444_5813)"/>
<defs>
<linearGradient id="paint0_linear_4444_5813" x1="48.084" y1="7.85902" x2="6.39068" y2="7.85902" gradientUnits="userSpaceOnUse">
<stop stop-color="#3F8CFC"/>
<stop offset="0.47" stop-color="#0F61D6"/>
<stop offset="0.57" stop-color="#0A51C1"/>
<stop offset="0.72" stop-color="#0441AC"/>
<stop offset="0.87" stop-color="#01379F"/>
<stop offset="1" stop-color="#00349B"/>
</linearGradient>
<linearGradient id="paint1_linear_4444_5813" x1="11.3855" y1="7.87286" x2="46.2256" y2="7.87286" gradientUnits="userSpaceOnUse">
<stop stop-color="#3F8CFC"/>
<stop offset="0.47" stop-color="#0F61D6"/>
<stop offset="0.57" stop-color="#0A51C1"/>
<stop offset="0.72" stop-color="#0441AC"/>
<stop offset="0.87" stop-color="#01379F"/>
<stop offset="1" stop-color="#00349B"/>
</linearGradient>
<linearGradient id="paint2_linear_4444_5813" x1="-0.000725208" y1="24.0931" x2="44.7126" y2="24.0931" gradientUnits="userSpaceOnUse">
<stop stop-color="#3F8CFC"/>
<stop offset="0.47" stop-color="#0F61D6"/>
<stop offset="0.57" stop-color="#0A51C1"/>
<stop offset="0.72" stop-color="#0441AC"/>
<stop offset="0.87" stop-color="#01379F"/>
<stop offset="1" stop-color="#00349B"/>
</linearGradient>
<linearGradient id="paint3_linear_4444_5813" x1="44.3803" y1="33.7247" x2="27.6159" y2="16.9592" gradientUnits="userSpaceOnUse">
<stop stop-color="#3F8CFC"/>
<stop offset="0.47" stop-color="#0F61D6"/>
<stop offset="0.57" stop-color="#0A51C1"/>
<stop offset="0.72" stop-color="#0441AC"/>
<stop offset="0.87" stop-color="#01379F"/>
<stop offset="1" stop-color="#00349B"/>
</linearGradient>
<clipPath id="clip0_4444_5813">
<rect width="144.808" height="8.29105" fill="white" transform="translate(45.1934 36.9413)"/>
</clipPath>
</defs>
</svg>
