<svg width="22" height="21" viewBox="0 0 22 21" fill="none" xmlns="http://www.w3.org/2000/svg">
<path d="M4.14478 6.66901V11.3129L1.00366 9.28477C1.00253 9.28391 1.00161 9.28281 1.00097 9.28154C1.00034 9.28027 1 9.27886 1 9.27744C1 9.27602 1.00034 9.27462 1.00097 9.27335C1.00161 9.27208 1.00253 9.27097 1.00366 9.27012L4.14478 6.66901Z" stroke="#D4D4D4" stroke-width="0.8" stroke-miterlimit="10"/>
<path d="M14.4219 3.83359H7.57227L10.9971 1L14.4219 3.83359Z" stroke="#D4D4D4" stroke-width="0.8" stroke-miterlimit="10"/>
<path d="M20.9874 9.28477L17.8555 11.3129V6.67084L20.9966 9.27012C20.9978 9.2716 20.9985 9.27341 20.9986 9.2753C20.9987 9.27719 20.9982 9.27907 20.9972 9.28068C20.9962 9.28229 20.9947 9.28355 20.993 9.28428C20.9912 9.28501 20.9893 9.28518 20.9874 9.28477Z" stroke="#D4D4D4" stroke-width="0.8" stroke-miterlimit="10"/>
<path d="M8.03101 13.8299L6.24995 15.4773L1.0166 20.3739H1.00195V9.29944C1.00195 9.29944 1.00196 9.28845 1.0166 9.29944L4.15405 11.3258L8.03101 13.8299Z" stroke="#D4D4D4" stroke-width="0.8" stroke-miterlimit="10"/>
<path d="M21.0011 9.29394V20.3684H20.9864L15.744 15.4773L13.9629 13.8171L17.8582 11.313L20.9938 9.28662C20.9938 9.28662 21.0011 9.28662 21.0011 9.29394Z" stroke="#D4D4D4" stroke-width="0.8" stroke-miterlimit="10"/>
<path d="M13.9614 13.8244L17.8494 11.313V3.83362H4.14453V11.313L8.03064 13.8244L10.996 15.7391L13.9614 13.8244Z" stroke="#D4D4D4" stroke-width="0.8" stroke-miterlimit="10"/>
<path d="M13.9627 13.8298L15.7438 15.4901L20.9845 20.3793V20.3939H1.01758V20.3793L6.25093 15.4773L8.03199 13.817L10.9974 15.7317L13.9627 13.8298Z" stroke="#D4D4D4" stroke-width="0.8" stroke-miterlimit="10"/>
<path d="M10.8585 8.75212C11.21 8.52148 11.4791 8.32562 11.4827 8.00162C11.4816 7.93431 11.4669 7.86792 11.4394 7.80646C11.4119 7.74501 11.3722 7.68977 11.3228 7.64409C11.2733 7.5984 11.2151 7.56322 11.1517 7.54067C11.0883 7.51812 11.0209 7.50866 10.9537 7.51288C10.878 7.51118 10.8026 7.52458 10.7321 7.55229C10.6615 7.57999 10.5972 7.62146 10.5429 7.67428C10.4885 7.72709 10.4452 7.79019 10.4155 7.85991C10.3858 7.92962 10.3703 8.00455 10.3698 8.08033H8.98047C8.99511 6.86855 9.89571 6.35236 10.9611 6.35236C12.1454 6.35236 13.013 6.88137 13.013 7.92291C13.013 8.59836 12.6469 8.99557 12.0978 9.31225C11.6914 9.5557 11.4827 9.78085 11.4827 10.244V10.3703H10.2014V10.244C10.2069 9.31591 10.4357 9.02669 10.8585 8.75212ZM10.8585 10.7089C11.0605 10.7089 11.2542 10.7891 11.397 10.9319C11.5398 11.0747 11.62 11.2684 11.62 11.4704C11.62 11.6723 11.5398 11.866 11.397 12.0088C11.2542 12.1516 11.0605 12.2319 10.8585 12.2319C10.6566 12.2319 10.4629 12.1516 10.3201 12.0088C10.1773 11.866 10.0971 11.6723 10.0971 11.4704C10.0971 11.2684 10.1773 11.0747 10.3201 10.9319C10.4629 10.7891 10.6566 10.7089 10.8585 10.7089Z" fill="#D4D4D4"/>
</svg>
