<svg width="1300" height="351" viewBox="0 0 1300 351" fill="none" xmlns="http://www.w3.org/2000/svg">
<rect x="0.5" y="0.731934" width="1299" height="349" rx="19.5" fill="white" stroke="#D7D7D7"/>
<line x1="650.5" y1="125.232" x2="650.5" y2="225.232" stroke="#D6D6D6"/>
<path d="M428.254 194.571H419.471V149.576C419.471 148.365 419.929 147.204 420.746 146.348C421.562 145.492 422.669 145.011 423.823 145.011C424.985 145.011 426.1 145.489 426.929 146.343C427.758 147.197 428.233 148.358 428.254 149.576V194.571Z" fill="#404040"/>
<path d="M441.483 160.907V194.572H432.855V150.799C432.855 149.264 433.437 147.792 434.472 146.707C435.507 145.621 436.91 145.012 438.374 145.012C439.394 145.004 440.396 145.288 441.273 145.834C442.149 146.38 442.867 147.167 443.349 148.109L458.427 178.677V149.495C458.427 148.306 458.878 147.166 459.68 146.325C460.481 145.484 461.569 145.012 462.702 145.012C463.843 145.011 464.939 145.481 465.753 146.32C466.567 147.158 467.035 148.298 467.055 149.495V194.572H458.117L441.483 160.907Z" fill="#404040"/>
<path d="M481.419 177.767C481.347 180.035 482.094 182.248 483.512 183.966C484.93 185.685 486.915 186.783 489.072 187.043C493.894 187.043 496.726 184.244 496.726 180.166C496.726 176.088 494.506 174.169 490.144 173.289L484.48 172.01C481.137 171.784 478.007 170.22 475.74 167.643C473.473 165.067 472.245 161.676 472.311 158.177C472.311 150.18 477.592 144.263 487.618 144.263C490.423 144.028 493.236 144.605 495.747 145.931C498.258 147.257 500.371 149.281 501.854 151.78C502.164 152.447 502.307 153.186 502.27 153.927C502.233 154.667 502.018 155.387 501.644 156.017C501.269 156.647 500.748 157.169 500.13 157.532C499.511 157.896 498.814 158.09 498.104 158.097C497.283 158.123 496.474 157.894 495.779 157.438C495.084 156.983 494.534 156.321 494.2 155.538C493.589 154.301 492.632 153.286 491.456 152.63C490.281 151.973 488.943 151.704 487.618 151.86C483.026 151.86 480.653 154.418 480.653 158.097C480.653 161.775 482.643 163.454 487.159 164.494L492.746 165.693C496.143 165.978 499.305 167.613 501.583 170.26C503.861 172.908 505.081 176.367 504.992 179.926C504.992 188.482 498.945 194.559 488.536 194.559C486.382 194.646 484.233 194.275 482.22 193.468C480.207 192.661 478.372 191.435 476.826 189.865C475.28 188.294 474.056 186.412 473.227 184.333C472.398 182.253 471.982 180.02 472.005 177.767H481.419Z" fill="#404040"/>
<path d="M291.801 150.08C292.309 148.444 293.395 147.065 294.844 146.218C296.256 145.424 297.839 145.009 299.448 145.011C300.992 145.011 302.506 145.457 303.817 146.298C305.236 147.123 306.297 148.476 306.782 150.08L322.388 194.571H309.357L307.016 186.526H291.411L289.226 194.571H276.352L291.801 150.08ZM294.688 176.63H303.817L299.291 161.343L294.688 176.63Z" fill="#0052C9"/>
<path d="M351.505 192.377C350.887 192.37 350.272 192.304 349.666 192.177C349.002 192.06 348.35 191.875 347.722 191.623C347.134 191.402 346.58 191.096 346.076 190.714C345.648 190.372 345.334 189.899 345.178 189.362L339.193 166.95L336.458 194.571H325.279L330.238 151.166C330.307 150.278 330.563 149.415 330.986 148.639C331.377 147.927 331.891 147.295 332.504 146.777C333.076 146.27 333.726 145.865 334.427 145.58C335.075 145.295 335.759 145.108 336.458 145.026C337.222 144.987 337.987 145.024 338.745 145.137C339.55 145.26 340.331 145.522 341.053 145.912C341.806 146.31 342.481 146.852 343.041 147.509C343.665 148.238 344.112 149.112 344.344 150.058L351.505 178.189L358.665 150.058C358.898 149.117 359.337 148.245 359.947 147.509C360.486 146.838 361.156 146.294 361.914 145.912C362.653 145.528 363.447 145.266 364.265 145.137C365.022 145.024 365.788 144.987 366.552 145.026C367.251 145.108 367.934 145.295 368.582 145.58C369.281 145.87 369.93 146.274 370.506 146.777C371.11 147.303 371.624 147.933 372.023 148.639C372.449 149.413 372.698 150.277 372.75 151.166L377.666 194.571H366.552L363.88 166.75L357.831 189.362C357.675 189.904 357.353 190.379 356.912 190.714C356.418 191.1 355.87 191.406 355.288 191.623C354.659 191.875 354.007 192.06 353.343 192.177C352.737 192.303 352.122 192.369 351.505 192.377Z" fill="#0052C9"/>
<path d="M392.944 164.144H409.267C410.015 164.119 410.757 164.287 411.426 164.633C412.012 164.95 412.526 165.389 412.938 165.923C413.331 166.447 413.624 167.044 413.801 167.68C413.969 168.288 414.056 168.916 414.06 169.548C414.06 170.18 413.973 170.809 413.801 171.416C413.626 172.029 413.34 172.603 412.959 173.107C412.557 173.624 412.048 174.041 411.469 174.33C410.792 174.647 410.054 174.806 409.31 174.797H392.987V182.003C392.92 182.512 393.043 183.029 393.333 183.448C393.744 183.717 394.23 183.834 394.714 183.782H410.455C411.199 183.769 411.937 183.929 412.614 184.249C413.202 184.541 413.719 184.967 414.125 185.494C414.496 186.01 414.774 186.59 414.946 187.207C415.132 187.818 415.227 188.456 415.226 189.097C415.223 189.745 415.129 190.39 414.946 191.01C414.777 191.657 414.484 192.262 414.082 192.789C413.684 193.327 413.175 193.767 412.592 194.079C411.921 194.419 411.181 194.587 410.433 194.568H390.029C388.517 194.597 387.007 194.426 385.538 194.056C384.451 193.768 383.459 193.185 382.666 192.366C381.917 191.509 381.397 190.467 381.155 189.342C380.832 187.883 380.679 186.39 380.702 184.894V154.714C380.678 153.218 380.83 151.725 381.155 150.266C381.386 149.137 381.908 148.092 382.666 147.242C383.453 146.415 384.447 145.83 385.538 145.551C387.004 145.163 388.515 144.983 390.029 145.018H409.828C410.544 144.977 411.258 145.12 411.906 145.435C412.555 145.749 413.117 146.225 413.542 146.819C413.932 147.354 414.224 147.957 414.406 148.598C414.575 149.221 414.662 149.864 414.665 150.511C414.662 151.143 414.575 151.772 414.406 152.379C414.231 153.006 413.946 153.594 413.564 154.114C413.162 154.631 412.653 155.049 412.074 155.337C411.396 155.652 410.659 155.811 409.915 155.804H394.801C394.317 155.752 393.83 155.869 393.419 156.138C393.13 156.557 393.006 157.074 393.073 157.583L392.944 164.144Z" fill="#0052C9"/>
<g clip-path="url(#clip0_7008_5379)">
<path d="M278.979 205.833V208.993H276.352V200.4C276.347 200.074 276.379 199.748 276.448 199.43C276.501 199.187 276.613 198.963 276.774 198.78C276.941 198.598 277.153 198.467 277.386 198.404C277.699 198.322 278.02 198.284 278.342 198.291H280.56C281.078 198.286 281.593 198.36 282.09 198.511C282.533 198.643 282.945 198.869 283.301 199.174C283.648 199.48 283.922 199.866 284.099 200.302C284.3 200.821 284.397 201.377 284.386 201.936V202.162C284.397 202.721 284.299 203.276 284.099 203.795C283.922 204.231 283.648 204.618 283.301 204.923C282.945 205.228 282.533 205.454 282.09 205.587C281.593 205.738 281.078 205.812 280.56 205.807L278.979 205.833ZM278.979 203.521H280.423C280.618 203.524 280.811 203.486 280.991 203.408C281.152 203.337 281.295 203.231 281.412 203.096C281.526 202.964 281.614 202.811 281.673 202.645C281.733 202.474 281.763 202.294 281.762 202.113V202.021C281.763 201.839 281.733 201.659 281.673 201.488C281.614 201.322 281.525 201.169 281.412 201.037C281.297 200.903 281.155 200.797 280.997 200.725C280.817 200.647 280.623 200.609 280.428 200.612H279.346C279.242 200.601 279.138 200.627 279.052 200.686C278.989 200.776 278.962 200.888 278.976 200.998L278.979 203.521Z" fill="#404040"/>
<path d="M285.453 199.099C285.453 198.638 285.583 198.3 285.843 198.09C286.106 197.875 286.433 197.762 286.767 197.77C287.101 197.762 287.427 197.875 287.691 198.09C287.95 198.3 288.08 198.638 288.08 199.099V208.993H285.453V199.099Z" fill="#404040"/>
<path d="M294.201 208.993L294.1 208.429C293.845 208.669 293.551 208.86 293.232 208.993C292.891 209.137 292.527 209.209 292.16 209.205H291.88C291.592 209.202 291.305 209.16 291.027 209.079C290.719 208.996 290.431 208.85 290.178 208.649C289.906 208.428 289.684 208.147 289.529 207.825C289.34 207.42 289.25 206.973 289.265 206.523C289.251 206.087 289.339 205.654 289.522 205.261C289.681 204.936 289.916 204.658 290.204 204.451C290.505 204.239 290.843 204.09 291.198 204.011C291.59 203.922 291.99 203.877 292.391 203.88H293.704C293.702 203.711 293.664 203.546 293.594 203.394C293.536 203.272 293.449 203.167 293.34 203.09C293.228 203.012 293.102 202.957 292.97 202.93C292.826 202.898 292.679 202.882 292.531 202.883C292.39 202.883 292.249 202.896 292.109 202.923C291.974 202.951 291.828 202.985 291.676 203.03C291.578 203.063 291.483 203.103 291.389 203.148C291.299 203.193 291.196 203.242 291.077 203.295C290.961 203.357 290.832 203.391 290.702 203.394C290.57 203.399 290.438 203.381 290.312 203.342C290.185 203.303 290.066 203.239 289.962 203.154C289.854 203.066 289.769 202.952 289.713 202.821C289.654 202.702 289.62 202.572 289.611 202.438C289.602 202.305 289.62 202.171 289.662 202.045C289.751 201.788 289.91 201.564 290.121 201.402C290.297 201.265 290.49 201.153 290.695 201.069C290.91 200.98 291.131 200.906 291.357 200.849C291.586 200.792 291.818 200.75 292.051 200.725C292.278 200.698 292.506 200.684 292.734 200.684C293.178 200.682 293.621 200.733 294.054 200.838C294.458 200.931 294.837 201.116 295.162 201.381C295.501 201.669 295.764 202.042 295.927 202.464C296.136 203.027 296.234 203.628 296.214 204.231V208.985L294.201 208.993ZM293.704 205.844H292.544C292.342 205.832 292.142 205.899 291.985 206.032C291.919 206.095 291.868 206.173 291.835 206.259C291.802 206.345 291.787 206.437 291.792 206.53C291.785 206.622 291.799 206.715 291.832 206.8C291.866 206.886 291.918 206.962 291.985 207.023C292.136 207.136 292.32 207.192 292.506 207.181H292.687C292.809 207.181 292.93 207.163 293.048 207.128C293.164 207.094 293.273 207.04 293.372 206.968C293.47 206.898 293.552 206.808 293.614 206.703C293.681 206.59 293.715 206.46 293.712 206.327L293.704 205.844Z" fill="#404040"/>
<path d="M298.355 203.15H297.935C297.536 203.15 297.249 203.037 297.074 202.817C296.905 202.606 296.813 202.34 296.814 202.065C296.814 201.93 296.833 201.796 296.87 201.667C296.909 201.534 296.975 201.412 297.062 201.308C297.159 201.195 297.279 201.107 297.414 201.048C297.579 200.978 297.756 200.944 297.935 200.949H298.355V199.567C298.352 199.367 298.389 199.168 298.464 198.984C298.528 198.823 298.626 198.68 298.751 198.563C298.869 198.458 299.006 198.376 299.153 198.322C299.303 198.269 299.46 198.243 299.619 198.243C299.777 198.243 299.934 198.269 300.084 198.322C300.23 198.376 300.365 198.458 300.483 198.563C300.606 198.677 300.704 198.817 300.77 198.975C300.844 199.159 300.881 199.358 300.878 199.557V200.939H301.629C301.806 200.934 301.982 200.968 302.145 201.039C302.276 201.098 302.394 201.187 302.489 201.298C302.578 201.403 302.645 201.525 302.688 201.657C302.729 201.786 302.75 201.92 302.751 202.056C302.752 202.331 302.66 202.598 302.489 202.808C302.309 203.028 302.029 203.141 301.629 203.141H300.878V206.432C300.868 206.504 300.874 206.577 300.894 206.646C300.915 206.716 300.95 206.779 300.997 206.833C301.082 206.894 301.181 206.931 301.284 206.938C301.37 206.948 301.457 206.941 301.54 206.917C301.64 206.894 301.743 206.883 301.845 206.885C302.049 206.882 302.248 206.952 302.408 207.085C302.568 207.217 302.677 207.405 302.713 207.615C302.775 207.858 302.755 208.116 302.655 208.346C302.565 208.551 302.421 208.725 302.24 208.85C302.072 208.959 301.89 209.045 301.699 209.104C301.484 209.173 301.26 209.208 301.035 209.209C300.652 209.215 300.27 209.166 299.9 209.064C299.589 208.977 299.302 208.818 299.059 208.598C298.82 208.37 298.64 208.082 298.536 207.761C298.406 207.35 298.345 206.919 298.355 206.487V203.15Z" fill="#404040"/>
<path d="M304.376 208.993V203.15H303.941C303.542 203.15 303.255 203.038 303.08 202.818C302.911 202.607 302.818 202.341 302.818 202.066C302.818 201.926 302.838 201.788 302.876 201.654C302.916 201.522 302.981 201.4 303.067 201.295C303.164 201.184 303.285 201.097 303.419 201.043C303.585 200.976 303.763 200.944 303.941 200.949H304.376V200.658C304.364 200.201 304.425 199.745 304.556 199.31C304.662 198.97 304.848 198.664 305.097 198.419C305.351 198.184 305.655 198.016 305.983 197.928C306.381 197.821 306.791 197.769 307.201 197.776C307.459 197.777 307.715 197.806 307.966 197.862C308.215 197.913 308.452 198.009 308.668 198.146C308.868 198.263 309.02 198.452 309.094 198.678C309.157 198.908 309.157 199.153 309.094 199.383C309.035 199.586 308.924 199.769 308.775 199.913C308.63 200.06 308.436 200.141 308.233 200.141C308.148 200.142 308.062 200.135 307.977 200.12L307.708 200.073C307.646 200.058 307.583 200.047 307.519 200.039C307.467 200.039 307.412 200.039 307.351 200.039C307.298 200.035 307.245 200.043 307.195 200.064C307.146 200.085 307.102 200.116 307.066 200.158C306.99 200.285 306.956 200.435 306.97 200.584V200.96H307.692C307.868 200.955 308.043 200.987 308.206 201.054C308.338 201.11 308.457 201.196 308.553 201.306C308.64 201.412 308.707 201.533 308.75 201.665C308.792 201.798 308.813 201.937 308.813 202.077C308.814 202.352 308.722 202.618 308.553 202.829C308.372 203.049 308.091 203.162 307.692 203.162H306.97V209.004L304.376 208.993Z" fill="#404040"/>
<path d="M309.309 204.344C309.289 203.732 309.402 203.124 309.639 202.564C309.84 202.123 310.137 201.737 310.505 201.436C310.86 201.154 311.266 200.95 311.698 200.838C312.125 200.724 312.564 200.666 313.005 200.665C313.442 200.667 313.877 200.725 314.3 200.838C314.733 200.95 315.139 201.154 315.493 201.436C315.862 201.737 316.161 202.123 316.364 202.564C316.608 203.122 316.724 203.731 316.704 204.344V205.566C316.724 206.179 316.608 206.788 316.364 207.346C316.161 207.787 315.862 208.173 315.493 208.474C315.138 208.755 314.733 208.959 314.3 209.072C313.877 209.185 313.442 209.243 313.005 209.245C312.568 209.243 312.134 209.185 311.711 209.072C311.279 208.959 310.874 208.755 310.52 208.474C310.149 208.174 309.85 207.788 309.647 207.346C309.403 206.788 309.288 206.179 309.309 205.566V204.344ZM314.14 204.226C314.145 204.019 314.111 203.813 314.039 203.62C313.978 203.469 313.889 203.331 313.777 203.216C313.674 203.112 313.551 203.032 313.416 202.983C313.284 202.935 313.146 202.91 313.006 202.91C312.868 202.91 312.731 202.935 312.6 202.983C312.465 203.032 312.342 203.112 312.24 203.216C312.127 203.331 312.038 203.469 311.978 203.62C311.905 203.813 311.87 204.019 311.877 204.226V205.686C311.87 205.893 311.905 206.098 311.978 206.29C312.038 206.442 312.127 206.58 312.24 206.696C312.342 206.8 312.465 206.879 312.6 206.927C312.731 206.975 312.868 207 313.006 207C313.146 207 313.284 206.975 313.416 206.927C313.551 206.879 313.674 206.8 313.777 206.696C313.889 206.58 313.978 206.442 314.039 206.29C314.111 206.098 314.145 205.892 314.14 205.686V204.226Z" fill="#404040"/>
<path d="M317.877 208.993V202.02C317.873 201.822 317.91 201.625 317.986 201.443C318.052 201.286 318.15 201.146 318.272 201.031C318.392 200.92 318.53 200.834 318.68 200.777C318.836 200.719 319 200.69 319.166 200.691C319.408 200.691 319.647 200.755 319.859 200.879C320.078 201.005 320.251 201.204 320.351 201.443C320.583 201.216 320.849 201.032 321.14 200.898C321.424 200.766 321.731 200.698 322.042 200.698C322.142 200.699 322.242 200.706 322.341 200.719C322.445 200.731 322.546 200.76 322.641 200.806C322.883 200.906 323.081 201.095 323.197 201.338C323.322 201.595 323.364 201.888 323.318 202.172C323.288 202.463 323.154 202.732 322.942 202.924C322.739 203.109 322.478 203.208 322.208 203.204C322.114 203.204 322.017 203.204 321.916 203.204C321.818 203.197 321.719 203.197 321.622 203.204C321.315 203.211 321.02 203.328 320.786 203.535C320.684 203.639 320.603 203.763 320.547 203.9C320.492 204.037 320.462 204.184 320.461 204.332V209.008L317.877 208.993Z" fill="#404040"/>
<path d="M323.983 208.993V202.02C323.978 201.822 324.015 201.625 324.091 201.443C324.157 201.286 324.255 201.146 324.378 201.031C324.497 200.921 324.636 200.834 324.786 200.777C324.941 200.719 325.106 200.69 325.271 200.691C325.514 200.691 325.752 200.755 325.964 200.879C326.178 200.999 326.347 201.191 326.444 201.424C326.681 201.186 326.96 200.998 327.266 200.873C327.573 200.747 327.9 200.686 328.229 200.693C328.612 200.692 328.992 200.764 329.351 200.905C329.719 201.056 330.044 201.303 330.293 201.623C330.566 201.334 330.891 201.103 331.249 200.945C331.675 200.767 332.13 200.682 332.588 200.693C332.982 200.693 333.373 200.756 333.748 200.881C334.111 200.997 334.441 201.202 334.712 201.479C335.012 201.798 335.238 202.183 335.374 202.607C335.554 203.167 335.638 203.755 335.623 204.345V209.008H332.996V204.186C333.001 203.994 332.971 203.802 332.908 203.622C332.855 203.48 332.775 203.352 332.671 203.246C332.581 203.153 332.473 203.082 332.354 203.039C332.249 203.002 332.139 202.982 332.029 202.981C331.916 202.982 331.804 203.002 331.697 203.039C331.576 203.08 331.466 203.151 331.377 203.246C331.277 203.355 331.197 203.482 331.141 203.622C331.073 203.801 331.041 203.993 331.045 204.186V209.008H328.519V204.186C328.523 203.993 328.493 203.802 328.429 203.622C328.377 203.48 328.296 203.352 328.193 203.246C328.103 203.153 327.994 203.082 327.875 203.039C327.77 203.002 327.66 202.982 327.548 202.981C327.438 202.982 327.328 203.002 327.224 203.039C327.108 203.078 327.002 203.142 326.911 203.227C326.811 203.326 326.73 203.446 326.675 203.578C326.607 203.749 326.57 203.931 326.567 204.116V209.004L323.983 208.993Z" fill="#404040"/>
<path d="M340.045 203.667C340.046 203.532 340.065 203.398 340.103 203.269C340.14 203.138 340.201 203.016 340.283 202.91C340.369 202.799 340.479 202.711 340.602 202.65C340.753 202.581 340.916 202.547 341.081 202.553H342.457V201.156C342.457 200.723 342.575 200.404 342.808 200.201C343.037 199.999 343.33 199.89 343.63 199.894C343.931 199.89 344.223 199.999 344.453 200.201C344.686 200.404 344.803 200.723 344.803 201.156V202.553H346.18C346.344 202.547 346.508 202.581 346.658 202.65C346.782 202.711 346.891 202.799 346.978 202.91C347.058 203.017 347.12 203.139 347.158 203.269C347.195 203.398 347.214 203.532 347.214 203.667C347.214 203.804 347.195 203.94 347.158 204.072C347.122 204.208 347.061 204.336 346.978 204.448C346.891 204.561 346.782 204.654 346.658 204.72C346.512 204.796 346.35 204.833 346.187 204.827H344.81V206.22C344.81 206.655 344.694 206.974 344.46 207.177C344.231 207.379 343.938 207.488 343.638 207.482C343.337 207.488 343.044 207.38 342.815 207.177C342.581 206.974 342.465 206.655 342.465 206.22V204.827H341.082C340.917 204.832 340.753 204.796 340.604 204.72C340.479 204.656 340.37 204.563 340.285 204.448C340.202 204.335 340.141 204.208 340.104 204.072C340.067 203.94 340.047 203.804 340.045 203.667Z" fill="#404040"/>
<path d="M354.201 204.995C354.196 205.275 354.245 205.553 354.347 205.812C354.437 206.035 354.571 206.234 354.742 206.397C354.907 206.552 355.1 206.672 355.309 206.749C355.522 206.829 355.747 206.87 355.973 206.869C356.231 206.872 356.489 206.85 356.743 206.801C356.943 206.762 357.137 206.699 357.323 206.613C357.417 206.568 357.521 206.516 357.637 206.454C357.746 206.393 357.864 206.352 357.987 206.333C358.196 206.288 358.413 206.306 358.611 206.388C358.812 206.48 358.978 206.639 359.084 206.839C359.161 206.958 359.211 207.094 359.232 207.236C359.253 207.378 359.244 207.523 359.205 207.66C359.125 207.934 358.967 208.175 358.752 208.352C358.372 208.665 357.933 208.889 357.463 209.01C356.977 209.145 356.476 209.214 355.973 209.215C355.424 209.216 354.878 209.14 354.349 208.99C353.838 208.848 353.36 208.602 352.942 208.266C352.522 207.925 352.182 207.489 351.947 206.991C351.681 206.404 351.552 205.76 351.57 205.111V202.348C351.551 201.699 351.681 201.055 351.947 200.468C352.181 199.969 352.521 199.533 352.942 199.191C353.36 198.856 353.839 198.61 354.349 198.468C354.878 198.317 355.424 198.241 355.973 198.242C356.478 198.234 356.982 198.298 357.471 198.43C357.832 198.522 358.175 198.68 358.485 198.894C358.733 199.072 358.922 199.326 359.026 199.62C359.077 199.759 359.097 199.909 359.084 200.057C359.07 200.205 359.025 200.348 358.95 200.475C358.837 200.693 358.658 200.865 358.441 200.966C358.238 201.063 358.01 201.091 357.79 201.047C357.656 201.024 357.525 200.982 357.402 200.921C357.287 200.863 357.182 200.812 357.09 200.769C356.935 200.706 356.774 200.661 356.61 200.635C356.397 200.605 356.182 200.591 355.968 200.594C355.741 200.594 355.517 200.634 355.304 200.714C355.094 200.792 354.902 200.912 354.737 201.068C354.566 201.23 354.431 201.429 354.342 201.652C354.24 201.911 354.19 202.189 354.196 202.468L354.201 204.995Z" fill="#404040"/>
<path d="M360.114 204.344C360.093 203.732 360.207 203.123 360.446 202.564C360.646 202.122 360.942 201.736 361.312 201.436C361.665 201.154 362.071 200.95 362.503 200.838C362.93 200.724 363.37 200.666 363.811 200.665C364.248 200.667 364.682 200.725 365.105 200.838C365.538 200.95 365.944 201.153 366.298 201.436C366.668 201.736 366.966 202.123 367.169 202.564C367.413 203.122 367.529 203.731 367.508 204.344V205.566C367.529 206.179 367.413 206.788 367.169 207.346C366.967 207.788 366.668 208.174 366.298 208.474C365.943 208.756 365.537 208.959 365.105 209.072C364.682 209.185 364.248 209.243 363.811 209.245C363.375 209.243 362.94 209.185 362.517 209.072C362.085 208.959 361.679 208.756 361.325 208.474C360.954 208.173 360.655 207.787 360.451 207.346C360.208 206.788 360.093 206.179 360.114 205.566V204.344ZM364.946 204.226C364.952 204.019 364.917 203.813 364.843 203.62C364.784 203.468 364.695 203.331 364.582 203.216C364.479 203.112 364.356 203.032 364.221 202.983C364.09 202.935 363.952 202.91 363.813 202.91C363.674 202.91 363.536 202.935 363.405 202.983C363.27 203.032 363.146 203.112 363.044 203.216C362.932 203.331 362.843 203.469 362.783 203.62C362.71 203.813 362.676 204.019 362.682 204.226V205.686C362.676 205.892 362.71 206.098 362.783 206.29C362.843 206.442 362.932 206.58 363.044 206.696C363.147 206.8 363.27 206.879 363.405 206.927C363.536 206.975 363.674 207 363.813 207C363.952 207 364.09 206.975 364.221 206.927C364.356 206.879 364.479 206.8 364.582 206.696C364.695 206.581 364.784 206.442 364.843 206.29C364.917 206.098 364.952 205.893 364.946 205.686V204.226Z" fill="#404040"/>
<path d="M368.68 208.993V202.02C368.676 201.822 368.713 201.625 368.788 201.443C368.856 201.287 368.954 201.147 369.075 201.031C369.195 200.921 369.334 200.834 369.485 200.778C369.64 200.719 369.804 200.69 369.968 200.691C370.212 200.691 370.451 200.755 370.663 200.879C370.879 201.001 371.051 201.192 371.154 201.424C371.403 201.184 371.696 200.999 372.015 200.879C372.335 200.755 372.674 200.692 373.016 200.691C373.402 200.688 373.787 200.746 374.157 200.864C374.506 200.977 374.822 201.18 375.075 201.454C375.359 201.778 375.57 202.163 375.694 202.582C375.86 203.15 375.938 203.742 375.923 204.336V208.998H373.296V204.176C373.301 203.984 373.269 203.792 373.2 203.612C373.145 203.471 373.063 203.343 372.958 203.236C372.867 203.142 372.756 203.071 372.634 203.03C372.522 202.992 372.406 202.972 372.289 202.971C372.172 202.972 372.056 202.992 371.944 203.03C371.821 203.073 371.707 203.143 371.612 203.236C371.505 203.342 371.421 203.47 371.365 203.612C371.297 203.792 371.264 203.984 371.269 204.176V208.998L368.68 208.993Z" fill="#404040"/>
<path d="M378.074 203.15H377.652C377.253 203.15 376.966 203.037 376.793 202.817C376.623 202.607 376.53 202.34 376.531 202.065C376.531 201.93 376.55 201.796 376.587 201.667C376.626 201.534 376.692 201.412 376.78 201.308C376.877 201.195 376.997 201.107 377.13 201.048C377.296 200.978 377.473 200.944 377.652 200.949H378.074V199.567C378.069 199.367 378.106 199.168 378.182 198.984C378.243 198.823 378.338 198.679 378.46 198.563C378.578 198.457 378.714 198.376 378.861 198.322C379.011 198.27 379.168 198.243 379.326 198.243C379.485 198.243 379.642 198.269 379.792 198.322C379.939 198.376 380.076 198.457 380.194 198.563C380.318 198.676 380.416 198.817 380.481 198.975C380.555 199.159 380.592 199.358 380.589 199.557V200.939H381.342C381.518 200.934 381.693 200.968 381.856 201.039C381.988 201.099 382.106 201.187 382.203 201.298C382.293 201.404 382.362 201.527 382.405 201.661C382.447 201.789 382.468 201.924 382.468 202.06C382.469 202.334 382.377 202.601 382.208 202.812C382.028 203.032 381.746 203.144 381.347 203.144H380.589V206.436C380.589 206.641 380.629 206.774 380.71 206.836C380.795 206.899 380.894 206.935 380.997 206.942C381.083 206.952 381.169 206.945 381.252 206.921C381.352 206.897 381.455 206.887 381.558 206.889C381.762 206.886 381.96 206.956 382.12 207.088C382.28 207.221 382.388 207.409 382.425 207.619C382.487 207.862 382.467 208.12 382.367 208.35C382.277 208.554 382.134 208.729 381.954 208.854C381.785 208.963 381.603 209.048 381.412 209.107C381.198 209.176 380.975 209.212 380.75 209.213C380.367 209.219 379.984 209.17 379.613 209.068C379.303 208.981 379.015 208.821 378.772 208.602C378.532 208.377 378.35 208.093 378.244 207.775C378.113 207.364 378.052 206.933 378.063 206.5L378.074 203.15Z" fill="#404040"/>
<path d="M386.99 209.219C386.521 209.216 386.054 209.153 385.6 209.031C385.146 208.91 384.718 208.702 384.337 208.418C383.949 208.124 383.635 207.737 383.421 207.29C383.172 206.745 383.052 206.146 383.071 205.543V204.374C383.051 203.766 383.166 203.161 383.406 202.607C383.61 202.168 383.907 201.782 384.274 201.479C384.622 201.198 385.021 200.993 385.447 200.875C385.858 200.755 386.283 200.692 386.71 200.688C387.146 200.687 387.581 200.743 388.004 200.853C388.425 200.963 388.813 201.18 389.133 201.485C389.494 201.844 389.767 202.288 389.929 202.78C390.15 203.471 390.251 204.197 390.229 204.925C390.229 205.039 390.229 205.177 390.211 205.337C390.193 205.496 390.182 205.634 390.166 205.748H385.586V205.761C385.58 205.96 385.629 206.155 385.727 206.325C385.82 206.476 385.943 206.604 386.088 206.701C386.23 206.801 386.388 206.873 386.555 206.914C386.713 206.953 386.876 206.973 387.039 206.974C387.28 206.978 387.521 206.965 387.76 206.934C387.934 206.907 388.104 206.862 388.269 206.801C388.363 206.765 388.459 206.73 388.556 206.688C388.657 206.648 388.762 206.619 388.868 206.602C389.074 206.573 389.283 206.601 389.475 206.683C389.565 206.722 389.648 206.78 389.717 206.853C389.786 206.926 389.84 207.012 389.877 207.107C389.943 207.247 389.977 207.4 389.977 207.556C389.977 207.711 389.943 207.865 389.877 208.004C389.727 208.294 389.498 208.532 389.22 208.688C389.096 208.762 388.966 208.825 388.832 208.876C388.655 208.944 388.474 209.001 388.291 209.047C388.081 209.103 387.868 209.146 387.654 209.175C387.434 209.204 387.212 209.218 386.99 209.219ZM386.708 202.844C386.568 202.843 386.428 202.862 386.293 202.902C386.164 202.942 386.044 203.01 385.943 203.103C385.836 203.203 385.75 203.325 385.689 203.46C385.615 203.634 385.58 203.823 385.586 204.013H387.751C387.763 203.826 387.739 203.638 387.681 203.46C387.633 203.326 387.556 203.204 387.457 203.103C387.361 203.009 387.245 202.94 387.118 202.902C386.985 202.862 386.847 202.843 386.708 202.844Z" fill="#404040"/>
<path d="M391.362 208.993V202.02C391.357 201.822 391.394 201.625 391.47 201.443C391.537 201.286 391.635 201.146 391.757 201.031C391.877 200.92 392.016 200.834 392.166 200.777C392.321 200.719 392.485 200.69 392.65 200.691C392.893 200.691 393.133 200.755 393.345 200.879C393.56 201.002 393.732 201.193 393.836 201.424C394.084 201.184 394.377 200.999 394.696 200.879C395.017 200.755 395.356 200.692 395.698 200.691C396.084 200.688 396.469 200.747 396.838 200.864C397.187 200.977 397.503 201.18 397.757 201.454C398.04 201.778 398.251 202.164 398.376 202.582C398.541 203.15 398.617 203.743 398.603 204.336V208.998H395.977V204.176C395.983 203.984 395.95 203.792 395.882 203.612C395.826 203.471 395.743 203.343 395.638 203.236C395.547 203.141 395.436 203.07 395.313 203.03C395.203 202.992 395.087 202.972 394.971 202.971C394.853 202.972 394.737 202.992 394.626 203.03C394.502 203.073 394.389 203.143 394.294 203.236C394.187 203.342 394.103 203.47 394.047 203.612C393.978 203.792 393.946 203.984 393.951 204.176V208.998L391.362 208.993Z" fill="#404040"/>
<path d="M400.744 203.15H400.324C399.925 203.15 399.638 203.037 399.463 202.817C399.294 202.606 399.202 202.34 399.203 202.065C399.203 201.93 399.222 201.796 399.259 201.667C399.298 201.535 399.363 201.412 399.45 201.308C399.55 201.194 399.674 201.106 399.811 201.048C399.977 200.978 400.154 200.944 400.333 200.949H400.753V199.567C400.749 199.367 400.786 199.168 400.861 198.984C400.927 198.827 401.025 198.686 401.148 198.573C401.267 198.467 401.403 198.386 401.551 198.332C401.701 198.279 401.858 198.252 402.016 198.253C402.175 198.252 402.332 198.279 402.482 198.332C402.629 198.386 402.765 198.467 402.884 198.573C403.007 198.686 403.105 198.827 403.171 198.984C403.245 199.169 403.282 199.367 403.279 199.567V200.949H404.03C404.207 200.943 404.383 200.977 404.546 201.048C404.678 201.108 404.795 201.196 404.891 201.308C404.979 201.412 405.047 201.535 405.089 201.667C405.13 201.795 405.152 201.93 405.152 202.065C405.154 202.34 405.061 202.607 404.891 202.817C404.71 203.037 404.431 203.15 404.03 203.15H403.279V206.442C403.269 206.514 403.275 206.587 403.296 206.656C403.316 206.725 403.351 206.789 403.398 206.842C403.483 206.904 403.582 206.94 403.685 206.948C403.771 206.957 403.858 206.95 403.942 206.927C404.042 206.903 404.144 206.892 404.247 206.895C404.451 206.891 404.65 206.962 404.81 207.094C404.97 207.226 405.078 207.415 405.114 207.624C405.176 207.868 405.156 208.126 405.057 208.356C404.966 208.56 404.822 208.735 404.642 208.859C404.473 208.969 404.291 209.054 404.1 209.113C403.885 209.182 403.661 209.218 403.436 209.218C403.053 209.225 402.672 209.176 402.301 209.074C401.991 208.987 401.703 208.827 401.46 208.607C401.221 208.379 401.041 208.091 400.937 207.771C400.808 207.36 400.747 206.929 400.757 206.496L400.744 203.15Z" fill="#404040"/>
<path d="M408.294 203.229C408.278 203.387 408.37 203.508 408.568 203.588C408.899 203.701 409.238 203.786 409.582 203.84L409.831 203.893L410.066 203.946C410.831 204.15 411.392 204.498 411.749 204.989C412.107 205.48 412.238 206.129 412.145 206.935C412.104 207.299 411.98 207.648 411.784 207.952C411.589 208.243 411.334 208.486 411.038 208.662C410.711 208.857 410.357 208.998 409.988 209.08C409.574 209.175 409.15 209.222 408.725 209.219C408.503 209.219 408.276 209.207 408.043 209.187C407.809 209.164 407.576 209.127 407.347 209.074C407.12 209.021 406.898 208.948 406.684 208.854C406.481 208.767 406.292 208.649 406.123 208.503C405.91 208.311 405.757 208.058 405.683 207.775C405.643 207.63 405.636 207.478 405.661 207.33C405.687 207.182 405.744 207.041 405.829 206.92C405.918 206.783 406.043 206.677 406.19 206.615C406.338 206.551 406.496 206.515 406.656 206.508C406.822 206.491 406.989 206.523 407.139 206.6C407.258 206.671 407.374 206.743 407.484 206.812C407.666 206.918 407.864 206.99 408.07 207.025C408.318 207.078 408.57 207.105 408.823 207.106C409.02 207.119 409.216 207.072 409.389 206.972C409.447 206.94 409.497 206.894 409.535 206.839C409.574 206.785 409.6 206.721 409.613 206.655C409.631 206.495 409.499 206.369 409.223 206.279C408.844 206.158 408.459 206.058 408.07 205.98C407.976 205.961 407.89 205.94 407.796 205.918C407.712 205.898 407.628 205.874 407.547 205.844C407.115 205.724 406.714 205.505 406.374 205.201C406.111 204.958 405.91 204.649 405.789 204.305C405.678 203.977 405.638 203.628 405.674 203.282C405.704 202.937 405.79 202.6 405.928 202.286C406.052 202.016 406.223 201.773 406.432 201.568C406.644 201.362 406.888 201.194 407.154 201.071C407.429 200.941 407.718 200.844 408.014 200.784C408.325 200.722 408.64 200.692 408.956 200.691C409.398 200.684 409.839 200.733 410.27 200.838C410.577 200.912 410.873 201.028 411.15 201.184C411.407 201.329 411.622 201.541 411.775 201.801C411.85 201.925 411.897 202.065 411.915 202.211C411.932 202.357 411.919 202.505 411.876 202.645C411.85 202.755 411.803 202.859 411.737 202.95C411.672 203.042 411.59 203.118 411.495 203.175C411.305 203.275 411.094 203.326 410.882 203.321C410.784 203.32 410.688 203.304 410.595 203.274C410.506 203.252 410.422 203.214 410.346 203.162C410.258 203.103 410.164 203.056 410.066 203.023C409.956 202.983 409.839 202.946 409.716 202.91C409.592 202.875 409.466 202.848 409.339 202.829C409.225 202.813 409.111 202.805 408.996 202.805C408.826 202.795 408.657 202.839 408.51 202.93C408.454 202.958 408.404 203 408.366 203.052C408.329 203.104 408.304 203.165 408.294 203.229Z" fill="#404040"/>
<path d="M416.261 203.667C416.264 203.53 416.286 203.393 416.327 203.263C416.364 203.132 416.426 203.01 416.508 202.904C416.593 202.793 416.702 202.705 416.825 202.644C416.976 202.575 417.14 202.541 417.305 202.547H418.673V201.15C418.673 200.717 418.79 200.398 419.034 200.195C419.264 199.993 419.556 199.884 419.857 199.888C420.157 199.884 420.449 199.993 420.678 200.195C420.912 200.398 421.039 200.717 421.039 201.15V202.547H422.416C422.58 202.542 422.743 202.575 422.894 202.644C423.017 202.705 423.126 202.794 423.213 202.904C423.294 203.011 423.355 203.133 423.394 203.263C423.431 203.392 423.449 203.526 423.449 203.661C423.449 203.798 423.43 203.934 423.394 204.065C423.358 204.202 423.296 204.33 423.213 204.441C423.126 204.555 423.017 204.648 422.894 204.714C422.748 204.79 422.586 204.827 422.423 204.821H421.019V206.214C421.019 206.649 420.899 206.968 420.658 207.171C420.429 207.374 420.137 207.482 419.837 207.476C419.536 207.482 419.244 207.374 419.014 207.171C418.774 206.968 418.653 206.649 418.653 206.214V204.821H417.278C417.112 204.826 416.948 204.79 416.798 204.714C416.674 204.65 416.565 204.557 416.481 204.441C416.398 204.329 416.337 204.202 416.3 204.065C416.27 203.935 416.256 203.801 416.261 203.667Z" fill="#404040"/>
<path d="M430.414 204.995C430.408 205.275 430.458 205.553 430.56 205.812C430.649 206.035 430.784 206.234 430.955 206.397C431.12 206.553 431.313 206.672 431.524 206.749C431.736 206.829 431.96 206.87 432.186 206.869C432.444 206.873 432.702 206.85 432.956 206.801C433.156 206.762 433.35 206.699 433.535 206.613C433.629 206.568 433.734 206.516 433.849 206.454C433.959 206.393 434.077 206.352 434.199 206.333C434.408 206.288 434.625 206.306 434.824 206.388C435.025 206.479 435.191 206.638 435.297 206.839C435.373 206.958 435.424 207.094 435.445 207.236C435.466 207.378 435.457 207.523 435.417 207.66C435.338 207.934 435.18 208.175 434.965 208.352C434.585 208.665 434.146 208.889 433.676 209.01C433.19 209.145 432.689 209.214 432.186 209.215C431.637 209.216 431.091 209.14 430.562 208.99C430.051 208.848 429.573 208.602 429.154 208.266C428.734 207.925 428.394 207.489 428.16 206.991C427.894 206.404 427.765 205.76 427.783 205.111V202.348C427.765 201.699 427.894 201.055 428.16 200.468C428.394 199.969 428.734 199.533 429.154 199.191C429.573 198.856 430.051 198.61 430.562 198.468C431.091 198.317 431.637 198.241 432.186 198.242C432.691 198.234 433.195 198.298 433.683 198.43C434.045 198.522 434.388 198.679 434.698 198.894C434.946 199.072 435.135 199.326 435.239 199.62C435.29 199.759 435.31 199.909 435.296 200.057C435.283 200.205 435.238 200.348 435.163 200.475C435.05 200.693 434.871 200.865 434.654 200.966C434.451 201.063 434.223 201.092 434.003 201.047C433.868 201.024 433.738 200.982 433.615 200.921C433.499 200.863 433.395 200.812 433.303 200.769C433.148 200.706 432.987 200.661 432.823 200.635C432.61 200.605 432.395 200.591 432.18 200.594C431.955 200.594 431.731 200.634 431.518 200.714C431.308 200.792 431.115 200.912 430.95 201.068C430.778 201.23 430.643 201.429 430.555 201.652C430.452 201.911 430.403 202.189 430.408 202.468L430.414 204.995Z" fill="#404040"/>
<path d="M436.329 204.344C436.308 203.732 436.421 203.123 436.661 202.564C436.86 202.122 437.157 201.736 437.527 201.436C437.88 201.154 438.286 200.95 438.718 200.838C439.145 200.725 439.585 200.666 440.026 200.665C440.462 200.667 440.897 200.725 441.32 200.838C441.752 200.95 442.158 201.153 442.512 201.436C442.883 201.737 443.181 202.123 443.386 202.564C443.629 203.122 443.744 203.731 443.723 204.344V205.566C443.744 206.179 443.629 206.788 443.386 207.346C443.182 207.787 442.883 208.173 442.512 208.474C442.158 208.756 441.752 208.959 441.32 209.072C440.897 209.185 440.462 209.243 440.026 209.245C439.589 209.243 439.155 209.185 438.732 209.072C438.3 208.959 437.894 208.756 437.539 208.474C437.169 208.173 436.87 207.787 436.666 207.346C436.424 206.788 436.308 206.179 436.329 205.566V204.344ZM441.161 204.226C441.166 204.019 441.132 203.813 441.06 203.62C441 203.468 440.91 203.331 440.796 203.216C440.694 203.111 440.571 203.032 440.435 202.983C440.304 202.935 440.167 202.91 440.028 202.91C439.889 202.91 439.751 202.935 439.62 202.983C439.485 203.032 439.362 203.112 439.259 203.216C439.147 203.331 439.059 203.469 438.999 203.62C438.925 203.813 438.89 204.019 438.896 204.226V205.686C438.89 205.893 438.925 206.098 438.999 206.29C439.059 206.442 439.147 206.58 439.259 206.696C439.362 206.799 439.485 206.878 439.62 206.927C439.751 206.975 439.889 207 440.028 207C440.167 207 440.304 206.975 440.435 206.927C440.571 206.879 440.694 206.8 440.796 206.696C440.91 206.581 441 206.442 441.06 206.29C441.132 206.098 441.166 205.892 441.161 205.686V204.226Z" fill="#404040"/>
<path d="M444.895 208.993V202.02C444.89 201.822 444.927 201.625 445.003 201.443C445.07 201.286 445.168 201.146 445.29 201.031C445.41 200.92 445.549 200.834 445.7 200.777C445.855 200.719 446.018 200.69 446.183 200.691C446.426 200.691 446.666 200.755 446.878 200.879C447.092 201 447.26 201.192 447.356 201.424C447.593 201.186 447.872 200.999 448.178 200.873C448.485 200.748 448.812 200.686 449.141 200.693C449.524 200.692 449.905 200.764 450.263 200.905C450.631 201.056 450.956 201.303 451.205 201.623C451.478 201.333 451.804 201.102 452.163 200.945C452.588 200.767 453.043 200.681 453.5 200.693C453.895 200.693 454.287 200.756 454.662 200.881C455.024 200.997 455.354 201.202 455.624 201.479C455.925 201.797 456.151 202.183 456.286 202.607C456.466 203.167 456.55 203.755 456.535 204.346V209.008H453.91V204.186C453.914 203.993 453.884 203.802 453.82 203.622C453.767 203.481 453.687 203.353 453.585 203.246C453.494 203.153 453.385 203.083 453.266 203.039C453.161 203.002 453.051 202.982 452.941 202.981C452.828 202.982 452.716 203.002 452.609 203.039C452.488 203.08 452.378 203.151 452.289 203.246C452.189 203.354 452.109 203.482 452.055 203.622C451.986 203.801 451.953 203.993 451.957 204.186V209.008H449.431V204.186C449.436 203.993 449.405 203.802 449.341 203.622C449.289 203.48 449.209 203.352 449.105 203.246C449.015 203.153 448.907 203.082 448.787 203.039C448.682 203.002 448.572 202.982 448.46 202.981C448.35 202.982 448.24 203.002 448.136 203.039C448.02 203.079 447.914 203.143 447.823 203.227C447.723 203.326 447.643 203.446 447.589 203.579C447.519 203.748 447.482 203.931 447.481 204.116V209.004L444.895 208.993Z" fill="#404040"/>
<path d="M457.774 208.993V202.02C457.769 201.822 457.806 201.625 457.882 201.443C457.95 201.287 458.047 201.147 458.169 201.031C458.289 200.92 458.428 200.834 458.579 200.777C458.734 200.719 458.897 200.69 459.062 200.691C459.305 200.691 459.545 200.755 459.757 200.879C459.97 201 460.139 201.192 460.235 201.424C460.472 201.186 460.751 200.999 461.057 200.873C461.364 200.748 461.691 200.686 462.02 200.693C462.403 200.692 462.783 200.764 463.142 200.905C463.511 201.056 463.836 201.303 464.086 201.623C464.358 201.334 464.683 201.103 465.042 200.945C465.467 200.767 465.923 200.681 466.381 200.693C466.775 200.693 467.166 200.756 467.541 200.881C467.903 200.997 468.233 201.202 468.503 201.479C468.803 201.797 469.03 202.183 469.165 202.607C469.346 203.166 469.43 203.755 469.414 204.345V209.008H466.789V204.186C466.793 203.993 466.762 203.802 466.699 203.622C466.647 203.48 466.567 203.352 466.464 203.246C466.374 203.152 466.265 203.082 466.145 203.039C466.04 203.002 465.93 202.982 465.82 202.981C465.707 202.982 465.595 203.002 465.488 203.039C465.367 203.08 465.257 203.151 465.168 203.246C465.068 203.354 464.988 203.482 464.934 203.622C464.866 203.801 464.834 203.993 464.838 204.186V209.008H462.312V204.186C462.316 203.994 462.286 203.802 462.224 203.622C462.17 203.481 462.09 203.353 461.987 203.246C461.897 203.152 461.788 203.082 461.668 203.039C461.563 203.001 461.454 202.982 461.343 202.981C461.232 202.982 461.123 203.001 461.018 203.039C460.902 203.078 460.795 203.142 460.704 203.227C460.603 203.326 460.523 203.446 460.47 203.578C460.401 203.749 460.364 203.931 460.361 204.116V209.004L457.774 208.993Z" fill="#404040"/>
<path d="M473.528 209.218C473.141 209.222 472.756 209.164 472.386 209.045C472.036 208.933 471.72 208.73 471.467 208.455C471.184 208.131 470.974 207.746 470.85 207.327C470.683 206.759 470.606 206.167 470.621 205.573V202.014C470.621 201.554 470.75 201.218 471.009 201.005C471.272 200.791 471.599 200.678 471.933 200.685C472.267 200.678 472.594 200.79 472.858 201.005C473.116 201.217 473.245 201.553 473.246 202.014V205.733C473.241 205.926 473.274 206.117 473.342 206.297C473.399 206.438 473.481 206.565 473.586 206.673C473.677 206.767 473.788 206.838 473.91 206.878C474.021 206.916 474.137 206.936 474.253 206.938C474.366 206.936 474.478 206.915 474.585 206.878C474.705 206.839 474.816 206.775 474.912 206.69C475.015 206.59 475.099 206.471 475.159 206.338C475.233 206.168 475.272 205.985 475.275 205.799V202.001C475.275 201.55 475.4 201.218 475.65 201.005C475.905 200.792 476.225 200.678 476.552 200.685C476.885 200.677 477.21 200.79 477.471 201.005C477.724 201.217 477.852 201.549 477.853 202.001V208.987H475.827L475.686 208.124C475.445 208.462 475.131 208.736 474.768 208.921C474.382 209.12 473.958 209.222 473.528 209.218Z" fill="#404040"/>
<path d="M479.121 208.993V202.02C479.117 201.822 479.154 201.625 479.23 201.443C479.297 201.287 479.395 201.147 479.517 201.031C479.637 200.921 479.776 200.834 479.926 200.778C480.081 200.719 480.245 200.69 480.41 200.691C480.653 200.691 480.892 200.755 481.105 200.879C481.32 201.001 481.492 201.192 481.595 201.424C481.844 201.184 482.137 200.999 482.456 200.879C482.777 200.755 483.116 200.692 483.458 200.691C483.844 200.688 484.228 200.746 484.598 200.864C484.947 200.977 485.263 201.18 485.516 201.454C485.8 201.778 486.012 202.163 486.135 202.582C486.302 203.15 486.379 203.742 486.364 204.336V208.998H483.743V204.176C483.748 203.984 483.715 203.792 483.647 203.612C483.592 203.471 483.509 203.343 483.405 203.236C483.314 203.142 483.203 203.071 483.08 203.03C482.969 202.992 482.853 202.972 482.736 202.971C482.619 202.972 482.502 202.992 482.391 203.03C482.267 203.073 482.154 203.143 482.059 203.236C481.952 203.342 481.868 203.47 481.812 203.612C481.743 203.792 481.711 203.984 481.716 204.176V208.998L479.121 208.993Z" fill="#404040"/>
<path d="M487.657 198.992C487.657 198.557 487.789 198.244 488.052 198.052C488.326 197.857 488.652 197.757 488.983 197.766C489.314 197.757 489.64 197.857 489.914 198.052C490.178 198.24 490.308 198.554 490.308 198.992C490.313 199.186 490.276 199.379 490.199 199.556C490.133 199.702 490.036 199.831 489.914 199.932C489.789 200.032 489.645 200.104 489.492 200.144C489.326 200.19 489.155 200.213 488.983 200.212C488.811 200.213 488.639 200.19 488.472 200.144C488.319 200.106 488.176 200.033 488.052 199.932C487.929 199.832 487.831 199.703 487.765 199.556C487.688 199.379 487.651 199.186 487.657 198.992ZM487.669 202.113C487.669 201.654 487.798 201.315 488.057 201.103C488.321 200.889 488.648 200.776 488.983 200.783C489.317 200.775 489.644 200.888 489.907 201.103C490.165 201.315 490.295 201.654 490.295 202.113V208.993H487.669V202.113Z" fill="#404040"/>
<path d="M492.294 202.845H491.868C491.468 202.845 491.181 202.732 491.008 202.512C490.838 202.302 490.745 202.035 490.746 201.76C490.747 201.625 490.766 201.491 490.804 201.362C490.842 201.229 490.907 201.107 490.995 201.003C491.092 200.891 491.212 200.802 491.345 200.743C491.511 200.673 491.689 200.639 491.868 200.644H492.289V199.262C492.285 199.062 492.322 198.863 492.397 198.679C492.461 198.521 492.56 198.38 492.684 198.267C492.802 198.161 492.939 198.08 493.086 198.027C493.236 197.974 493.394 197.947 493.552 197.948C493.71 197.947 493.868 197.974 494.018 198.027C494.164 198.08 494.3 198.162 494.418 198.267C494.543 198.38 494.641 198.521 494.705 198.679C494.78 198.863 494.817 199.062 494.813 199.262V200.644H495.566C495.743 200.638 495.919 200.672 496.082 200.743C496.213 200.803 496.331 200.891 496.426 201.003C496.514 201.107 496.581 201.229 496.623 201.362C496.666 201.49 496.688 201.625 496.688 201.76C496.689 202.035 496.596 202.301 496.426 202.512C496.246 202.732 495.966 202.845 495.566 202.845H494.813V206.137C494.813 206.342 494.853 206.475 494.934 206.537C495.019 206.599 495.118 206.635 495.221 206.642C495.307 206.652 495.394 206.645 495.477 206.622C495.577 206.598 495.68 206.587 495.782 206.59C495.986 206.586 496.184 206.656 496.343 206.789C496.504 206.921 496.613 207.109 496.65 207.319C496.711 207.563 496.691 207.821 496.592 208.05C496.502 208.255 496.358 208.43 496.177 208.554C496.009 208.664 495.827 208.749 495.636 208.808C495.422 208.877 495.198 208.912 494.974 208.913C494.591 208.919 494.209 208.871 493.839 208.769C493.528 208.682 493.24 208.522 492.996 208.302C492.757 208.074 492.578 207.786 492.475 207.466C492.345 207.055 492.284 206.624 492.294 206.191V202.845Z" fill="#404040"/>
<path d="M502.205 208.979C501.815 209.918 501.29 210.582 500.631 210.972C499.92 211.371 499.1 211.507 498.305 211.358C498.134 211.336 497.97 211.28 497.82 211.192C497.689 211.112 497.574 211.006 497.482 210.88C497.396 210.762 497.335 210.626 497.302 210.482C497.268 210.338 497.258 210.189 497.275 210.042C497.311 209.752 497.445 209.486 497.652 209.29C497.86 209.09 498.155 209.028 498.538 209.102C498.788 209.155 499.047 209.141 499.29 209.062C499.399 209.03 499.5 208.976 499.587 208.903C499.675 208.83 499.748 208.739 499.801 208.635V208.624L497.199 202.593C497.118 202.417 497.077 202.225 497.078 202.029C497.08 201.851 497.117 201.674 497.186 201.511C497.254 201.352 497.351 201.209 497.473 201.091C497.601 200.97 497.75 200.878 497.914 200.821C498.077 200.758 498.249 200.722 498.422 200.714C498.593 200.703 498.764 200.728 498.926 200.787C499.087 200.846 499.233 200.942 499.354 201.067C499.491 201.211 499.595 201.385 499.66 201.576L501.126 205.712L502.477 201.576C502.534 201.384 502.635 201.21 502.771 201.067C502.892 200.942 503.038 200.846 503.199 200.787C503.355 200.729 503.522 200.704 503.688 200.714C503.862 200.724 504.034 200.76 504.198 200.821C504.357 200.881 504.502 200.973 504.626 201.091C504.747 201.209 504.843 201.352 504.906 201.511C504.97 201.675 505.003 201.852 505.001 202.029C504.999 202.224 504.959 202.415 504.886 202.593L502.205 208.979Z" fill="#404040"/>
</g>
<path d="M223.724 162.861C223.724 162.861 218.894 156.184 222.345 147.169C225.796 138.155 235.247 136.71 242.141 137.043C249.035 137.376 264.005 139.819 277.988 137.043L273.658 143.72L249.924 151.825H231.307L225.506 155.849L223.724 159.632V162.861Z" fill="url(#paint0_linear_7008_5379)"/>
<path d="M223.724 162.861C223.724 162.861 225.006 154.185 236.625 155.292C248.244 156.399 274.932 159.187 277.989 137.041C277.989 137.041 270.209 149.616 244.11 145.944C244.11 145.944 218.308 142.271 223.724 162.861Z" fill="url(#paint1_linear_7008_5379)"/>
<path d="M267.874 165.688C275.601 165.688 276.868 176.84 274.57 184.525L272.625 191.216C270.746 197.509 266.904 202.967 261.709 206.726C256.514 210.486 250.263 212.33 243.947 211.967C237.605 211.601 231.239 210.666 226.811 208.645C214.457 203.003 203.047 190.748 205.282 168.935C207.024 151.93 216.922 144.003 221.198 141.345C221.299 141.282 221.418 141.256 221.535 141.273C221.652 141.29 221.76 141.349 221.841 141.439C221.922 141.529 221.97 141.645 221.979 141.768C221.987 141.89 221.955 142.013 221.887 142.114C218.843 146.672 211.808 158.966 216.811 171.26C216.811 171.26 222.307 195.082 245.981 190.782C249.282 190.182 252.152 188.006 253.533 184.869C253.571 184.781 253.588 184.685 253.581 184.589C253.575 184.493 253.545 184.401 253.496 184.319C253.446 184.238 253.378 184.172 253.297 184.125C253.216 184.079 253.125 184.054 253.033 184.053H252.047C249.706 184.053 247.46 183.084 245.805 181.36C244.15 179.635 243.22 177.296 243.22 174.857C243.22 173.648 243.448 172.451 243.892 171.335C244.337 170.219 244.988 169.204 245.809 168.35C246.629 167.496 247.604 166.819 248.676 166.357C249.748 165.896 250.897 165.659 252.057 165.66L267.874 165.688Z" fill="url(#paint2_linear_7008_5379)"/>
<path d="M252.72 184.129C252.72 184.129 276.038 184.954 264.572 204.351C264.572 204.351 276.249 195.279 275.874 176.069C275.874 176.069 275.926 165.99 268.691 165.53H251.073C251.073 165.53 243.104 165.774 243.104 174.017C243.104 181.365 247.384 184.129 252.72 184.129Z" fill="url(#paint3_linear_7008_5379)"/>
<path d="M1050.26 194.571H1041.47V149.576C1041.47 148.366 1041.93 147.205 1042.75 146.348C1043.57 145.492 1044.67 145.011 1045.83 145.011C1046.99 145.011 1048.1 145.49 1048.93 146.343C1049.76 147.197 1050.24 148.358 1050.26 149.576V194.571Z" fill="#404040"/>
<path d="M1063.49 160.906V194.571H1054.86V150.799C1054.86 149.264 1055.44 147.792 1056.48 146.706C1057.51 145.621 1058.91 145.011 1060.38 145.011C1061.4 145.003 1062.4 145.288 1063.28 145.834C1064.15 146.38 1064.87 147.166 1065.35 148.109L1080.43 178.676V149.495C1080.43 148.306 1080.88 147.165 1081.68 146.324C1082.49 145.484 1083.57 145.011 1084.71 145.011C1085.85 145.011 1086.94 145.481 1087.76 146.319C1088.57 147.158 1089.04 148.298 1089.06 149.495V194.571H1080.12L1063.49 160.906Z" fill="#404040"/>
<path d="M1103.42 177.767C1103.35 180.035 1104.1 182.248 1105.52 183.966C1106.93 185.685 1108.92 186.783 1111.08 187.043C1115.9 187.043 1118.73 184.244 1118.73 180.166C1118.73 176.088 1116.51 174.169 1112.15 173.289L1106.48 172.01C1103.14 171.784 1100.01 170.22 1097.74 167.643C1095.48 165.067 1094.25 161.676 1094.31 158.177C1094.31 150.181 1099.6 144.263 1109.62 144.263C1112.43 144.028 1115.24 144.605 1117.75 145.931C1120.26 147.257 1122.38 149.281 1123.86 151.78C1124.17 152.447 1124.31 153.186 1124.27 153.927C1124.24 154.668 1124.02 155.387 1123.65 156.017C1123.27 156.648 1122.75 157.169 1122.13 157.532C1121.51 157.896 1120.82 158.09 1120.11 158.097C1119.29 158.123 1118.48 157.894 1117.78 157.438C1117.09 156.983 1116.54 156.321 1116.2 155.538C1115.59 154.301 1114.64 153.287 1113.46 152.63C1112.28 151.973 1110.95 151.704 1109.62 151.86C1105.03 151.86 1102.66 154.419 1102.66 158.097C1102.66 161.775 1104.65 163.454 1109.16 164.494L1114.75 165.693C1118.15 165.978 1121.31 167.613 1123.59 170.261C1125.86 172.908 1127.08 176.367 1127 179.926C1127 188.482 1120.95 194.559 1110.54 194.559C1108.39 194.646 1106.24 194.275 1104.22 193.468C1102.21 192.661 1100.38 191.435 1098.83 189.865C1097.28 188.294 1096.06 186.412 1095.23 184.333C1094.4 182.253 1093.99 180.02 1094.01 177.767H1103.42Z" fill="#404040"/>
<path d="M913.805 150.08C914.313 148.445 915.399 147.066 916.848 146.218C918.26 145.425 919.843 145.01 921.451 145.011C922.996 145.011 924.509 145.457 925.821 146.299C927.24 147.124 928.301 148.476 928.786 150.08L944.391 194.571H931.361L929.02 186.526H913.415L911.23 194.571H898.355L913.805 150.08ZM916.692 176.63H925.821L921.295 161.344L916.692 176.63Z" fill="#404040"/>
<path d="M973.508 192.377C972.891 192.371 972.276 192.304 971.67 192.177C971.006 192.061 970.354 191.875 969.725 191.623C969.138 191.402 968.584 191.096 968.08 190.714C967.651 190.372 967.337 189.899 967.182 189.362L961.197 166.95L958.461 194.571H947.283L952.242 151.167C952.311 150.278 952.567 149.416 952.99 148.64C953.381 147.927 953.895 147.296 954.507 146.777C955.08 146.27 955.73 145.866 956.431 145.58C957.079 145.296 957.763 145.109 958.461 145.026C959.225 144.988 959.991 145.025 960.748 145.137C961.554 145.26 962.334 145.523 963.057 145.913C963.81 146.311 964.484 146.852 965.045 147.509C965.669 148.239 966.116 149.113 966.348 150.058L973.508 178.189L980.668 150.058C980.902 149.118 981.341 148.246 981.951 147.509C982.49 146.839 983.16 146.294 983.917 145.913C984.657 145.529 985.45 145.267 986.268 145.137C987.025 145.025 987.791 144.988 988.555 145.026C989.254 145.109 989.938 145.296 990.586 145.58C991.284 145.871 991.934 146.275 992.509 146.777C993.114 147.304 993.627 147.933 994.027 148.64C994.453 149.413 994.701 150.278 994.754 151.167L999.669 194.571H988.555L985.884 166.751L979.835 189.362C979.679 189.905 979.356 190.38 978.916 190.714C978.421 191.1 977.874 191.407 977.291 191.623C976.663 191.875 976.011 192.061 975.346 192.177C974.741 192.303 974.126 192.369 973.508 192.377Z" fill="#404040"/>
<path d="M1014.95 164.144H1031.27C1032.02 164.12 1032.76 164.288 1033.43 164.634C1034.02 164.95 1034.53 165.39 1034.94 165.924C1035.33 166.448 1035.63 167.044 1035.8 167.68C1035.97 168.288 1036.06 168.917 1036.06 169.549C1036.06 170.181 1035.98 170.81 1035.8 171.417C1035.63 172.03 1035.34 172.603 1034.96 173.107C1034.56 173.624 1034.05 174.042 1033.47 174.33C1032.8 174.647 1032.06 174.806 1031.31 174.797H1014.99V182.003C1014.92 182.512 1015.05 183.029 1015.34 183.448C1015.75 183.717 1016.23 183.834 1016.72 183.782H1032.46C1033.2 183.77 1033.94 183.929 1034.62 184.249C1035.21 184.541 1035.72 184.967 1036.13 185.494C1036.5 186.01 1036.78 186.59 1036.95 187.207C1037.14 187.819 1037.23 188.456 1037.23 189.097C1037.23 189.745 1037.13 190.39 1036.95 191.01C1036.78 191.657 1036.49 192.262 1036.09 192.789C1035.69 193.327 1035.18 193.768 1034.6 194.079C1033.93 194.42 1033.18 194.587 1032.44 194.568H1012.03C1010.52 194.598 1009.01 194.426 1007.54 194.057C1006.45 193.769 1005.46 193.185 1004.67 192.366C1003.92 191.51 1003.4 190.468 1003.16 189.342C1002.84 187.883 1002.68 186.39 1002.71 184.894V154.715C1002.68 153.219 1002.83 151.725 1003.16 150.267C1003.39 149.137 1003.91 148.092 1004.67 147.242C1005.46 146.416 1006.45 145.831 1007.54 145.552C1009.01 145.163 1010.52 144.984 1012.03 145.018H1031.83C1032.55 144.978 1033.26 145.121 1033.91 145.435C1034.56 145.75 1035.12 146.226 1035.55 146.82C1035.94 147.354 1036.23 147.957 1036.41 148.599C1036.58 149.221 1036.67 149.865 1036.67 150.511C1036.67 151.143 1036.58 151.772 1036.41 152.38C1036.23 153.006 1035.95 153.594 1035.57 154.114C1035.17 154.631 1034.66 155.049 1034.08 155.337C1033.4 155.652 1032.66 155.812 1031.92 155.804H1016.8C1016.32 155.752 1015.83 155.87 1015.42 156.138C1015.13 156.557 1015.01 157.074 1015.08 157.584L1014.95 164.144Z" fill="#404040"/>
<g clip-path="url(#clip1_7008_5379)">
<path d="M900.983 205.832V208.993H898.356V200.4C898.351 200.073 898.383 199.748 898.452 199.43C898.505 199.187 898.617 198.963 898.778 198.779C898.945 198.597 899.157 198.467 899.39 198.403C899.703 198.322 900.024 198.284 900.346 198.29H902.564C903.082 198.285 903.597 198.359 904.094 198.51C904.537 198.643 904.949 198.869 905.305 199.174C905.652 199.479 905.926 199.866 906.102 200.302C906.304 200.82 906.401 201.376 906.389 201.935V202.161C906.401 202.72 906.303 203.276 906.102 203.795C905.926 204.231 905.652 204.617 905.305 204.923C904.949 205.228 904.537 205.454 904.094 205.586C903.597 205.737 903.082 205.811 902.564 205.806L900.983 205.832ZM900.983 203.52H902.427C902.622 203.524 902.815 203.485 902.995 203.407C903.156 203.337 903.299 203.23 903.416 203.095C903.53 202.964 903.618 202.81 903.677 202.644C903.737 202.474 903.767 202.294 903.766 202.112V202.02C903.767 201.839 903.737 201.658 903.677 201.488C903.618 201.322 903.529 201.169 903.416 201.037C903.301 200.903 903.159 200.796 903.001 200.725C902.821 200.647 902.627 200.608 902.432 200.612H901.35C901.246 200.6 901.142 200.626 901.055 200.685C900.993 200.775 900.966 200.887 900.98 200.997L900.983 203.52Z" fill="#404040"/>
<path d="M907.459 199.099C907.459 198.638 907.589 198.3 907.849 198.089C908.112 197.874 908.438 197.761 908.773 197.769C909.107 197.761 909.433 197.874 909.696 198.089C909.956 198.3 910.086 198.638 910.086 199.099V208.992H907.459V199.099Z" fill="#404040"/>
<path d="M916.204 208.993L916.103 208.429C915.849 208.669 915.555 208.86 915.235 208.993C914.895 209.136 914.531 209.209 914.164 209.205H913.884C913.595 209.202 913.309 209.159 913.03 209.079C912.723 208.996 912.435 208.849 912.182 208.649C911.91 208.428 911.688 208.146 911.533 207.825C911.344 207.42 911.254 206.973 911.269 206.522C911.255 206.086 911.343 205.654 911.526 205.261C911.685 204.936 911.919 204.658 912.208 204.451C912.509 204.239 912.847 204.09 913.202 204.011C913.594 203.921 913.994 203.877 914.395 203.879H915.708C915.705 203.711 915.668 203.546 915.598 203.394C915.54 203.272 915.452 203.167 915.344 203.09C915.232 203.011 915.106 202.957 914.974 202.93C914.83 202.898 914.683 202.882 914.535 202.883C914.394 202.882 914.252 202.896 914.113 202.922C913.978 202.951 913.832 202.984 913.68 203.03C913.582 203.063 913.486 203.103 913.393 203.148C913.303 203.193 913.2 203.242 913.081 203.295C912.965 203.356 912.836 203.39 912.706 203.394C912.574 203.399 912.442 203.381 912.316 203.342C912.189 203.303 912.07 203.239 911.966 203.154C911.858 203.066 911.773 202.951 911.717 202.821C911.658 202.702 911.624 202.572 911.615 202.438C911.606 202.305 911.624 202.171 911.666 202.044C911.755 201.788 911.914 201.564 912.125 201.402C912.301 201.264 912.494 201.152 912.698 201.069C912.914 200.979 913.135 200.906 913.361 200.849C913.589 200.792 913.821 200.75 914.055 200.725C914.282 200.697 914.51 200.684 914.737 200.683C915.182 200.681 915.625 200.733 916.058 200.838C916.462 200.93 916.84 201.116 917.166 201.381C917.505 201.669 917.768 202.041 917.931 202.464C918.14 203.027 918.238 203.628 918.218 204.231V208.985L916.204 208.993ZM915.708 205.844H914.548C914.346 205.832 914.146 205.899 913.989 206.032C913.923 206.095 913.872 206.172 913.839 206.258C913.806 206.345 913.791 206.437 913.796 206.53C913.789 206.622 913.803 206.714 913.836 206.8C913.87 206.885 913.922 206.962 913.989 207.022C914.14 207.136 914.324 207.191 914.51 207.18H914.691C914.813 207.181 914.934 207.163 915.051 207.128C915.167 207.094 915.277 207.04 915.376 206.968C915.474 206.898 915.556 206.808 915.618 206.703C915.685 206.59 915.719 206.459 915.715 206.327L915.708 205.844Z" fill="#404040"/>
<path d="M920.361 203.149H919.941C919.542 203.149 919.255 203.037 919.08 202.817C918.911 202.606 918.819 202.339 918.82 202.065C918.82 201.93 918.839 201.796 918.876 201.666C918.915 201.534 918.98 201.412 919.068 201.307C919.165 201.195 919.285 201.106 919.419 201.048C919.585 200.977 919.762 200.943 919.941 200.948H920.361V199.566C920.358 199.366 920.394 199.168 920.47 198.984C920.534 198.823 920.632 198.679 920.756 198.563C920.875 198.457 921.012 198.376 921.159 198.322C921.309 198.269 921.466 198.242 921.624 198.243C921.783 198.242 921.94 198.269 922.09 198.322C922.236 198.376 922.371 198.458 922.489 198.563C922.612 198.676 922.71 198.817 922.776 198.974C922.85 199.159 922.887 199.357 922.884 199.557V200.939H923.635C923.811 200.933 923.987 200.967 924.151 201.038C924.282 201.098 924.4 201.186 924.495 201.298C924.584 201.402 924.651 201.525 924.694 201.657C924.735 201.785 924.756 201.92 924.757 202.055C924.758 202.33 924.665 202.597 924.495 202.807C924.315 203.027 924.035 203.14 923.635 203.14H922.884V206.432C922.874 206.504 922.88 206.577 922.9 206.646C922.921 206.715 922.956 206.779 923.003 206.832C923.088 206.894 923.187 206.93 923.29 206.937C923.376 206.947 923.463 206.94 923.546 206.917C923.646 206.893 923.749 206.882 923.851 206.885C924.055 206.881 924.254 206.952 924.414 207.084C924.574 207.216 924.683 207.405 924.719 207.614C924.781 207.858 924.761 208.116 924.661 208.346C924.57 208.55 924.427 208.725 924.246 208.849C924.078 208.959 923.895 209.044 923.705 209.103C923.49 209.172 923.266 209.207 923.041 209.208C922.658 209.214 922.276 209.166 921.906 209.064C921.595 208.977 921.308 208.817 921.065 208.597C920.826 208.369 920.646 208.081 920.542 207.761C920.412 207.35 920.351 206.919 920.361 206.486V203.149Z" fill="#404040"/>
<path d="M926.379 208.992V203.15H925.945C925.546 203.15 925.259 203.037 925.084 202.817C924.914 202.606 924.822 202.34 924.822 202.065C924.822 201.925 924.842 201.787 924.88 201.653C924.919 201.521 924.985 201.399 925.071 201.294C925.168 201.183 925.289 201.097 925.423 201.042C925.589 200.976 925.767 200.944 925.945 200.948H926.379V200.657C926.368 200.2 926.429 199.745 926.56 199.309C926.666 198.969 926.852 198.663 927.101 198.418C927.355 198.183 927.659 198.015 927.987 197.927C928.385 197.82 928.795 197.769 929.205 197.775C929.462 197.776 929.719 197.805 929.97 197.861C930.218 197.913 930.456 198.009 930.672 198.145C930.872 198.262 931.024 198.451 931.098 198.677C931.161 198.908 931.161 199.152 931.098 199.382C931.039 199.585 930.928 199.768 930.779 199.912C930.634 200.059 930.439 200.141 930.237 200.14C930.152 200.141 930.066 200.134 929.981 200.119L929.712 200.072C929.65 200.058 929.586 200.046 929.523 200.038C929.47 200.038 929.416 200.038 929.355 200.038C929.302 200.034 929.249 200.043 929.199 200.063C929.15 200.084 929.106 200.116 929.07 200.157C928.993 200.284 928.96 200.434 928.974 200.583V200.959H929.696C929.872 200.954 930.047 200.986 930.21 201.053C930.342 201.109 930.461 201.196 930.557 201.305C930.644 201.411 930.711 201.533 930.753 201.664C930.796 201.797 930.817 201.936 930.817 202.076C930.818 202.351 930.726 202.617 930.557 202.828C930.376 203.048 930.095 203.161 929.696 203.161H928.974V209.004L926.379 208.992Z" fill="#404040"/>
<path d="M931.313 204.344C931.293 203.732 931.406 203.123 931.643 202.563C931.844 202.122 932.141 201.736 932.509 201.435C932.864 201.153 933.27 200.95 933.702 200.838C934.129 200.724 934.568 200.666 935.009 200.665C935.446 200.666 935.881 200.724 936.304 200.838C936.737 200.95 937.143 201.153 937.497 201.435C937.866 201.737 938.164 202.123 938.368 202.563C938.612 203.121 938.728 203.731 938.708 204.344V205.565C938.728 206.178 938.612 206.788 938.368 207.346C938.164 207.786 937.866 208.172 937.497 208.474C937.142 208.755 936.736 208.958 936.304 209.071C935.881 209.184 935.446 209.243 935.009 209.244C934.572 209.242 934.138 209.184 933.715 209.071C933.283 208.958 932.878 208.755 932.524 208.474C932.153 208.173 931.854 207.787 931.65 207.346C931.407 206.787 931.292 206.178 931.313 205.565V204.344ZM936.143 204.225C936.149 204.018 936.115 203.812 936.042 203.62C935.982 203.468 935.893 203.331 935.781 203.216C935.678 203.111 935.555 203.032 935.42 202.982C935.288 202.935 935.15 202.91 935.01 202.909C934.872 202.91 934.735 202.934 934.604 202.982C934.469 203.031 934.346 203.111 934.243 203.216C934.131 203.331 934.042 203.468 933.982 203.62C933.908 203.812 933.874 204.018 933.881 204.225V205.686C933.874 205.892 933.909 206.097 933.982 206.289C934.042 206.441 934.131 206.58 934.243 206.695C934.346 206.799 934.469 206.878 934.604 206.926C934.735 206.974 934.872 206.999 935.01 207C935.15 206.999 935.288 206.974 935.42 206.926C935.555 206.878 935.678 206.799 935.781 206.695C935.893 206.58 935.982 206.441 936.042 206.289C936.115 206.097 936.149 205.892 936.143 205.686V204.225Z" fill="#404040"/>
<path d="M939.881 208.992V202.02C939.877 201.822 939.914 201.625 939.989 201.443C940.056 201.286 940.154 201.145 940.276 201.031C940.395 200.92 940.534 200.834 940.684 200.777C940.84 200.719 941.004 200.689 941.17 200.691C941.412 200.691 941.651 200.755 941.862 200.879C942.082 201.005 942.255 201.203 942.355 201.443C942.586 201.216 942.853 201.031 943.144 200.898C943.428 200.766 943.735 200.698 944.046 200.698C944.146 200.699 944.246 200.706 944.345 200.719C944.449 200.731 944.55 200.76 944.645 200.805C944.887 200.906 945.084 201.095 945.201 201.337C945.326 201.595 945.368 201.888 945.322 202.172C945.291 202.463 945.157 202.731 944.946 202.924C944.743 203.108 944.481 203.208 944.212 203.204C944.118 203.204 944.021 203.204 943.92 203.204C943.822 203.197 943.723 203.197 943.625 203.204C943.319 203.211 943.023 203.328 942.79 203.535C942.688 203.639 942.607 203.763 942.551 203.9C942.495 204.037 942.466 204.183 942.465 204.332V209.007L939.881 208.992Z" fill="#404040"/>
<path d="M945.987 208.992V202.02C945.982 201.822 946.019 201.625 946.095 201.443C946.161 201.286 946.259 201.145 946.382 201.031C946.501 200.92 946.64 200.834 946.79 200.777C946.945 200.719 947.11 200.689 947.275 200.691C947.518 200.691 947.756 200.755 947.968 200.879C948.182 200.999 948.351 201.191 948.448 201.424C948.684 201.185 948.964 200.998 949.27 200.873C949.576 200.747 949.903 200.686 950.233 200.693C950.616 200.692 950.996 200.764 951.355 200.905C951.723 201.056 952.048 201.303 952.297 201.623C952.569 201.333 952.894 201.103 953.253 200.944C953.678 200.767 954.134 200.681 954.592 200.693C954.986 200.693 955.377 200.756 955.752 200.881C956.115 200.997 956.445 201.202 956.716 201.478C957.016 201.797 957.242 202.183 957.378 202.606C957.558 203.166 957.642 203.755 957.627 204.345V209.007H955V204.185C955.005 203.993 954.975 203.802 954.911 203.621C954.859 203.48 954.778 203.352 954.675 203.245C954.585 203.153 954.477 203.082 954.357 203.039C954.253 203.001 954.143 202.982 954.033 202.98C953.92 202.982 953.808 203.001 953.701 203.039C953.58 203.08 953.47 203.151 953.381 203.245C953.281 203.354 953.201 203.482 953.145 203.621C953.077 203.801 953.045 203.993 953.049 204.185V209.007H950.523V204.185C950.527 203.993 950.497 203.802 950.433 203.621C950.38 203.48 950.3 203.352 950.196 203.245C950.107 203.153 949.998 203.082 949.879 203.039C949.774 203.001 949.663 202.982 949.552 202.98C949.442 202.982 949.332 203.001 949.227 203.039C949.112 203.078 949.006 203.142 948.915 203.227C948.814 203.326 948.734 203.446 948.679 203.578C948.611 203.749 948.574 203.931 948.571 204.116V209.004L945.987 208.992Z" fill="#404040"/>
<path d="M962.051 203.667C962.051 203.532 962.071 203.398 962.109 203.268C962.145 203.137 962.207 203.015 962.289 202.909C962.375 202.799 962.484 202.71 962.608 202.65C962.759 202.58 962.922 202.547 963.087 202.552H964.463V201.155C964.463 200.723 964.581 200.403 964.813 200.2C965.043 199.998 965.335 199.889 965.636 199.894C965.937 199.89 966.229 199.998 966.459 200.2C966.692 200.403 966.809 200.723 966.809 201.155V202.552H968.186C968.35 202.547 968.514 202.58 968.664 202.65C968.788 202.71 968.897 202.799 968.983 202.909C969.064 203.016 969.125 203.138 969.164 203.268C969.201 203.398 969.22 203.532 969.22 203.667C969.219 203.804 969.201 203.94 969.164 204.071C969.128 204.207 969.067 204.335 968.983 204.447C968.897 204.56 968.788 204.653 968.664 204.72C968.518 204.796 968.356 204.833 968.193 204.827H966.816V206.22C966.816 206.655 966.7 206.974 966.466 207.177C966.236 207.379 965.944 207.487 965.643 207.481C965.343 207.487 965.05 207.379 964.821 207.177C964.587 206.974 964.471 206.655 964.471 206.22V204.827H963.088C962.923 204.832 962.759 204.795 962.61 204.72C962.485 204.655 962.376 204.562 962.291 204.447C962.208 204.335 962.147 204.207 962.11 204.071C962.072 203.94 962.052 203.804 962.051 203.667Z" fill="#404040"/>
<path d="M976.205 204.994C976.199 205.274 976.249 205.553 976.351 205.812C976.44 206.034 976.575 206.234 976.746 206.397C976.911 206.552 977.103 206.671 977.313 206.748C977.526 206.829 977.75 206.869 977.977 206.868C978.235 206.872 978.493 206.849 978.747 206.801C978.947 206.762 979.141 206.698 979.327 206.613C979.42 206.568 979.525 206.515 979.641 206.453C979.75 206.392 979.868 206.351 979.991 206.333C980.199 206.287 980.416 206.306 980.615 206.387C980.816 206.48 980.982 206.638 981.088 206.838C981.165 206.958 981.215 207.093 981.236 207.235C981.257 207.377 981.248 207.522 981.209 207.66C981.129 207.933 980.971 208.175 980.756 208.352C980.376 208.664 979.937 208.889 979.467 209.01C978.981 209.145 978.48 209.214 977.977 209.215C977.428 209.216 976.882 209.14 976.353 208.989C975.842 208.847 975.364 208.601 974.945 208.265C974.526 207.924 974.186 207.488 973.951 206.991C973.685 206.404 973.556 205.76 973.574 205.111V202.347C973.555 201.698 973.684 201.054 973.951 200.467C974.185 199.969 974.525 199.532 974.945 199.191C975.364 198.856 975.843 198.61 976.353 198.467C976.882 198.316 977.428 198.24 977.977 198.242C978.482 198.234 978.986 198.297 979.475 198.43C979.836 198.522 980.179 198.679 980.489 198.894C980.737 199.072 980.926 199.325 981.03 199.62C981.081 199.759 981.101 199.908 981.087 200.056C981.074 200.205 981.029 200.348 980.954 200.475C980.841 200.692 980.662 200.865 980.445 200.966C980.241 201.062 980.014 201.09 979.794 201.046C979.66 201.024 979.529 200.981 979.406 200.92C979.29 200.862 979.186 200.811 979.094 200.768C978.939 200.705 978.778 200.661 978.614 200.635C978.401 200.604 978.186 200.591 977.971 200.593C977.745 200.593 977.52 200.634 977.307 200.714C977.098 200.792 976.906 200.912 976.741 201.067C976.57 201.229 976.435 201.429 976.346 201.652C976.244 201.91 976.194 202.188 976.2 202.468L976.205 204.994Z" fill="#404040"/>
<path d="M982.118 204.344C982.097 203.732 982.211 203.123 982.45 202.563C982.649 202.122 982.946 201.735 983.316 201.435C983.669 201.153 984.075 200.95 984.507 200.838C984.934 200.724 985.374 200.666 985.815 200.665C986.251 200.667 986.686 200.725 987.109 200.838C987.542 200.949 987.948 201.153 988.301 201.435C988.672 201.736 988.97 202.122 989.173 202.563C989.417 203.121 989.533 203.731 989.512 204.344V205.565C989.533 206.178 989.417 206.788 989.173 207.346C988.97 207.787 988.672 208.173 988.301 208.474C987.947 208.755 987.541 208.959 987.109 209.071C986.686 209.184 986.251 209.242 985.815 209.244C985.379 209.243 984.944 209.185 984.521 209.071C984.089 208.959 983.683 208.755 983.328 208.474C982.958 208.173 982.659 207.787 982.455 207.346C982.212 206.787 982.096 206.178 982.118 205.565V204.344ZM986.95 204.225C986.956 204.018 986.921 203.812 986.847 203.62C986.787 203.468 986.698 203.33 986.585 203.216C986.483 203.111 986.36 203.032 986.225 202.982C986.094 202.934 985.956 202.91 985.817 202.909C985.678 202.91 985.54 202.934 985.409 202.982C985.274 203.031 985.15 203.111 985.048 203.216C984.936 203.331 984.847 203.468 984.786 203.62C984.714 203.812 984.68 204.018 984.685 204.225V205.686C984.68 205.892 984.714 206.097 984.786 206.289C984.847 206.441 984.936 206.58 985.048 206.695C985.15 206.799 985.274 206.878 985.409 206.926C985.54 206.975 985.678 206.999 985.817 207C985.956 206.999 986.094 206.974 986.225 206.926C986.36 206.878 986.483 206.799 986.585 206.695C986.698 206.58 986.788 206.442 986.847 206.289C986.921 206.098 986.956 205.892 986.95 205.686V204.225Z" fill="#404040"/>
<path d="M990.684 208.992V202.02C990.679 201.822 990.716 201.625 990.792 201.443C990.86 201.286 990.957 201.146 991.079 201.031C991.199 200.92 991.338 200.834 991.489 200.777C991.644 200.719 991.807 200.69 991.972 200.691C992.216 200.69 992.455 200.755 992.667 200.879C992.883 201.001 993.055 201.192 993.158 201.424C993.407 201.184 993.699 200.998 994.019 200.879C994.339 200.755 994.678 200.691 995.02 200.691C995.406 200.688 995.791 200.746 996.16 200.864C996.509 200.977 996.825 201.18 997.079 201.454C997.363 201.778 997.574 202.163 997.698 202.582C997.864 203.15 997.942 203.742 997.927 204.336V208.998H995.3V204.176C995.305 203.983 995.273 203.791 995.204 203.612C995.149 203.471 995.066 203.343 994.962 203.236C994.871 203.142 994.76 203.071 994.637 203.029C994.526 202.992 994.41 202.972 994.293 202.971C994.176 202.972 994.059 202.992 993.948 203.029C993.824 203.072 993.711 203.143 993.616 203.236C993.509 203.342 993.425 203.47 993.369 203.612C993.3 203.791 993.268 203.983 993.273 204.176V208.998L990.684 208.992Z" fill="#404040"/>
<path d="M1000.08 203.149H999.656C999.257 203.149 998.97 203.037 998.797 202.817C998.627 202.606 998.534 202.34 998.535 202.065C998.535 201.93 998.554 201.796 998.591 201.666C998.63 201.534 998.696 201.411 998.784 201.307C998.881 201.195 999.001 201.106 999.134 201.048C999.3 200.977 999.477 200.943 999.656 200.948H1000.08V199.566C1000.07 199.366 1000.11 199.167 1000.19 198.984C1000.25 198.823 1000.34 198.679 1000.46 198.563C1000.58 198.457 1000.72 198.375 1000.86 198.322C1001.01 198.269 1001.17 198.242 1001.33 198.243C1001.49 198.242 1001.65 198.269 1001.8 198.322C1001.94 198.375 1002.08 198.457 1002.2 198.563C1002.32 198.676 1002.42 198.816 1002.49 198.974C1002.56 199.159 1002.6 199.357 1002.59 199.557V200.939H1003.35C1003.52 200.933 1003.7 200.967 1003.86 201.038C1003.99 201.098 1004.11 201.187 1004.21 201.298C1004.3 201.403 1004.37 201.527 1004.41 201.661C1004.45 201.789 1004.47 201.924 1004.47 202.059C1004.47 202.334 1004.38 202.6 1004.21 202.811C1004.03 203.031 1003.75 203.144 1003.35 203.144H1002.59V206.436C1002.59 206.64 1002.63 206.774 1002.71 206.836C1002.8 206.898 1002.9 206.934 1003 206.941C1003.09 206.951 1003.17 206.944 1003.26 206.921C1003.36 206.897 1003.46 206.886 1003.56 206.889C1003.77 206.885 1003.96 206.956 1004.12 207.088C1004.28 207.22 1004.39 207.409 1004.43 207.618C1004.49 207.861 1004.47 208.12 1004.37 208.349C1004.28 208.554 1004.14 208.728 1003.96 208.853C1003.79 208.962 1003.61 209.047 1003.42 209.107C1003.2 209.176 1002.98 209.211 1002.75 209.212C1002.37 209.218 1001.99 209.17 1001.62 209.067C1001.31 208.98 1001.02 208.821 1000.78 208.601C1000.54 208.377 1000.35 208.092 1000.25 207.774C1000.12 207.363 1000.06 206.932 1000.07 206.499L1000.08 203.149Z" fill="#404040"/>
<path d="M1008.99 209.218C1008.52 209.215 1008.06 209.152 1007.6 209.03C1007.15 208.91 1006.72 208.702 1006.34 208.417C1005.95 208.123 1005.64 207.736 1005.42 207.289C1005.18 206.745 1005.06 206.146 1005.07 205.543V204.373C1005.05 203.765 1005.17 203.161 1005.41 202.606C1005.61 202.167 1005.91 201.781 1006.28 201.478C1006.63 201.198 1007.03 200.992 1007.45 200.875C1007.86 200.754 1008.29 200.691 1008.71 200.687C1009.15 200.687 1009.58 200.742 1010.01 200.852C1010.43 200.963 1010.82 201.18 1011.14 201.484C1011.5 201.843 1011.77 202.288 1011.93 202.779C1012.15 203.47 1012.25 204.197 1012.23 204.924C1012.23 205.039 1012.23 205.176 1012.21 205.336C1012.2 205.496 1012.19 205.633 1012.17 205.748H1007.59V205.761C1007.58 205.959 1007.63 206.155 1007.73 206.325C1007.82 206.476 1007.95 206.604 1008.09 206.701C1008.23 206.8 1008.39 206.872 1008.56 206.913C1008.72 206.953 1008.88 206.973 1009.04 206.973C1009.28 206.977 1009.52 206.964 1009.76 206.934C1009.94 206.906 1010.11 206.862 1010.27 206.8C1010.37 206.765 1010.46 206.729 1010.56 206.688C1010.66 206.648 1010.77 206.619 1010.87 206.601C1011.08 206.573 1011.29 206.6 1011.48 206.682C1011.57 206.721 1011.65 206.779 1011.72 206.852C1011.79 206.925 1011.84 207.012 1011.88 207.107C1011.95 207.246 1011.98 207.4 1011.98 207.555C1011.98 207.711 1011.95 207.864 1011.88 208.004C1011.73 208.293 1011.5 208.531 1011.22 208.688C1011.1 208.762 1010.97 208.824 1010.84 208.876C1010.66 208.943 1010.48 209 1010.29 209.047C1010.09 209.103 1009.87 209.146 1009.66 209.175C1009.44 209.203 1009.22 209.218 1008.99 209.218ZM1008.71 202.843C1008.57 202.842 1008.43 202.862 1008.3 202.902C1008.17 202.941 1008.05 203.01 1007.95 203.103C1007.84 203.203 1007.75 203.324 1007.69 203.46C1007.62 203.634 1007.58 203.823 1007.59 204.013H1009.76C1009.77 203.825 1009.74 203.637 1009.68 203.46C1009.64 203.325 1009.56 203.203 1009.46 203.103C1009.37 203.008 1009.25 202.939 1009.12 202.902C1008.99 202.862 1008.85 202.842 1008.71 202.843Z" fill="#404040"/>
<path d="M1013.37 208.992V202.02C1013.36 201.822 1013.4 201.625 1013.47 201.443C1013.54 201.286 1013.64 201.146 1013.76 201.031C1013.88 200.92 1014.02 200.834 1014.17 200.777C1014.33 200.719 1014.49 200.689 1014.65 200.691C1014.9 200.69 1015.14 200.755 1015.35 200.879C1015.56 201.001 1015.74 201.192 1015.84 201.424C1016.09 201.184 1016.38 200.998 1016.7 200.879C1017.02 200.755 1017.36 200.691 1017.7 200.691C1018.09 200.688 1018.47 200.746 1018.84 200.864C1019.19 200.977 1019.51 201.18 1019.76 201.454C1020.04 201.778 1020.25 202.163 1020.38 202.582C1020.54 203.15 1020.62 203.742 1020.61 204.336V208.998H1017.98V204.176C1017.99 203.983 1017.95 203.791 1017.89 203.612C1017.83 203.471 1017.75 203.343 1017.64 203.236C1017.55 203.141 1017.44 203.07 1017.32 203.029C1017.21 202.992 1017.09 202.972 1016.97 202.971C1016.86 202.972 1016.74 202.992 1016.63 203.029C1016.51 203.072 1016.39 203.143 1016.3 203.236C1016.19 203.342 1016.11 203.47 1016.05 203.612C1015.98 203.791 1015.95 203.983 1015.95 204.176V208.998L1013.37 208.992Z" fill="#404040"/>
<path d="M1022.75 203.15H1022.33C1021.93 203.15 1021.64 203.037 1021.47 202.817C1021.3 202.606 1021.21 202.34 1021.21 202.065C1021.21 201.93 1021.23 201.796 1021.26 201.667C1021.3 201.534 1021.37 201.412 1021.45 201.308C1021.55 201.194 1021.68 201.105 1021.82 201.048C1021.98 200.978 1022.16 200.944 1022.34 200.948H1022.76V199.567C1022.75 199.367 1022.79 199.168 1022.87 198.984C1022.93 198.827 1023.03 198.686 1023.15 198.572C1023.27 198.467 1023.41 198.385 1023.55 198.332C1023.7 198.279 1023.86 198.252 1024.02 198.253C1024.18 198.252 1024.34 198.279 1024.49 198.332C1024.63 198.385 1024.77 198.467 1024.89 198.572C1025.01 198.686 1025.11 198.827 1025.17 198.984C1025.25 199.168 1025.29 199.367 1025.28 199.567V200.948H1026.03C1026.21 200.943 1026.39 200.977 1026.55 201.048C1026.68 201.108 1026.8 201.196 1026.89 201.308C1026.98 201.412 1027.05 201.534 1027.09 201.667C1027.13 201.795 1027.16 201.93 1027.16 202.065C1027.16 202.34 1027.06 202.607 1026.89 202.817C1026.71 203.037 1026.43 203.15 1026.03 203.15H1025.28V206.442C1025.27 206.513 1025.28 206.586 1025.3 206.656C1025.32 206.725 1025.36 206.789 1025.4 206.842C1025.49 206.903 1025.59 206.94 1025.69 206.947C1025.78 206.957 1025.86 206.95 1025.95 206.927C1026.05 206.903 1026.15 206.892 1026.25 206.895C1026.45 206.891 1026.65 206.962 1026.81 207.094C1026.97 207.226 1027.08 207.415 1027.12 207.624C1027.18 207.867 1027.16 208.126 1027.06 208.355C1026.97 208.56 1026.83 208.734 1026.65 208.859C1026.48 208.969 1026.29 209.054 1026.1 209.113C1025.89 209.182 1025.67 209.217 1025.44 209.218C1025.06 209.224 1024.68 209.176 1024.31 209.073C1023.99 208.987 1023.71 208.827 1023.46 208.607C1023.22 208.379 1023.04 208.091 1022.94 207.771C1022.81 207.36 1022.75 206.929 1022.76 206.496L1022.75 203.15Z" fill="#404040"/>
<path d="M1030.3 203.229C1030.28 203.387 1030.37 203.507 1030.57 203.588C1030.9 203.701 1031.24 203.785 1031.59 203.84L1031.84 203.892L1032.07 203.945C1032.83 204.149 1033.4 204.497 1033.75 204.988C1034.11 205.48 1034.24 206.128 1034.15 206.934C1034.11 207.298 1033.98 207.647 1033.79 207.951C1033.59 208.243 1033.34 208.485 1033.04 208.662C1032.72 208.857 1032.36 208.998 1031.99 209.079C1031.58 209.175 1031.15 209.222 1030.73 209.218C1030.51 209.218 1030.28 209.207 1030.05 209.186C1029.81 209.164 1029.58 209.126 1029.35 209.073C1029.12 209.021 1028.9 208.947 1028.69 208.854C1028.49 208.767 1028.3 208.648 1028.13 208.502C1027.91 208.311 1027.76 208.057 1027.69 207.774C1027.65 207.63 1027.64 207.477 1027.67 207.329C1027.69 207.181 1027.75 207.041 1027.83 206.919C1027.92 206.782 1028.05 206.676 1028.19 206.615C1028.34 206.551 1028.5 206.515 1028.66 206.507C1028.83 206.491 1028.99 206.523 1029.14 206.6C1029.26 206.671 1029.38 206.742 1029.49 206.812C1029.67 206.918 1029.87 206.989 1030.07 207.024C1030.32 207.078 1030.57 207.105 1030.83 207.105C1031.02 207.118 1031.22 207.072 1031.39 206.972C1031.45 206.939 1031.5 206.894 1031.54 206.839C1031.58 206.784 1031.6 206.721 1031.62 206.654C1031.63 206.494 1031.5 206.368 1031.23 206.278C1030.85 206.157 1030.46 206.057 1030.07 205.979C1029.98 205.96 1029.89 205.94 1029.8 205.917C1029.72 205.898 1029.63 205.873 1029.55 205.844C1029.12 205.724 1028.72 205.504 1028.38 205.201C1028.11 204.957 1027.91 204.649 1027.79 204.304C1027.68 203.977 1027.64 203.627 1027.68 203.282C1027.71 202.937 1027.79 202.6 1027.93 202.285C1028.06 202.016 1028.23 201.772 1028.44 201.567C1028.65 201.361 1028.89 201.194 1029.16 201.071C1029.43 200.94 1029.72 200.844 1030.02 200.783C1030.33 200.722 1030.64 200.691 1030.96 200.691C1031.4 200.683 1031.84 200.732 1032.27 200.838C1032.58 200.912 1032.88 201.028 1033.15 201.184C1033.41 201.328 1033.63 201.541 1033.78 201.8C1033.85 201.925 1033.9 202.065 1033.92 202.211C1033.94 202.356 1033.92 202.504 1033.88 202.644C1033.85 202.755 1033.81 202.859 1033.74 202.95C1033.68 203.041 1033.59 203.117 1033.5 203.174C1033.31 203.275 1033.1 203.325 1032.89 203.321C1032.79 203.319 1032.69 203.303 1032.6 203.274C1032.51 203.251 1032.43 203.213 1032.35 203.161C1032.26 203.103 1032.17 203.056 1032.07 203.022C1031.96 202.983 1031.84 202.945 1031.72 202.909C1031.6 202.875 1031.47 202.848 1031.34 202.828C1031.23 202.813 1031.11 202.805 1031 202.804C1030.83 202.794 1030.66 202.838 1030.51 202.93C1030.46 202.957 1030.41 202.999 1030.37 203.051C1030.33 203.103 1030.31 203.164 1030.3 203.229Z" fill="#404040"/>
<path d="M1038.26 203.667C1038.27 203.529 1038.29 203.393 1038.33 203.263C1038.37 203.132 1038.43 203.01 1038.51 202.903C1038.6 202.793 1038.71 202.704 1038.83 202.644C1038.98 202.575 1039.14 202.541 1039.31 202.546H1040.68V201.149C1040.68 200.717 1040.79 200.398 1041.04 200.195C1041.27 199.992 1041.56 199.883 1041.86 199.888C1042.16 199.883 1042.45 199.992 1042.68 200.195C1042.92 200.398 1043.04 200.717 1043.04 201.149V202.546H1044.42C1044.58 202.541 1044.75 202.575 1044.9 202.644C1045.02 202.705 1045.13 202.793 1045.22 202.903C1045.3 203.011 1045.36 203.132 1045.4 203.263C1045.43 203.392 1045.45 203.526 1045.45 203.661C1045.45 203.798 1045.43 203.934 1045.4 204.065C1045.36 204.202 1045.3 204.329 1045.22 204.441C1045.13 204.555 1045.02 204.647 1044.9 204.714C1044.75 204.79 1044.59 204.826 1044.43 204.821H1043.02V206.214C1043.02 206.649 1042.9 206.968 1042.66 207.171C1042.43 207.373 1042.14 207.482 1041.84 207.475C1041.54 207.482 1041.25 207.373 1041.02 207.171C1040.78 206.968 1040.66 206.649 1040.66 206.214V204.821H1039.28C1039.12 204.826 1038.95 204.789 1038.8 204.714C1038.68 204.65 1038.57 204.556 1038.48 204.441C1038.4 204.329 1038.34 204.201 1038.3 204.065C1038.27 203.935 1038.26 203.801 1038.26 203.667Z" fill="#404040"/>
<path d="M1052.42 204.994C1052.41 205.274 1052.46 205.553 1052.56 205.812C1052.65 206.034 1052.79 206.234 1052.96 206.397C1053.12 206.552 1053.32 206.672 1053.53 206.748C1053.74 206.829 1053.96 206.869 1054.19 206.868C1054.45 206.872 1054.71 206.849 1054.96 206.801C1055.16 206.762 1055.35 206.698 1055.54 206.613C1055.63 206.568 1055.74 206.515 1055.85 206.453C1055.96 206.392 1056.08 206.351 1056.2 206.333C1056.41 206.287 1056.63 206.306 1056.83 206.387C1057.03 206.479 1057.2 206.638 1057.3 206.838C1057.38 206.958 1057.43 207.093 1057.45 207.235C1057.47 207.377 1057.46 207.522 1057.42 207.66C1057.34 207.933 1057.18 208.175 1056.97 208.352C1056.59 208.664 1056.15 208.889 1055.68 209.01C1055.19 209.145 1054.69 209.214 1054.19 209.215C1053.64 209.216 1053.09 209.14 1052.57 208.989C1052.06 208.847 1051.58 208.601 1051.16 208.265C1050.74 207.924 1050.4 207.488 1050.16 206.991C1049.9 206.404 1049.77 205.76 1049.79 205.111V202.347C1049.77 201.698 1049.9 201.054 1050.16 200.467C1050.4 199.969 1050.74 199.532 1051.16 199.191C1051.58 198.856 1052.06 198.61 1052.57 198.467C1053.09 198.316 1053.64 198.24 1054.19 198.242C1054.69 198.234 1055.2 198.297 1055.69 198.43C1056.05 198.522 1056.39 198.679 1056.7 198.894C1056.95 199.072 1057.14 199.325 1057.24 199.62C1057.29 199.759 1057.31 199.908 1057.3 200.056C1057.29 200.205 1057.24 200.348 1057.17 200.475C1057.05 200.692 1056.87 200.865 1056.66 200.966C1056.45 201.063 1056.23 201.091 1056.01 201.046C1055.87 201.024 1055.74 200.981 1055.62 200.92C1055.5 200.862 1055.4 200.811 1055.31 200.768C1055.15 200.705 1054.99 200.661 1054.83 200.635C1054.61 200.604 1054.4 200.591 1054.18 200.593C1053.96 200.593 1053.73 200.634 1053.52 200.714C1053.31 200.791 1053.12 200.912 1052.95 201.067C1052.78 201.229 1052.65 201.429 1052.56 201.652C1052.46 201.91 1052.41 202.188 1052.41 202.468L1052.42 204.994Z" fill="#404040"/>
<path d="M1058.33 204.344C1058.31 203.732 1058.43 203.123 1058.66 202.563C1058.86 202.122 1059.16 201.735 1059.53 201.435C1059.88 201.153 1060.29 200.95 1060.72 200.838C1061.15 200.724 1061.59 200.666 1062.03 200.665C1062.47 200.667 1062.9 200.725 1063.32 200.838C1063.76 200.949 1064.16 201.153 1064.52 201.435C1064.89 201.737 1065.19 202.123 1065.39 202.563C1065.63 203.122 1065.75 203.731 1065.73 204.344V205.565C1065.75 206.178 1065.63 206.787 1065.39 207.346C1065.19 207.787 1064.89 208.173 1064.52 208.474C1064.16 208.755 1063.76 208.959 1063.32 209.071C1062.9 209.184 1062.47 209.242 1062.03 209.244C1061.59 209.243 1061.16 209.185 1060.74 209.071C1060.3 208.959 1059.9 208.755 1059.54 208.474C1059.17 208.173 1058.87 207.787 1058.67 207.346C1058.43 206.787 1058.31 206.178 1058.33 205.565V204.344ZM1063.16 204.225C1063.17 204.018 1063.14 203.812 1063.06 203.62C1063 203.468 1062.91 203.33 1062.8 203.216C1062.7 203.111 1062.57 203.031 1062.44 202.982C1062.31 202.934 1062.17 202.91 1062.03 202.909C1061.89 202.91 1061.75 202.934 1061.62 202.982C1061.49 203.032 1061.37 203.111 1061.26 203.216C1061.15 203.331 1061.06 203.468 1061 203.62C1060.93 203.812 1060.89 204.018 1060.9 204.225V205.686C1060.89 205.892 1060.93 206.098 1061 206.289C1061.06 206.441 1061.15 206.579 1061.26 206.695C1061.37 206.799 1061.49 206.878 1061.62 206.926C1061.75 206.975 1061.89 206.999 1062.03 207C1062.17 206.999 1062.31 206.974 1062.44 206.926C1062.57 206.878 1062.7 206.799 1062.8 206.695C1062.91 206.58 1063 206.442 1063.06 206.289C1063.14 206.097 1063.17 205.892 1063.16 205.686V204.225Z" fill="#404040"/>
<path d="M1066.9 208.992V202.02C1066.89 201.822 1066.93 201.625 1067.01 201.443C1067.07 201.286 1067.17 201.146 1067.29 201.031C1067.41 200.92 1067.55 200.834 1067.7 200.777C1067.86 200.719 1068.02 200.689 1068.19 200.691C1068.43 200.69 1068.67 200.755 1068.88 200.879C1069.1 200.999 1069.26 201.191 1069.36 201.424C1069.6 201.186 1069.88 200.998 1070.18 200.873C1070.49 200.747 1070.82 200.686 1071.14 200.693C1071.53 200.691 1071.91 200.763 1072.27 200.905C1072.64 201.056 1072.96 201.303 1073.21 201.623C1073.48 201.333 1073.81 201.102 1074.17 200.945C1074.59 200.767 1075.05 200.681 1075.5 200.693C1075.9 200.693 1076.29 200.756 1076.67 200.881C1077.03 200.997 1077.36 201.202 1077.63 201.478C1077.93 201.797 1078.15 202.183 1078.29 202.606C1078.47 203.166 1078.55 203.755 1078.54 204.345V209.007H1075.91V204.185C1075.92 203.993 1075.89 203.802 1075.82 203.621C1075.77 203.481 1075.69 203.353 1075.59 203.246C1075.5 203.153 1075.39 203.082 1075.27 203.039C1075.16 203.001 1075.06 202.982 1074.94 202.98C1074.83 202.982 1074.72 203.002 1074.61 203.039C1074.49 203.08 1074.38 203.151 1074.29 203.246C1074.19 203.354 1074.11 203.482 1074.06 203.621C1073.99 203.801 1073.96 203.993 1073.96 204.185V209.007H1071.44V204.185C1071.44 203.993 1071.41 203.802 1071.34 203.621C1071.29 203.48 1071.21 203.352 1071.11 203.246C1071.02 203.152 1070.91 203.082 1070.79 203.039C1070.69 203.001 1070.58 202.982 1070.46 202.98C1070.35 202.982 1070.24 203.001 1070.14 203.039C1070.02 203.078 1069.92 203.142 1069.83 203.227C1069.73 203.326 1069.65 203.445 1069.59 203.578C1069.52 203.748 1069.49 203.931 1069.48 204.116V209.004L1066.9 208.992Z" fill="#404040"/>
<path d="M1079.78 208.992V202.02C1079.77 201.822 1079.81 201.625 1079.89 201.443C1079.95 201.286 1080.05 201.146 1080.17 201.031C1080.29 200.92 1080.43 200.834 1080.58 200.777C1080.74 200.719 1080.9 200.69 1081.07 200.691C1081.31 200.69 1081.55 200.755 1081.76 200.879C1081.97 200.999 1082.14 201.191 1082.24 201.424C1082.48 201.186 1082.76 200.998 1083.06 200.873C1083.37 200.747 1083.69 200.686 1084.02 200.693C1084.41 200.691 1084.79 200.763 1085.15 200.905C1085.51 201.056 1085.84 201.303 1086.09 201.623C1086.36 201.333 1086.69 201.103 1087.05 200.944C1087.47 200.767 1087.93 200.681 1088.38 200.693C1088.78 200.693 1089.17 200.756 1089.55 200.881C1089.91 200.997 1090.24 201.202 1090.51 201.478C1090.81 201.797 1091.03 202.183 1091.17 202.606C1091.35 203.166 1091.43 203.755 1091.42 204.345V209.007H1088.79V204.185C1088.8 203.993 1088.77 203.802 1088.7 203.621C1088.65 203.48 1088.57 203.352 1088.47 203.245C1088.38 203.152 1088.27 203.082 1088.15 203.039C1088.04 203.001 1087.93 202.982 1087.82 202.98C1087.71 202.982 1087.6 203.002 1087.49 203.039C1087.37 203.08 1087.26 203.151 1087.17 203.245C1087.07 203.354 1086.99 203.482 1086.94 203.621C1086.87 203.801 1086.84 203.993 1086.84 204.185V209.007H1084.32V204.185C1084.32 203.993 1084.29 203.802 1084.23 203.621C1084.17 203.48 1084.09 203.352 1083.99 203.245C1083.9 203.152 1083.79 203.082 1083.67 203.039C1083.57 203.001 1083.46 202.981 1083.35 202.98C1083.24 202.981 1083.13 203.001 1083.02 203.039C1082.91 203.078 1082.8 203.142 1082.71 203.227C1082.61 203.326 1082.53 203.445 1082.47 203.578C1082.4 203.748 1082.37 203.931 1082.37 204.116V209.004L1079.78 208.992Z" fill="#404040"/>
<path d="M1095.53 209.218C1095.14 209.222 1094.76 209.163 1094.39 209.045C1094.04 208.933 1093.72 208.73 1093.47 208.455C1093.19 208.131 1092.98 207.745 1092.85 207.327C1092.69 206.759 1092.61 206.166 1092.62 205.573V202.014C1092.62 201.554 1092.75 201.218 1093.01 201.005C1093.28 200.791 1093.6 200.678 1093.94 200.685C1094.27 200.677 1094.6 200.79 1094.86 201.005C1095.12 201.216 1095.25 201.553 1095.25 202.014V205.733C1095.25 205.925 1095.28 206.117 1095.35 206.297C1095.4 206.437 1095.49 206.565 1095.59 206.672C1095.68 206.767 1095.79 206.837 1095.91 206.877C1096.02 206.916 1096.14 206.936 1096.26 206.938C1096.37 206.935 1096.48 206.915 1096.59 206.877C1096.71 206.838 1096.82 206.774 1096.92 206.689C1097.02 206.59 1097.1 206.471 1097.16 206.338C1097.24 206.168 1097.28 205.985 1097.28 205.798V202.001C1097.28 201.55 1097.4 201.218 1097.65 201.005C1097.91 200.791 1098.23 200.678 1098.56 200.685C1098.89 200.677 1099.21 200.79 1099.47 201.005C1099.73 201.216 1099.86 201.549 1099.86 202.001V208.987H1097.83L1097.69 208.124C1097.45 208.462 1097.13 208.736 1096.77 208.921C1096.39 209.119 1095.96 209.221 1095.53 209.218Z" fill="#404040"/>
<path d="M1101.13 208.992V202.02C1101.12 201.822 1101.16 201.625 1101.23 201.443C1101.3 201.286 1101.4 201.146 1101.52 201.031C1101.64 200.92 1101.78 200.834 1101.93 200.777C1102.09 200.719 1102.25 200.689 1102.41 200.691C1102.66 200.69 1102.9 200.755 1103.11 200.879C1103.32 201.001 1103.5 201.192 1103.6 201.424C1103.85 201.184 1104.14 200.998 1104.46 200.879C1104.78 200.755 1105.12 200.691 1105.46 200.691C1105.85 200.688 1106.23 200.746 1106.6 200.864C1106.95 200.977 1107.27 201.18 1107.52 201.454C1107.8 201.778 1108.02 202.163 1108.14 202.582C1108.31 203.15 1108.38 203.742 1108.37 204.336V208.998H1105.75V204.176C1105.75 203.983 1105.72 203.791 1105.65 203.612C1105.6 203.471 1105.51 203.343 1105.41 203.236C1105.32 203.142 1105.21 203.071 1105.08 203.029C1104.97 202.992 1104.86 202.972 1104.74 202.971C1104.62 202.972 1104.51 202.992 1104.39 203.029C1104.27 203.072 1104.16 203.143 1104.06 203.236C1103.96 203.342 1103.87 203.47 1103.82 203.612C1103.75 203.791 1103.71 203.983 1103.72 204.176V208.998L1101.13 208.992Z" fill="#404040"/>
<path d="M1109.66 198.992C1109.66 198.557 1109.79 198.243 1110.06 198.052C1110.33 197.857 1110.66 197.757 1110.99 197.766C1111.32 197.757 1111.64 197.857 1111.92 198.052C1112.18 198.24 1112.31 198.554 1112.31 198.992C1112.32 199.186 1112.28 199.379 1112.2 199.556C1112.14 199.702 1112.04 199.831 1111.92 199.932C1111.79 200.032 1111.65 200.104 1111.5 200.144C1111.33 200.19 1111.16 200.213 1110.99 200.212C1110.81 200.213 1110.64 200.19 1110.48 200.144C1110.32 200.105 1110.18 200.033 1110.06 199.932C1109.93 199.831 1109.84 199.703 1109.77 199.556C1109.69 199.379 1109.66 199.186 1109.66 198.992ZM1109.67 202.112C1109.67 201.654 1109.8 201.315 1110.06 201.103C1110.33 200.888 1110.65 200.776 1110.99 200.783C1111.32 200.775 1111.65 200.888 1111.91 201.103C1112.17 201.315 1112.3 201.654 1112.3 202.112V208.993H1109.67V202.112Z" fill="#404040"/>
<path d="M1114.3 202.844H1113.87C1113.47 202.844 1113.18 202.732 1113.01 202.512C1112.84 202.301 1112.75 202.035 1112.75 201.76C1112.75 201.625 1112.77 201.49 1112.81 201.361C1112.85 201.229 1112.91 201.106 1113 201.002C1113.1 200.89 1113.22 200.802 1113.35 200.743C1113.52 200.672 1113.69 200.638 1113.87 200.643H1114.29V199.261C1114.29 199.061 1114.33 198.863 1114.4 198.679C1114.47 198.52 1114.56 198.38 1114.69 198.267C1114.81 198.161 1114.94 198.079 1115.09 198.026C1115.24 197.973 1115.4 197.947 1115.56 197.947C1115.71 197.947 1115.87 197.974 1116.02 198.026C1116.17 198.079 1116.3 198.161 1116.42 198.267C1116.55 198.38 1116.64 198.52 1116.71 198.679C1116.78 198.863 1116.82 199.061 1116.82 199.261V200.643H1117.57C1117.75 200.638 1117.92 200.672 1118.09 200.743C1118.22 200.802 1118.33 200.891 1118.43 201.002C1118.52 201.107 1118.59 201.229 1118.63 201.361C1118.67 201.489 1118.69 201.624 1118.69 201.76C1118.69 202.035 1118.6 202.301 1118.43 202.512C1118.25 202.732 1117.97 202.844 1117.57 202.844H1116.82V206.136C1116.82 206.341 1116.86 206.474 1116.94 206.537C1117.02 206.598 1117.12 206.635 1117.22 206.642C1117.31 206.652 1117.4 206.645 1117.48 206.621C1117.58 206.597 1117.68 206.587 1117.79 206.589C1117.99 206.585 1118.19 206.656 1118.35 206.788C1118.51 206.92 1118.62 207.109 1118.65 207.319C1118.72 207.562 1118.69 207.82 1118.6 208.05C1118.51 208.255 1118.36 208.429 1118.18 208.554C1118.01 208.663 1117.83 208.749 1117.64 208.807C1117.43 208.876 1117.2 208.912 1116.98 208.913C1116.59 208.919 1116.21 208.87 1115.84 208.768C1115.53 208.681 1115.24 208.522 1115 208.302C1114.76 208.073 1114.58 207.785 1114.48 207.465C1114.35 207.054 1114.29 206.623 1114.3 206.191V202.844Z" fill="#404040"/>
<path d="M1124.21 208.979C1123.82 209.918 1123.29 210.582 1122.63 210.972C1121.92 211.371 1121.1 211.507 1120.31 211.357C1120.14 211.336 1119.97 211.28 1119.82 211.192C1119.69 211.111 1119.58 211.005 1119.48 210.88C1119.4 210.761 1119.34 210.625 1119.3 210.481C1119.27 210.337 1119.26 210.188 1119.28 210.041C1119.31 209.752 1119.45 209.485 1119.65 209.289C1119.86 209.09 1120.16 209.027 1120.54 209.101C1120.79 209.155 1121.05 209.141 1121.29 209.062C1121.4 209.03 1121.5 208.976 1121.59 208.902C1121.68 208.829 1121.75 208.738 1121.8 208.635V208.624L1119.2 202.593C1119.12 202.417 1119.08 202.224 1119.08 202.029C1119.08 201.85 1119.12 201.674 1119.19 201.51C1119.26 201.351 1119.35 201.209 1119.48 201.091C1119.6 200.97 1119.75 200.878 1119.92 200.82C1120.08 200.758 1120.25 200.721 1120.42 200.713C1120.6 200.703 1120.77 200.727 1120.93 200.786C1121.09 200.845 1121.23 200.941 1121.36 201.066C1121.49 201.211 1121.6 201.385 1121.66 201.576L1123.13 205.712L1124.48 201.576C1124.54 201.384 1124.64 201.209 1124.77 201.066C1124.89 200.941 1125.04 200.845 1125.2 200.786C1125.36 200.728 1125.52 200.703 1125.69 200.713C1125.86 200.723 1126.04 200.759 1126.2 200.82C1126.36 200.88 1126.5 200.972 1126.63 201.091C1126.75 201.208 1126.84 201.351 1126.91 201.51C1126.97 201.675 1127 201.851 1127 202.029C1127 202.223 1126.96 202.415 1126.89 202.593L1124.21 208.979Z" fill="#404040"/>
</g>
<path d="M845.724 162.861C845.724 162.861 840.894 156.184 844.345 147.169C847.795 138.155 857.247 136.71 864.141 137.043C871.035 137.376 886.004 139.819 899.988 137.043L895.658 143.72L871.924 151.825H853.307L847.506 155.849L845.724 159.632V162.861Z" fill="#404040"/>
<path d="M845.722 162.861C845.722 162.861 847.004 154.185 858.623 155.292C870.242 156.399 896.93 159.187 899.986 137.041C899.986 137.041 892.207 149.616 866.108 145.944C866.108 145.944 840.306 142.271 845.722 162.861Z" fill="#404040"/>
<path d="M889.874 165.688C897.601 165.688 898.868 176.84 896.57 184.525L894.624 191.216C892.745 197.508 888.904 202.967 883.709 206.726C878.514 210.485 872.263 212.33 865.947 211.967C859.605 211.601 853.239 210.666 848.811 208.644C836.457 203.003 825.047 190.747 827.282 168.934C829.024 151.93 838.922 144.003 843.198 141.345C843.299 141.282 843.418 141.256 843.535 141.273C843.652 141.29 843.76 141.349 843.841 141.439C843.922 141.529 843.97 141.645 843.979 141.768C843.987 141.89 843.955 142.013 843.887 142.114C840.843 146.672 833.808 158.966 838.811 171.26C838.811 171.26 844.307 195.082 867.981 190.782C871.282 190.182 874.152 188.006 875.532 184.869C875.571 184.781 875.587 184.685 875.581 184.589C875.575 184.493 875.545 184.4 875.495 184.319C875.446 184.238 875.377 184.171 875.297 184.125C875.216 184.078 875.125 184.054 875.033 184.053H874.047C871.705 184.053 869.46 183.084 867.805 181.36C866.149 179.635 865.219 177.296 865.219 174.857C865.219 173.648 865.448 172.451 865.892 171.335C866.336 170.218 866.988 169.204 867.808 168.35C868.629 167.496 869.603 166.819 870.676 166.357C871.748 165.896 872.897 165.659 874.057 165.66L889.874 165.688Z" fill="#404040"/>
<path d="M874.72 184.129C874.72 184.129 898.038 184.953 886.572 204.351C886.572 204.351 898.249 195.279 897.874 176.068C897.874 176.068 897.926 165.989 890.691 165.53H873.073C873.073 165.53 865.104 165.774 865.104 174.016C865.104 181.365 869.384 184.129 874.72 184.129Z" fill="#404040"/>
<defs>
<linearGradient id="paint0_linear_7008_5379" x1="280.923" y1="149.928" x2="215.091" y2="149.928" gradientUnits="userSpaceOnUse">
<stop stop-color="#3F8CFC"/>
<stop offset="0.47" stop-color="#0F61D6"/>
<stop offset="0.57" stop-color="#0A51C1"/>
<stop offset="0.72" stop-color="#0441AC"/>
<stop offset="0.87" stop-color="#01379F"/>
<stop offset="1" stop-color="#00349B"/>
</linearGradient>
<linearGradient id="paint1_linear_7008_5379" x1="222.978" y1="149.951" x2="277.989" y2="149.951" gradientUnits="userSpaceOnUse">
<stop stop-color="#3F8CFC"/>
<stop offset="0.47" stop-color="#0F61D6"/>
<stop offset="0.57" stop-color="#0A51C1"/>
<stop offset="0.72" stop-color="#0441AC"/>
<stop offset="0.87" stop-color="#01379F"/>
<stop offset="1" stop-color="#00349B"/>
</linearGradient>
<linearGradient id="paint2_linear_7008_5379" x1="204.999" y1="176.634" x2="275.599" y2="176.634" gradientUnits="userSpaceOnUse">
<stop stop-color="#3F8CFC"/>
<stop offset="0.47" stop-color="#0F61D6"/>
<stop offset="0.57" stop-color="#0A51C1"/>
<stop offset="0.72" stop-color="#0441AC"/>
<stop offset="0.87" stop-color="#01379F"/>
<stop offset="1" stop-color="#00349B"/>
</linearGradient>
<linearGradient id="paint3_linear_7008_5379" x1="275.073" y1="192.477" x2="247.519" y2="166.028" gradientUnits="userSpaceOnUse">
<stop stop-color="#3F8CFC"/>
<stop offset="0.47" stop-color="#0F61D6"/>
<stop offset="0.57" stop-color="#0A51C1"/>
<stop offset="0.72" stop-color="#0441AC"/>
<stop offset="0.87" stop-color="#01379F"/>
<stop offset="1" stop-color="#00349B"/>
</linearGradient>
<clipPath id="clip0_7008_5379">
<rect width="228.646" height="13.6387" fill="white" transform="translate(276.352 197.77)"/>
</clipPath>
<clipPath id="clip1_7008_5379">
<rect width="228.645" height="13.6387" fill="white" transform="translate(898.355 197.77)"/>
</clipPath>
</defs>
</svg>
