<svg width="697" height="309" viewBox="0 0 697 309" fill="none" xmlns="http://www.w3.org/2000/svg">
<path d="M579.351 76H263.466C199.696 76 148 127.696 148 191.466V191.478C148 255.249 199.696 306.944 263.466 306.944H579.351C643.121 306.944 694.817 255.249 694.817 191.478V191.466C694.817 127.696 643.121 76 579.351 76Z" fill="white" stroke="#0052C9" stroke-width="3.77627" stroke-miterlimit="10"/>
<path d="M133.764 261.528C204.326 261.528 261.528 204.326 261.528 133.764C261.528 63.2019 204.326 6 133.764 6C63.2019 6 6 63.2019 6 133.764C6 204.326 63.2019 261.528 133.764 261.528Z" fill="white" stroke="url(#paint0_linear_7054_4697)" stroke-width="10.0701" stroke-miterlimit="10"/>
<path d="M177.343 145.219H172.119V119.527C172.122 118.836 172.392 118.173 172.874 117.677C173.365 117.195 174.024 116.924 174.712 116.922C175.054 116.916 175.393 116.981 175.709 117.11C176.025 117.24 176.311 117.433 176.55 117.677C177.048 118.165 177.333 118.83 177.343 119.527V145.219Z" fill="#404040"/>
<path d="M185.208 125.997V145.218H180.072V120.22C180.075 119.346 180.424 118.509 181.042 117.891C181.343 117.583 181.703 117.338 182.101 117.171C182.499 117.005 182.926 116.92 183.358 116.922C183.965 116.908 184.564 117.07 185.082 117.387C185.612 117.68 186.048 118.117 186.341 118.646L195.316 136.105V119.439C195.312 119.103 195.376 118.769 195.504 118.458C195.631 118.146 195.82 117.864 196.058 117.627C196.294 117.389 196.575 117.202 196.884 117.074C197.193 116.947 197.524 116.882 197.859 116.884C198.195 116.88 198.529 116.944 198.84 117.072C199.151 117.199 199.434 117.388 199.671 117.627C200.16 118.104 200.44 118.756 200.452 119.439V145.181H195.127L185.208 125.997Z" fill="#404040"/>
<path d="M208.975 135.626C208.932 136.922 209.382 138.186 210.234 139.163C211.078 140.145 212.259 140.774 213.545 140.926C216.402 140.926 218.089 139.327 218.089 136.998C218.089 134.67 216.767 133.575 214.174 133.071L210.813 132.341C208.818 132.201 206.952 131.299 205.602 129.823C204.253 128.353 203.522 126.419 203.563 124.423C203.563 119.854 206.71 116.481 212.676 116.481C214.344 116.344 216.016 116.67 217.51 117.425C219.007 118.185 220.266 119.344 221.148 120.773C221.335 121.165 221.417 121.599 221.387 122.032C221.378 122.476 221.252 122.911 221.022 123.291C220.795 123.65 220.484 123.948 220.115 124.159C219.731 124.372 219.297 124.481 218.857 124.474C218.371 124.495 217.891 124.363 217.485 124.096C217.067 123.841 216.737 123.463 216.541 123.014C216.176 122.307 215.605 121.727 214.904 121.352C214.205 120.982 213.412 120.829 212.626 120.911C209.894 120.911 208.485 122.372 208.485 124.474C208.485 126.576 209.668 127.533 212.349 128.137L215.672 128.817C217.695 128.98 219.578 129.912 220.934 131.422C222.291 132.937 223.016 134.915 222.96 136.948C222.96 141.832 219.36 145.306 213.167 145.306C211.879 145.354 210.594 145.14 209.391 144.677C208.194 144.214 207.103 143.517 206.181 142.625C205.264 141.725 204.536 140.651 204.041 139.466C203.546 138.269 203.298 136.984 203.311 135.689L208.975 135.626Z" fill="#404040"/>
<path d="M96.1403 119.817C96.4412 118.879 97.0837 118.088 97.9403 117.602C98.7848 117.152 99.7276 116.918 100.684 116.922C101.603 116.923 102.504 117.176 103.29 117.652C104.132 118.122 104.763 118.897 105.052 119.817L114.329 145.219H106.575L105.191 140.624H95.9012L94.6424 145.219H86.9766L96.1403 119.817ZM97.8522 134.922H103.29L100.596 126.199L97.8522 134.922Z" fill="#0052C9"/>
<path d="M131.674 144.036C131.307 144.023 130.941 143.985 130.579 143.922C130.187 143.852 129.803 143.742 129.434 143.595C129.084 143.469 128.754 143.295 128.452 143.079C128.198 142.883 128.01 142.616 127.91 142.311L124.348 129.51L122.724 145.282H116.078L119.024 120.497C119.068 119.987 119.223 119.493 119.477 119.049C119.703 118.642 120.007 118.283 120.37 117.992C120.709 117.699 121.097 117.469 121.516 117.312C121.918 117.143 122.342 117.033 122.775 116.985C123.227 116.947 123.682 116.947 124.134 116.985C124.613 117.06 125.077 117.213 125.506 117.438C125.957 117.659 126.359 117.967 126.689 118.344C127.065 118.76 127.333 119.262 127.47 119.805L131.724 135.866L135.992 119.805C136.13 119.267 136.388 118.768 136.747 118.344C137.074 117.968 137.471 117.66 137.918 117.438C138.356 117.214 138.828 117.061 139.315 116.985C139.771 116.947 140.23 116.947 140.687 116.985C141.12 117.033 141.544 117.143 141.946 117.312C142.358 117.474 142.741 117.704 143.078 117.992C143.44 118.289 143.746 118.647 143.985 119.049C144.237 119.494 144.387 119.988 144.425 120.497L147.346 145.282H140.737L139.139 129.396L135.539 142.311C135.448 142.62 135.258 142.89 134.997 143.079C134.707 143.307 134.379 143.482 134.028 143.595C133.654 143.742 133.266 143.852 132.87 143.922C132.475 143.991 132.075 144.029 131.674 144.036Z" fill="#0052C9"/>
<path d="M156.335 127.848H166.053C166.489 127.837 166.921 127.932 167.312 128.124C167.657 128.303 167.962 128.551 168.206 128.855C168.444 129.152 168.619 129.495 168.722 129.862C168.822 130.209 168.873 130.57 168.873 130.931C168.873 131.293 168.822 131.654 168.722 132.001C168.615 132.349 168.444 132.673 168.218 132.958C167.982 133.257 167.68 133.498 167.337 133.663C166.94 133.835 166.511 133.925 166.078 133.927H156.361V138.044C156.323 138.338 156.4 138.635 156.575 138.874C156.818 139.029 157.106 139.096 157.393 139.063H166.758C167.192 139.054 167.623 139.144 168.017 139.327C168.366 139.489 168.672 139.73 168.91 140.032C169.133 140.327 169.3 140.659 169.401 141.014C169.512 141.364 169.567 141.73 169.565 142.097C169.566 142.468 169.511 142.837 169.401 143.192C169.299 143.559 169.123 143.901 168.885 144.199C168.65 144.509 168.349 144.762 168.004 144.941C167.611 145.129 167.181 145.224 166.745 145.218H154.598C153.7 145.235 152.804 145.138 151.93 144.929C151.284 144.763 150.693 144.428 150.218 143.96C149.775 143.473 149.467 142.878 149.324 142.235C149.133 141.41 149.04 140.565 149.047 139.718V122.485C149.04 121.638 149.133 120.793 149.324 119.968C149.467 119.325 149.775 118.73 150.218 118.243C150.691 117.772 151.282 117.437 151.93 117.274C152.802 117.055 153.699 116.953 154.598 116.972H166.38C166.814 116.942 167.247 117.024 167.639 117.211C168.028 117.388 168.366 117.661 168.621 118.004C168.849 118.308 169.024 118.648 169.137 119.011C169.237 119.368 169.287 119.736 169.288 120.106C169.288 120.468 169.237 120.828 169.137 121.176C169.025 121.533 168.855 121.869 168.634 122.171C168.392 122.466 168.086 122.703 167.74 122.863C167.344 123.041 166.915 123.131 166.481 123.127H157.443C157.155 123.098 156.866 123.17 156.625 123.329C156.449 123.563 156.373 123.857 156.411 124.147L156.335 127.848Z" fill="#0052C9"/>
<mask id="mask0_7054_4697" style="mask-type:luminance" maskUnits="userSpaceOnUse" x="86" y="147" width="137" height="8">
<path d="M222.997 147.043H86.9629V154.835H222.997V147.043Z" fill="white"/>
</mask>
<g mask="url(#mask0_7054_4697)">
<path d="M88.5852 151.651V153.451H87.0117V148.554C87.014 148.364 87.0351 148.174 87.0747 147.988C87.1039 147.852 87.169 147.726 87.2635 147.623C87.3646 147.521 87.4904 147.448 87.6285 147.409C87.8165 147.384 88.0069 147.384 88.195 147.409H89.4537C89.7645 147.407 90.0739 147.449 90.3726 147.535C90.6354 147.61 90.8798 147.738 91.0901 147.913C91.2942 148.089 91.4574 148.308 91.5684 148.554C91.6844 148.851 91.7401 149.168 91.7321 149.486V149.612C91.7414 149.934 91.6858 150.255 91.5684 150.556C91.4541 150.8 91.2914 151.018 91.0901 151.198C90.8798 151.372 90.6354 151.501 90.3726 151.576C90.0739 151.661 89.7645 151.704 89.4537 151.701L88.5852 151.651ZM88.5852 150.392H89.4411C89.5537 150.41 89.6684 150.41 89.781 150.392C89.8751 150.35 89.9605 150.29 90.0327 150.216C90.0976 150.137 90.1487 150.048 90.1838 149.952C90.2028 149.852 90.2028 149.749 90.1838 149.65C90.202 149.55 90.202 149.447 90.1838 149.348C90.1487 149.252 90.0976 149.162 90.0327 149.083C89.9605 149.009 89.8751 148.95 89.781 148.907C89.6684 148.889 89.5537 148.889 89.4411 148.907H88.7992C88.7411 148.894 88.6809 148.894 88.6229 148.907C88.6058 148.969 88.6058 149.034 88.6229 149.096L88.5852 150.392Z" fill="#404040"/>
<path d="M92.3599 147.811C92.3509 147.705 92.3667 147.599 92.406 147.501C92.4454 147.403 92.5072 147.315 92.5864 147.245C92.7446 147.121 92.9397 147.055 93.1403 147.056C93.3374 147.053 93.5293 147.119 93.6816 147.245C93.7648 147.312 93.8301 147.399 93.8718 147.498C93.9135 147.597 93.9303 147.704 93.9207 147.811V153.463H92.3599V147.811Z" fill="#404040"/>
<path d="M97.5857 153.45L97.5228 153.135C97.3713 153.271 97.1964 153.377 97.0067 153.45C96.8079 153.535 96.5936 153.578 96.3773 153.576H96.2011C96.0305 153.575 95.8609 153.55 95.6976 153.5C95.5157 153.454 95.3447 153.373 95.1941 153.261C95.0311 153.132 94.8981 152.968 94.8039 152.783C94.6902 152.552 94.6381 152.297 94.6528 152.04C94.6396 151.792 94.6917 151.545 94.8039 151.323C94.8975 151.137 95.0359 150.977 95.2067 150.857C95.3883 150.74 95.5883 150.655 95.7983 150.605C96.0301 150.556 96.2663 150.531 96.5032 150.53H97.2962C97.289 150.433 97.2633 150.339 97.2207 150.253C97.1879 150.184 97.1353 150.127 97.0696 150.089C97.0049 150.043 96.9324 150.009 96.8557 149.988H96.5913H96.3396H96.0878H95.9116L95.7228 150.077C95.6527 150.095 95.5789 150.095 95.5088 150.077C95.4302 150.096 95.3482 150.096 95.2696 150.077C95.1962 150.051 95.128 150.013 95.0682 149.963C95.0046 149.912 94.953 149.848 94.9172 149.775C94.899 149.704 94.899 149.631 94.9172 149.56C94.9052 149.485 94.9052 149.409 94.9172 149.334C94.963 149.187 95.0558 149.058 95.1815 148.969C95.2876 148.894 95.4016 148.831 95.5214 148.78C95.6512 148.725 95.7861 148.683 95.9242 148.654C96.0556 148.616 96.1906 148.59 96.327 148.579H96.7424C97.0048 148.582 97.2662 148.612 97.5228 148.667C97.7606 148.725 97.9836 148.832 98.1774 148.982C98.3803 149.146 98.5402 149.358 98.6431 149.598C98.7595 149.921 98.815 150.262 98.8067 150.605V153.324L97.5857 153.45ZM97.2962 151.65H96.6039C96.4812 151.649 96.3616 151.689 96.264 151.763C96.2277 151.8 96.1979 151.842 96.1759 151.889C96.1689 151.943 96.1689 151.998 96.1759 152.053C96.1637 152.102 96.1637 152.154 96.1759 152.204C96.1979 152.251 96.2277 152.293 96.264 152.33C96.3548 152.396 96.4666 152.427 96.5787 152.418H96.6794H96.906C96.9738 152.394 97.0375 152.36 97.0948 152.317C97.1502 152.276 97.1972 152.225 97.2333 152.166C97.2514 152.096 97.2514 152.022 97.2333 151.952L97.2962 151.65Z" fill="#404040"/>
<path d="M100.054 150.115H99.8151C99.7204 150.125 99.6248 150.113 99.5354 150.08C99.446 150.047 99.3652 149.995 99.2991 149.926C99.1972 149.807 99.1434 149.655 99.148 149.498C99.1356 149.423 99.1356 149.347 99.148 149.272C99.1705 149.197 99.2091 149.128 99.2613 149.07C99.3242 149.009 99.3964 148.958 99.4753 148.919C99.5754 148.879 99.6821 148.858 99.79 148.856H100.029V148.076C100.03 147.959 100.056 147.843 100.105 147.736C100.14 147.645 100.196 147.563 100.268 147.497C100.34 147.439 100.421 147.392 100.507 147.358C100.599 147.346 100.692 147.346 100.784 147.358C100.876 147.345 100.969 147.345 101.061 147.358C101.148 147.392 101.228 147.439 101.3 147.497C101.373 147.566 101.433 147.646 101.477 147.736C101.496 147.844 101.496 147.955 101.477 148.063V148.856H101.917C102.021 148.838 102.128 148.838 102.232 148.856C102.307 148.895 102.375 148.946 102.433 149.007C102.483 149.072 102.522 149.144 102.547 149.221C102.561 149.296 102.561 149.373 102.547 149.448C102.547 149.604 102.493 149.755 102.396 149.876C102.329 149.944 102.248 149.996 102.159 150.028C102.07 150.061 101.974 150.073 101.88 150.065H101.439V151.94C101.426 151.981 101.426 152.025 101.439 152.066C101.433 152.099 101.433 152.134 101.439 152.167C101.496 152.184 101.558 152.184 101.615 152.167C101.665 152.179 101.717 152.179 101.766 152.167H101.942C102.065 152.166 102.185 152.206 102.282 152.28C102.332 152.315 102.373 152.36 102.404 152.412C102.434 152.464 102.453 152.522 102.459 152.582C102.503 152.717 102.503 152.863 102.459 152.998C102.4 153.113 102.313 153.213 102.207 153.287C102.106 153.351 101.996 153.398 101.88 153.426C101.75 153.445 101.619 153.445 101.489 153.426C101.261 153.425 101.033 153.4 100.81 153.35C100.627 153.296 100.459 153.201 100.319 153.073C100.171 152.947 100.062 152.781 100.004 152.595C99.9287 152.363 99.8905 152.121 99.8907 151.877L100.054 150.115Z" fill="#404040"/>
<path d="M103.689 153.45V150.115H103.424C103.332 150.123 103.238 150.111 103.151 150.078C103.064 150.045 102.985 149.994 102.921 149.926C102.815 149.808 102.757 149.656 102.757 149.498C102.745 149.419 102.745 149.338 102.757 149.259C102.782 149.185 102.821 149.117 102.87 149.057C102.928 148.993 103.002 148.946 103.084 148.919C103.181 148.88 103.283 148.859 103.386 148.856H103.651V148.692C103.638 148.431 103.677 148.171 103.764 147.925C103.825 147.733 103.933 147.559 104.079 147.421C104.229 147.283 104.41 147.184 104.607 147.132C104.846 147.071 105.091 147.041 105.338 147.043C105.488 147.031 105.64 147.031 105.791 147.043C105.936 147.079 106.076 147.134 106.206 147.207C106.322 147.276 106.411 147.383 106.458 147.509C106.496 147.641 106.496 147.78 106.458 147.912C106.426 148.029 106.36 148.134 106.269 148.214C106.227 148.258 106.176 148.293 106.12 148.317C106.063 148.34 106.003 148.353 105.942 148.353H105.791H105.64H105.526H105.325H105.249C105.224 148.43 105.224 148.514 105.249 148.592V148.806H105.677C105.777 148.788 105.88 148.788 105.98 148.806C106.057 148.841 106.125 148.893 106.181 148.957C106.241 149.011 106.285 149.08 106.307 149.158C106.32 149.237 106.32 149.318 106.307 149.397C106.302 149.554 106.245 149.705 106.143 149.825C106.08 149.893 106.001 149.946 105.914 149.979C105.826 150.012 105.732 150.024 105.64 150.014H105.212V153.35L103.689 153.45Z" fill="#404040"/>
<path d="M106.574 150.794C106.559 150.447 106.628 150.102 106.776 149.787C106.892 149.53 107.069 149.306 107.292 149.133C107.503 148.975 107.742 148.86 107.997 148.793C108.252 148.732 108.514 148.702 108.777 148.705C109.036 148.703 109.294 148.733 109.545 148.793C109.8 148.86 110.039 148.975 110.25 149.133C110.473 149.309 110.653 149.532 110.779 149.787C110.92 150.104 110.989 150.448 110.98 150.794V151.499C110.989 151.85 110.92 152.198 110.779 152.519C110.653 152.77 110.472 152.989 110.25 153.161C110.042 153.323 109.802 153.439 109.545 153.501C109.294 153.565 109.036 153.599 108.777 153.601C108.518 153.6 108.26 153.566 108.009 153.501C107.749 153.44 107.504 153.324 107.292 153.161C107.077 152.985 106.901 152.767 106.776 152.519C106.634 152.198 106.565 151.85 106.574 151.499V150.794ZM109.444 150.794C109.47 150.682 109.47 150.566 109.444 150.454C109.409 150.363 109.353 150.281 109.281 150.215C109.219 150.159 109.146 150.116 109.067 150.089C108.987 150.078 108.907 150.078 108.827 150.089C108.748 150.076 108.667 150.076 108.588 150.089C108.508 150.113 108.434 150.156 108.374 150.215C108.302 150.281 108.246 150.363 108.211 150.454C108.192 150.567 108.192 150.682 108.211 150.794V151.625C108.192 151.742 108.192 151.861 108.211 151.978C108.246 152.065 108.302 152.143 108.374 152.204C108.433 152.267 108.507 152.315 108.588 152.343C108.667 152.356 108.748 152.356 108.827 152.343C108.907 152.355 108.987 152.355 109.067 152.343C109.147 152.311 109.219 152.264 109.281 152.204C109.353 152.143 109.409 152.065 109.444 151.978C109.469 151.862 109.469 151.741 109.444 151.625V150.794Z" fill="#404040"/>
<path d="M111.671 153.45V149.472C111.651 149.364 111.651 149.254 111.671 149.145C111.71 149.053 111.77 148.971 111.847 148.906C111.914 148.841 111.996 148.793 112.086 148.768C112.182 148.749 112.28 148.749 112.375 148.768C112.52 148.769 112.662 148.804 112.791 148.868C112.918 148.945 113.02 149.06 113.08 149.196C113.217 149.065 113.374 148.959 113.546 148.881C113.717 148.806 113.901 148.768 114.087 148.768H114.264H114.44C114.512 148.793 114.579 148.832 114.635 148.884C114.691 148.936 114.736 148.999 114.767 149.07C114.842 149.217 114.868 149.385 114.843 149.548C114.825 149.714 114.743 149.868 114.616 149.976C114.497 150.079 114.346 150.137 114.188 150.14H113.836C113.654 150.137 113.478 150.205 113.345 150.329C113.281 150.384 113.229 150.453 113.194 150.53C113.181 150.613 113.181 150.698 113.194 150.782V153.45H111.671Z" fill="#404040"/>
<path d="M115.308 153.451V149.473C115.277 149.366 115.277 149.253 115.308 149.146C115.343 149.055 115.399 148.973 115.472 148.907C115.544 148.841 115.63 148.794 115.724 148.768C115.815 148.75 115.909 148.75 116.001 148.768C116.145 148.769 116.287 148.803 116.416 148.869C116.543 148.941 116.644 149.051 116.705 149.184C116.846 149.046 117.013 148.939 117.196 148.869C117.375 148.792 117.569 148.758 117.763 148.768C117.99 148.768 118.216 148.806 118.43 148.882C118.652 148.967 118.848 149.111 118.996 149.297C119.158 149.131 119.35 148.998 119.563 148.907C119.814 148.805 120.085 148.758 120.356 148.768C120.59 148.77 120.823 148.803 121.048 148.869C121.262 148.942 121.459 149.058 121.627 149.209C121.807 149.394 121.94 149.618 122.017 149.863C122.118 150.181 122.169 150.512 122.168 150.845V153.514H120.608V150.757C120.625 150.653 120.625 150.547 120.608 150.442C120.584 150.359 120.536 150.284 120.469 150.229C120.42 150.169 120.354 150.125 120.28 150.103H120.092H119.89C119.816 150.125 119.75 150.169 119.701 150.229C119.641 150.29 119.594 150.362 119.563 150.442C119.544 150.547 119.544 150.653 119.563 150.757V153.514H118.065V150.757C118.083 150.653 118.083 150.547 118.065 150.442C118.032 150.363 117.985 150.291 117.926 150.229C117.873 150.174 117.809 150.131 117.738 150.103H117.536H117.347C117.277 150.125 117.212 150.164 117.159 150.216C117.095 150.269 117.047 150.339 117.02 150.417C117.001 150.517 117.001 150.62 117.02 150.72V153.514L115.308 153.451Z" fill="#404040"/>
<path d="M124.863 150.417C124.851 150.342 124.851 150.265 124.863 150.19C124.878 150.112 124.912 150.038 124.963 149.976C125.012 149.913 125.077 149.865 125.152 149.838C125.247 149.813 125.347 149.813 125.442 149.838H126.348V149.045C126.339 148.943 126.352 148.841 126.387 148.745C126.421 148.65 126.477 148.563 126.549 148.491C126.686 148.376 126.862 148.318 127.04 148.327C127.219 148.315 127.395 148.374 127.531 148.491C127.605 148.562 127.662 148.649 127.699 148.744C127.736 148.84 127.752 148.942 127.745 149.045V149.838H128.563C128.654 149.813 128.75 149.813 128.84 149.838C128.917 149.868 128.986 149.915 129.042 149.976C129.083 150.044 129.116 150.116 129.142 150.19C129.154 150.265 129.154 150.342 129.142 150.417C129.154 150.492 129.154 150.568 129.142 150.643C129.116 150.718 129.083 150.79 129.042 150.857C128.983 150.918 128.915 150.97 128.84 151.008C128.751 151.04 128.653 151.04 128.563 151.008H127.745V151.814C127.754 151.914 127.741 152.014 127.706 152.108C127.671 152.201 127.616 152.286 127.544 152.355C127.405 152.469 127.232 152.531 127.053 152.531C126.873 152.533 126.699 152.47 126.562 152.355C126.488 152.287 126.431 152.202 126.394 152.109C126.357 152.015 126.341 151.915 126.348 151.814V151.008H125.53C125.436 151.039 125.334 151.039 125.24 151.008C125.164 150.977 125.099 150.924 125.051 150.857C125 150.796 124.966 150.722 124.951 150.643C124.939 150.568 124.939 150.492 124.951 150.417H124.863Z" fill="#404040"/>
<path d="M133.283 151.173C133.281 151.332 133.311 151.491 133.371 151.638C133.423 151.766 133.5 151.882 133.598 151.978C133.699 152.064 133.814 152.132 133.938 152.179C134.071 152.199 134.207 152.199 134.341 152.179H134.794C134.911 152.155 135.025 152.117 135.134 152.066L135.322 151.978C135.393 151.965 135.466 151.965 135.536 151.978C135.655 151.941 135.783 151.941 135.901 151.978C136.025 152.031 136.127 152.124 136.191 152.242C136.235 152.311 136.265 152.388 136.279 152.469C136.298 152.548 136.298 152.63 136.279 152.708C136.235 152.863 136.142 153 136.015 153.098C135.789 153.278 135.527 153.407 135.247 153.476C134.959 153.551 134.663 153.589 134.366 153.589C134.038 153.592 133.712 153.549 133.397 153.463C133.089 153.387 132.801 153.246 132.553 153.048C132.307 152.854 132.105 152.61 131.962 152.331C131.811 151.99 131.738 151.62 131.748 151.248V149.675C131.735 149.306 131.808 148.94 131.962 148.605C132.097 148.317 132.3 148.067 132.553 147.875C132.801 147.677 133.089 147.535 133.397 147.459C133.712 147.373 134.038 147.331 134.366 147.333C134.663 147.323 134.96 147.357 135.247 147.434C135.463 147.483 135.668 147.573 135.851 147.698C136 147.8 136.114 147.945 136.178 148.114C136.192 148.197 136.192 148.282 136.178 148.365C136.168 148.451 136.138 148.533 136.09 148.605C136.03 148.733 135.921 148.832 135.788 148.882C135.666 148.925 135.533 148.925 135.411 148.882C135.327 148.87 135.246 148.844 135.171 148.806L134.983 148.718C134.894 148.681 134.801 148.656 134.706 148.642H134.315C134.182 148.643 134.049 148.669 133.925 148.718C133.799 148.76 133.683 148.829 133.585 148.919C133.485 149.009 133.408 149.121 133.359 149.247C133.293 149.393 133.263 149.552 133.271 149.712L133.283 151.173Z" fill="#404040"/>
<path d="M136.794 150.794C136.785 150.448 136.854 150.104 136.995 149.787C137.12 149.535 137.295 149.313 137.511 149.133C137.723 148.977 137.962 148.862 138.216 148.793C138.472 148.733 138.734 148.703 138.997 148.705C139.255 148.702 139.513 148.732 139.764 148.793C140.023 148.859 140.267 148.975 140.482 149.133C140.698 149.313 140.873 149.535 140.998 149.787C141.139 150.104 141.208 150.448 141.199 150.794V151.499C141.208 151.85 141.139 152.198 140.998 152.519C140.873 152.767 140.697 152.985 140.482 153.161C140.27 153.324 140.025 153.44 139.764 153.501C139.514 153.566 139.256 153.6 138.997 153.601C138.737 153.599 138.48 153.565 138.229 153.501C137.972 153.439 137.732 153.323 137.524 153.161C137.301 152.989 137.121 152.77 136.995 152.519C136.854 152.198 136.785 151.85 136.794 151.499V150.794ZM139.676 150.794C139.695 150.682 139.695 150.567 139.676 150.454C139.641 150.366 139.59 150.285 139.525 150.215C139.459 150.159 139.382 150.116 139.299 150.089C139.219 150.076 139.139 150.076 139.059 150.089C138.981 150.072 138.899 150.072 138.82 150.089C138.742 150.119 138.67 150.162 138.606 150.215C138.537 150.282 138.486 150.364 138.455 150.454C138.424 150.566 138.424 150.683 138.455 150.794V151.625C138.424 151.741 138.424 151.862 138.455 151.978C138.486 152.065 138.538 152.142 138.606 152.204C138.67 152.262 138.742 152.308 138.82 152.343C138.9 152.355 138.98 152.355 139.059 152.343C139.139 152.356 139.219 152.356 139.299 152.343C139.383 152.312 139.46 152.265 139.525 152.204C139.59 152.139 139.641 152.062 139.676 151.978C139.695 151.861 139.695 151.742 139.676 151.625V150.794Z" fill="#404040"/>
<path d="M141.895 153.451V149.473C141.896 149.361 141.917 149.251 141.957 149.146C142.002 149.057 142.061 148.976 142.134 148.907C142.203 148.844 142.284 148.797 142.373 148.768C142.469 148.75 142.567 148.75 142.662 148.768C142.807 148.769 142.949 148.803 143.078 148.869C143.205 148.941 143.306 149.051 143.367 149.184C143.519 149.048 143.694 148.942 143.883 148.869C144.074 148.804 144.274 148.77 144.475 148.768C144.706 148.763 144.936 148.797 145.155 148.869C145.365 148.928 145.555 149.041 145.709 149.196C145.873 149.383 145.997 149.602 146.074 149.838C146.17 150.165 146.216 150.505 146.212 150.845V153.514H144.639V150.757C144.664 150.65 144.664 150.538 144.639 150.43C144.6 150.354 144.553 150.282 144.5 150.216C144.44 150.166 144.372 150.128 144.299 150.103C144.232 150.091 144.164 150.091 144.097 150.103C144.031 150.089 143.962 150.089 143.896 150.103C143.821 150.125 143.753 150.164 143.695 150.216C143.633 150.279 143.582 150.351 143.544 150.43C143.518 150.538 143.518 150.65 143.544 150.757V153.514L141.895 153.451Z" fill="#404040"/>
<path d="M147.483 150.115H147.231C147.138 150.123 147.045 150.111 146.957 150.078C146.87 150.046 146.792 149.994 146.727 149.926C146.622 149.809 146.564 149.656 146.564 149.498C146.552 149.423 146.552 149.347 146.564 149.272C146.586 149.197 146.625 149.128 146.677 149.07C146.737 149.006 146.81 148.955 146.891 148.919C146.987 148.88 147.089 148.859 147.193 148.856H147.445V148.076C147.427 147.963 147.427 147.848 147.445 147.736C147.484 147.644 147.545 147.562 147.621 147.497C147.689 147.439 147.765 147.392 147.848 147.358C147.944 147.346 148.041 147.346 148.137 147.358H148.414C148.499 147.395 148.579 147.441 148.653 147.497C148.722 147.566 148.777 147.647 148.817 147.736C148.842 147.844 148.842 147.955 148.817 148.063V148.856H149.27C149.37 148.838 149.472 148.838 149.572 148.856C149.649 148.892 149.718 148.943 149.774 149.007C149.832 149.068 149.875 149.141 149.899 149.221C149.911 149.296 149.911 149.373 149.899 149.448C149.9 149.604 149.846 149.755 149.748 149.876C149.682 149.944 149.601 149.996 149.512 150.028C149.422 150.061 149.327 150.073 149.232 150.065H149.006V151.94C149.006 152.066 149.031 152.142 149.081 152.167C149.135 152.182 149.191 152.182 149.245 152.167C149.299 152.18 149.355 152.18 149.408 152.167H149.585C149.707 152.166 149.827 152.206 149.925 152.28C150.016 152.358 150.078 152.464 150.101 152.582C150.151 152.716 150.151 152.864 150.101 152.998C150.047 153.113 149.964 153.212 149.862 153.287C149.759 153.35 149.649 153.401 149.534 153.438C149.405 153.456 149.274 153.456 149.144 153.438C148.915 153.444 148.687 153.419 148.464 153.363C148.279 153.314 148.106 153.224 147.961 153.098C147.821 152.965 147.713 152.801 147.646 152.62C147.569 152.385 147.535 152.137 147.546 151.89L147.483 150.115Z" fill="#404040"/>
<path d="M152.783 153.589C152.503 153.583 152.224 153.545 151.952 153.476C151.68 153.408 151.424 153.289 151.197 153.124C150.968 152.956 150.782 152.736 150.656 152.482C150.51 152.17 150.437 151.831 150.442 151.487V150.82C150.439 150.474 150.507 150.131 150.643 149.813C150.768 149.561 150.943 149.338 151.159 149.158C151.371 149.003 151.61 148.888 151.864 148.819C152.106 148.754 152.356 148.72 152.607 148.718C152.869 148.715 153.132 148.745 153.387 148.806C153.637 148.869 153.867 148.994 154.054 149.171C154.269 149.374 154.432 149.624 154.533 149.901C154.662 150.308 154.722 150.733 154.709 151.16C154.714 151.235 154.714 151.311 154.709 151.386C154.709 151.487 154.709 151.563 154.709 151.626H151.977C151.974 151.737 152.004 151.847 152.065 151.94C152.117 152.029 152.19 152.103 152.279 152.154C152.363 152.214 152.457 152.257 152.556 152.28C152.652 152.293 152.75 152.293 152.846 152.28H153.274L153.576 152.205H153.752H153.928C154.048 152.173 154.174 152.173 154.293 152.205C154.349 152.224 154.4 152.254 154.444 152.293C154.481 152.339 154.511 152.39 154.533 152.444C154.551 152.527 154.551 152.613 154.533 152.696C154.551 152.779 154.551 152.864 154.533 152.947C154.443 153.116 154.308 153.256 154.142 153.35L153.916 153.451L153.588 153.552L153.211 153.627H152.821L152.783 153.589ZM152.607 149.939C152.527 149.927 152.447 149.927 152.368 149.939C152.29 149.964 152.218 150.002 152.154 150.052C152.092 150.111 152.041 150.179 152.002 150.254C151.985 150.358 151.985 150.464 152.002 150.568H153.261C153.279 150.464 153.279 150.358 153.261 150.254C153.231 150.18 153.189 150.112 153.135 150.052C153.076 150.003 153.007 149.964 152.934 149.939C152.83 149.92 152.723 149.92 152.619 149.939H152.607Z" fill="#404040"/>
<path d="M155.389 153.451V149.473C155.388 149.359 155.414 149.248 155.464 149.146C155.499 149.054 155.555 148.972 155.628 148.907C155.697 148.844 155.778 148.797 155.867 148.768C155.963 148.751 156.061 148.751 156.157 148.768C156.301 148.769 156.443 148.803 156.572 148.869C156.699 148.941 156.8 149.051 156.861 149.183C157.013 149.048 157.188 148.941 157.378 148.869C157.568 148.804 157.768 148.77 157.969 148.768C158.2 148.763 158.43 148.797 158.649 148.869C158.859 148.928 159.05 149.041 159.203 149.196C159.365 149.384 159.489 149.602 159.568 149.838C159.664 150.165 159.711 150.504 159.706 150.845V153.514H158.145V150.757C158.144 150.645 158.123 150.534 158.082 150.43C158.044 150.354 157.997 150.282 157.944 150.216C157.884 150.166 157.816 150.128 157.743 150.102C157.676 150.089 157.608 150.089 157.541 150.102C157.475 150.089 157.406 150.089 157.34 150.102C157.265 150.125 157.196 150.164 157.138 150.216C157.077 150.279 157.026 150.351 156.987 150.43C156.968 150.538 156.968 150.649 156.987 150.757V153.514L155.389 153.451Z" fill="#404040"/>
<path d="M160.977 150.115H160.725C160.63 150.123 160.535 150.111 160.446 150.078C160.356 150.046 160.276 149.994 160.209 149.926C160.107 149.807 160.053 149.654 160.058 149.498C160.046 149.423 160.046 149.346 160.058 149.271C160.075 149.195 160.114 149.125 160.171 149.07C160.229 149.003 160.302 148.951 160.385 148.919C160.481 148.88 160.584 148.859 160.687 148.856H160.939V148.076C160.921 147.963 160.921 147.848 160.939 147.736C160.983 147.65 161.043 147.573 161.115 147.509C161.184 147.446 161.266 147.399 161.354 147.371C161.446 147.352 161.54 147.352 161.631 147.371C161.723 147.353 161.817 147.353 161.908 147.371C161.997 147.399 162.078 147.446 162.147 147.509C162.22 147.573 162.279 147.65 162.324 147.736C162.341 147.848 162.341 147.963 162.324 148.076V148.856H162.764C162.872 148.857 162.979 148.879 163.079 148.919C163.154 148.958 163.222 149.009 163.28 149.07C163.332 149.128 163.371 149.197 163.394 149.271C163.406 149.346 163.406 149.423 163.394 149.498C163.398 149.654 163.344 149.807 163.242 149.926C163.176 149.994 163.095 150.046 163.006 150.078C162.916 150.111 162.821 150.123 162.726 150.115H162.286V152.003C162.273 152.04 162.273 152.08 162.286 152.116C162.302 152.156 162.323 152.195 162.349 152.229C162.407 152.242 162.467 152.242 162.525 152.229H162.852H163.028C163.151 152.229 163.271 152.268 163.368 152.343C163.417 152.378 163.457 152.424 163.488 152.476C163.518 152.528 163.537 152.585 163.545 152.645C163.589 152.78 163.589 152.925 163.545 153.06C163.493 153.181 163.405 153.282 163.293 153.35C163.19 153.413 163.08 153.463 162.966 153.501C162.836 153.52 162.705 153.52 162.575 153.501C162.346 153.503 162.117 153.473 161.896 153.413C161.714 153.362 161.547 153.272 161.405 153.148C161.262 153.017 161.154 152.853 161.09 152.67C161.015 152.434 160.976 152.188 160.977 151.94V150.115Z" fill="#404040"/>
<path d="M165.47 150.166C165.47 150.254 165.47 150.317 165.634 150.367C165.831 150.432 166.033 150.483 166.238 150.518H166.376H166.515C166.91 150.597 167.266 150.81 167.522 151.123C167.745 151.446 167.831 151.844 167.761 152.23C167.733 152.437 167.66 152.634 167.547 152.809C167.424 152.972 167.27 153.109 167.094 153.212C166.904 153.328 166.695 153.409 166.477 153.451C166.23 153.511 165.976 153.541 165.722 153.539H165.319H164.903C164.766 153.509 164.631 153.467 164.501 153.413C164.382 153.363 164.272 153.296 164.173 153.212C164.049 153.101 163.957 152.957 163.909 152.797C163.89 152.714 163.89 152.628 163.909 152.545C163.924 152.459 163.958 152.377 164.01 152.306C164.063 152.228 164.137 152.167 164.224 152.13C164.316 152.118 164.409 152.118 164.501 152.13C164.595 152.099 164.696 152.099 164.79 152.13L164.992 152.243C165.102 152.303 165.221 152.346 165.344 152.369C165.495 152.381 165.646 152.381 165.797 152.369C165.911 152.369 166.023 152.343 166.124 152.293L166.213 152.218C166.217 152.18 166.217 152.142 166.213 152.104C166.213 152.016 166.213 151.941 165.973 151.89C165.75 151.822 165.523 151.768 165.294 151.727H165.13H164.979C164.723 151.661 164.485 151.536 164.287 151.362C164.129 151.225 164.008 151.053 163.934 150.858C163.89 150.663 163.89 150.461 163.934 150.266C163.947 150.07 163.999 149.877 164.085 149.7C164.163 149.546 164.265 149.406 164.387 149.285C164.515 149.171 164.659 149.078 164.815 149.008C164.976 148.934 165.145 148.88 165.319 148.844C165.507 148.825 165.697 148.825 165.885 148.844C166.148 148.837 166.41 148.863 166.666 148.92C166.848 148.97 167.025 149.038 167.194 149.121C167.345 149.205 167.471 149.326 167.559 149.473C167.607 149.545 167.637 149.627 167.648 149.713C167.666 149.791 167.666 149.873 167.648 149.952C167.631 150.016 167.601 150.076 167.559 150.128C167.523 150.179 167.476 150.222 167.421 150.254C167.309 150.314 167.183 150.344 167.056 150.342H166.88L166.741 150.279L166.565 150.191H166.364H166.137H165.936C165.842 150.16 165.74 150.16 165.646 150.191C165.611 150.209 165.581 150.235 165.558 150.266C165.545 150.299 165.545 150.335 165.558 150.367L165.47 150.166Z" fill="#404040"/>
<path d="M170.203 150.417C170.196 150.337 170.196 150.257 170.203 150.178C170.228 150.104 170.266 150.036 170.316 149.976C170.367 149.913 170.431 149.861 170.505 149.825C170.6 149.806 170.699 149.806 170.794 149.825H171.663V149.032C171.654 148.93 171.669 148.827 171.706 148.731C171.743 148.635 171.801 148.549 171.877 148.478C172.015 148.365 172.189 148.303 172.368 148.302C172.547 148.303 172.72 148.365 172.859 148.478C172.934 148.549 172.992 148.635 173.029 148.731C173.066 148.827 173.081 148.93 173.073 149.032V149.825H173.891C173.986 149.806 174.085 149.806 174.18 149.825C174.254 149.861 174.318 149.913 174.369 149.976C174.419 150.034 174.454 150.103 174.47 150.178C174.482 150.253 174.482 150.329 174.47 150.404C174.483 150.484 174.483 150.564 174.47 150.644C174.455 150.722 174.42 150.796 174.369 150.858C174.318 150.921 174.254 150.973 174.18 151.009C174.089 151.032 173.994 151.032 173.903 151.009H173.06V151.802C173.069 151.904 173.055 152.007 173.018 152.104C172.981 152.2 172.922 152.286 172.846 152.355C172.71 152.473 172.534 152.531 172.355 152.519C172.177 152.529 172.001 152.47 171.864 152.355C171.79 152.284 171.733 152.198 171.696 152.102C171.659 152.007 171.643 151.904 171.65 151.802V151.009H170.832C170.741 151.032 170.646 151.032 170.555 151.009C170.482 150.973 170.417 150.921 170.366 150.858C170.316 150.793 170.278 150.721 170.253 150.644C170.23 150.57 170.213 150.494 170.203 150.417Z" fill="#404040"/>
<path d="M178.624 151.173C178.622 151.332 178.652 151.491 178.712 151.638C178.768 151.766 178.85 151.882 178.951 151.978C179.048 152.064 179.158 152.132 179.279 152.179C179.412 152.199 179.548 152.199 179.681 152.179H180.134C180.256 152.155 180.374 152.117 180.487 152.066L180.663 151.978C180.734 151.967 180.806 151.967 180.877 151.978C180.996 151.941 181.123 151.941 181.242 151.978C181.368 152.027 181.472 152.121 181.532 152.242C181.576 152.311 181.606 152.388 181.62 152.469C181.632 152.548 181.632 152.629 181.62 152.708C181.566 152.862 181.47 152.997 181.343 153.098C181.117 153.278 180.855 153.407 180.575 153.476C180.287 153.552 179.991 153.59 179.694 153.589C179.367 153.592 179.041 153.549 178.725 153.463C178.42 153.39 178.136 153.248 177.894 153.048C177.644 152.855 177.438 152.61 177.29 152.331C177.139 151.99 177.066 151.62 177.076 151.248V149.675C177.063 149.306 177.136 148.94 177.29 148.605C177.434 148.319 177.64 148.07 177.894 147.875C178.136 147.675 178.42 147.533 178.725 147.459C179.041 147.373 179.367 147.331 179.694 147.333C179.995 147.323 180.296 147.357 180.588 147.434C180.803 147.485 181.008 147.575 181.192 147.698C181.334 147.805 181.443 147.948 181.507 148.114C181.526 148.197 181.526 148.283 181.507 148.365C181.496 148.451 181.466 148.533 181.418 148.605C181.358 148.733 181.249 148.832 181.116 148.882C180.994 148.925 180.861 148.925 180.739 148.882C180.655 148.87 180.574 148.844 180.5 148.806L180.323 148.718C180.23 148.681 180.133 148.656 180.034 148.642H179.656C179.518 148.642 179.382 148.668 179.253 148.718C179.127 148.76 179.011 148.829 178.913 148.919C178.813 149.009 178.736 149.121 178.687 149.247C178.628 149.395 178.598 149.553 178.599 149.712L178.624 151.173Z" fill="#404040"/>
<path d="M182.149 150.794C182.136 150.449 182.2 150.105 182.337 149.787C182.462 149.535 182.638 149.313 182.853 149.133C183.069 148.975 183.312 148.859 183.571 148.793C183.822 148.733 184.08 148.703 184.339 148.705C184.602 148.702 184.864 148.732 185.119 148.793C185.373 148.862 185.612 148.977 185.824 149.133C186.047 149.306 186.224 149.53 186.34 149.787C186.488 150.102 186.557 150.447 186.542 150.794V151.499C186.557 151.85 186.488 152.2 186.34 152.519C186.224 152.772 186.047 152.993 185.824 153.161C185.615 153.321 185.375 153.437 185.119 153.501C184.864 153.566 184.602 153.6 184.339 153.601C184.08 153.599 183.822 153.565 183.571 153.501C183.315 153.437 183.075 153.321 182.866 153.161C182.644 152.993 182.466 152.772 182.35 152.519C182.202 152.2 182.133 151.85 182.149 151.499V150.794ZM185.018 150.794C185.043 150.682 185.043 150.566 185.018 150.454C184.983 150.366 184.932 150.285 184.867 150.215C184.804 150.162 184.731 150.119 184.653 150.089C184.574 150.078 184.494 150.078 184.414 150.089C184.331 150.071 184.245 150.071 184.163 150.089C184.085 150.119 184.012 150.162 183.949 150.215C183.884 150.285 183.833 150.366 183.798 150.454C183.751 150.562 183.73 150.678 183.735 150.794V151.625C183.73 151.746 183.751 151.866 183.798 151.978C183.833 152.062 183.884 152.139 183.949 152.204C184.012 152.262 184.084 152.308 184.163 152.343C184.246 152.356 184.331 152.356 184.414 152.343C184.494 152.355 184.574 152.355 184.653 152.343C184.732 152.308 184.804 152.262 184.867 152.204C184.932 152.139 184.983 152.062 185.018 151.978C185.044 151.862 185.044 151.741 185.018 151.625V150.794Z" fill="#404040"/>
<path d="M187.246 153.45V149.472C187.215 149.366 187.215 149.252 187.246 149.145C187.285 149.056 187.341 148.975 187.409 148.906C187.483 148.843 187.569 148.796 187.661 148.768C187.757 148.749 187.855 148.749 187.951 148.768C188.091 148.77 188.229 148.804 188.353 148.868C188.48 148.941 188.581 149.051 188.643 149.183C188.783 149.046 188.95 148.939 189.134 148.868C189.312 148.791 189.506 148.757 189.7 148.768C189.927 148.768 190.153 148.806 190.367 148.881C190.59 148.966 190.786 149.11 190.934 149.296C191.095 149.13 191.288 148.997 191.5 148.906C191.752 148.805 192.022 148.757 192.293 148.768C192.528 148.769 192.761 148.803 192.986 148.868C193.2 148.941 193.397 149.057 193.565 149.208C193.744 149.393 193.878 149.617 193.955 149.863C194.067 150.177 194.118 150.511 194.106 150.845V153.513H192.545V150.756C192.563 150.652 192.563 150.546 192.545 150.442C192.522 150.358 192.473 150.283 192.407 150.228C192.358 150.168 192.292 150.124 192.218 150.102H192.029H191.828C191.755 150.127 191.69 150.171 191.639 150.228C191.579 150.289 191.531 150.362 191.5 150.442C191.481 150.546 191.481 150.652 191.5 150.756V153.513H190.002V150.756C190.021 150.652 190.021 150.546 190.002 150.442C189.974 150.36 189.927 150.287 189.864 150.228C189.81 150.173 189.746 150.13 189.675 150.102H189.474H189.285C189.214 150.124 189.149 150.163 189.096 150.215C189.036 150.272 188.989 150.34 188.958 150.417C188.939 150.516 188.939 150.619 188.958 150.719V153.513L187.246 153.45Z" fill="#404040"/>
<path d="M194.901 153.451V149.473C194.882 149.365 194.882 149.254 194.901 149.146C194.945 149.057 195.005 148.976 195.077 148.907C195.146 148.844 195.228 148.797 195.316 148.768C195.412 148.75 195.51 148.75 195.606 148.768C195.75 148.769 195.893 148.803 196.021 148.869C196.148 148.941 196.249 149.051 196.311 149.184C196.449 149.049 196.611 148.942 196.789 148.869C196.972 148.79 197.17 148.756 197.368 148.768C197.595 148.768 197.821 148.807 198.035 148.882C198.256 148.97 198.451 149.113 198.602 149.297C198.761 149.128 198.954 148.995 199.168 148.907C199.42 148.804 199.69 148.757 199.961 148.768C200.196 148.77 200.429 148.803 200.654 148.869C200.865 148.939 201.059 149.055 201.22 149.209C201.403 149.393 201.541 149.617 201.623 149.864C201.725 150.18 201.772 150.513 201.761 150.845V153.514H200.2V150.757C200.225 150.654 200.225 150.546 200.2 150.443C200.177 150.359 200.129 150.284 200.062 150.229C200.013 150.169 199.947 150.125 199.873 150.103H199.684H199.483C199.409 150.125 199.343 150.169 199.294 150.229C199.23 150.287 199.182 150.36 199.156 150.443C199.109 150.541 199.088 150.649 199.093 150.757V153.514H197.595V150.757C197.607 150.653 197.607 150.547 197.595 150.443C197.563 150.36 197.511 150.287 197.444 150.229C197.395 150.169 197.329 150.125 197.255 150.103H197.066H196.877C196.806 150.125 196.742 150.164 196.688 150.216C196.625 150.269 196.577 150.339 196.55 150.417C196.504 150.511 196.482 150.615 196.487 150.72V153.514L194.901 153.451Z" fill="#404040"/>
<path d="M204.277 153.589C204.047 153.586 203.819 153.553 203.598 153.488C203.388 153.423 203.197 153.306 203.044 153.148C202.879 152.961 202.755 152.743 202.679 152.506C202.583 152.179 202.536 151.84 202.54 151.499V149.473C202.534 149.364 202.552 149.256 202.593 149.156C202.635 149.055 202.698 148.966 202.78 148.894C202.937 148.768 203.132 148.702 203.333 148.705C203.53 148.704 203.721 148.77 203.875 148.894C203.956 148.966 204.019 149.055 204.061 149.156C204.102 149.256 204.12 149.364 204.114 149.473V151.587C204.089 151.695 204.089 151.807 204.114 151.915C204.153 151.993 204.204 152.066 204.265 152.129C204.315 152.185 204.381 152.224 204.454 152.242C204.52 152.254 204.588 152.254 204.655 152.242C204.722 152.255 204.79 152.255 204.856 152.242C204.928 152.229 204.994 152.193 205.045 152.141C205.106 152.083 205.157 152.015 205.196 151.94C205.221 151.836 205.221 151.729 205.196 151.625V149.46C205.188 149.355 205.205 149.249 205.244 149.15C205.283 149.052 205.344 148.964 205.423 148.894C205.575 148.768 205.767 148.701 205.964 148.705C206.161 148.701 206.353 148.768 206.505 148.894C206.584 148.964 206.645 149.052 206.684 149.15C206.724 149.249 206.74 149.355 206.732 149.46V153.45H205.473L205.385 152.959C205.245 153.153 205.059 153.308 204.844 153.412C204.612 153.526 204.359 153.586 204.101 153.589H204.277Z" fill="#404040"/>
<path d="M207.602 153.451V149.473C207.603 149.361 207.624 149.251 207.665 149.146C207.709 149.057 207.768 148.976 207.841 148.907C207.91 148.844 207.991 148.797 208.08 148.768C208.176 148.75 208.274 148.75 208.369 148.768C208.514 148.769 208.656 148.803 208.785 148.869C208.912 148.941 209.013 149.051 209.074 149.184C209.226 149.048 209.401 148.942 209.59 148.869C209.781 148.804 209.981 148.77 210.182 148.768C210.413 148.763 210.643 148.797 210.862 148.869C211.072 148.928 211.262 149.041 211.416 149.196C211.58 149.383 211.704 149.602 211.781 149.838C211.877 150.165 211.923 150.505 211.919 150.845V153.514H210.358V150.757C210.383 150.65 210.383 150.538 210.358 150.43C210.329 150.349 210.282 150.276 210.22 150.216C210.16 150.166 210.092 150.128 210.018 150.103C209.952 150.089 209.883 150.089 209.817 150.103C209.75 150.091 209.682 150.091 209.616 150.103C209.542 150.128 209.474 150.166 209.414 150.216C209.353 150.279 209.302 150.351 209.263 150.43C209.244 150.538 209.244 150.649 209.263 150.757V153.514L207.602 153.451Z" fill="#404040"/>
<path d="M212.686 147.811C212.676 147.708 212.693 147.604 212.735 147.509C212.777 147.415 212.843 147.332 212.926 147.27C213.088 147.158 213.282 147.101 213.479 147.106C213.676 147.104 213.869 147.161 214.033 147.27C214.113 147.334 214.175 147.417 214.215 147.512C214.255 147.606 214.27 147.709 214.26 147.811C214.263 147.92 214.242 148.027 214.197 148.126C214.16 148.209 214.104 148.283 214.033 148.34C213.959 148.399 213.873 148.442 213.781 148.466H213.479C213.375 148.479 213.269 148.479 213.165 148.466C213.076 148.444 212.994 148.401 212.926 148.34C212.847 148.287 212.786 148.213 212.749 148.126C212.704 148.027 212.683 147.92 212.686 147.811ZM212.686 149.586C212.677 149.478 212.694 149.368 212.735 149.268C212.777 149.167 212.842 149.077 212.926 149.007C213.087 148.891 213.281 148.829 213.479 148.831C213.674 148.832 213.863 148.893 214.021 149.007C214.1 149.08 214.162 149.17 214.201 149.27C214.24 149.371 214.256 149.479 214.247 149.586V153.514H212.686V149.586Z" fill="#404040"/>
<path d="M215.443 149.938H215.191C215.097 149.948 215.001 149.936 214.912 149.903C214.822 149.871 214.741 149.818 214.675 149.75C214.573 149.631 214.52 149.478 214.524 149.322C214.518 149.246 214.518 149.17 214.524 149.095C214.549 149.022 214.588 148.953 214.637 148.894C214.7 148.832 214.773 148.781 214.851 148.743C214.955 148.717 215.063 148.717 215.166 148.743H215.418V147.95C215.388 147.838 215.388 147.721 215.418 147.61C215.453 147.522 215.509 147.444 215.582 147.383C215.65 147.321 215.732 147.273 215.821 147.245C215.912 147.227 216.006 147.227 216.098 147.245C216.189 147.226 216.283 147.226 216.375 147.245C216.464 147.27 216.547 147.318 216.614 147.383C216.689 147.444 216.75 147.521 216.79 147.61C216.808 147.722 216.808 147.837 216.79 147.95V148.743H217.243C217.342 148.719 217.446 148.719 217.545 148.743C217.622 148.778 217.691 148.83 217.747 148.894C217.8 148.953 217.843 149.021 217.872 149.095C217.884 149.17 217.884 149.246 217.872 149.322C217.872 149.479 217.814 149.632 217.709 149.75C217.645 149.817 217.566 149.869 217.479 149.902C217.392 149.934 217.298 149.947 217.205 149.938H216.979V151.826C216.974 151.867 216.978 151.909 216.991 151.948C217.004 151.988 217.026 152.023 217.054 152.053C217.103 152.087 217.159 152.109 217.218 152.116H217.369H217.558C217.677 152.115 217.792 152.155 217.885 152.229C217.982 152.304 218.049 152.412 218.074 152.531C218.124 152.67 218.124 152.821 218.074 152.959C218.022 153.076 217.934 153.174 217.822 153.236C217.724 153.299 217.618 153.35 217.507 153.387C217.378 153.406 217.247 153.406 217.117 153.387C216.888 153.391 216.659 153.361 216.437 153.299C216.252 153.251 216.079 153.16 215.934 153.035C215.79 152.905 215.682 152.74 215.619 152.557C215.542 152.321 215.508 152.074 215.519 151.826L215.443 149.938Z" fill="#404040"/>
<path d="M221.334 153.451C221.155 153.92 220.828 154.317 220.402 154.583C219.978 154.808 219.491 154.887 219.017 154.81C218.915 154.796 218.817 154.761 218.728 154.709C218.65 154.664 218.581 154.605 218.526 154.533C218.475 154.467 218.441 154.389 218.426 154.307C218.413 154.223 218.413 154.138 218.426 154.055C218.449 153.89 218.53 153.739 218.652 153.627C218.726 153.568 218.812 153.527 218.903 153.508C218.995 153.488 219.09 153.49 219.181 153.514C219.329 153.558 219.486 153.558 219.634 153.514C219.7 153.5 219.76 153.469 219.81 153.425C219.862 153.384 219.905 153.332 219.936 153.274L218.388 149.825C218.338 149.724 218.312 149.611 218.313 149.498C218.314 149.398 218.335 149.3 218.375 149.209C218.415 149.116 218.475 149.035 218.552 148.969C218.622 148.899 218.708 148.847 218.803 148.818C218.903 148.801 219.006 148.801 219.106 148.818C219.205 148.792 219.309 148.792 219.408 148.818C219.507 148.853 219.597 148.909 219.672 148.982C219.752 149.064 219.813 149.163 219.848 149.272L220.755 151.588L221.56 149.221C221.596 149.112 221.656 149.013 221.736 148.932C221.809 148.862 221.895 148.806 221.988 148.768C222.083 148.744 222.183 148.744 222.278 148.768C222.382 148.749 222.488 148.749 222.592 148.768C222.688 148.796 222.774 148.848 222.844 148.919C222.916 148.985 222.972 149.067 223.008 149.158C223.033 149.253 223.033 149.353 223.008 149.448C223.012 149.56 222.991 149.672 222.945 149.775L221.334 153.451Z" fill="#404040"/>
</g>
<path d="M55.6586 127.118C54.7985 125.805 54.2741 124.301 54.1315 122.738C53.9888 121.176 54.2322 119.602 54.8404 118.155C56.8922 113.007 62.5188 112.176 66.6098 112.365C70.7007 112.554 79.6253 113.951 88.0087 112.365L85.4911 116.141L71.3679 120.773H60.2908L56.8418 123.064L55.7845 125.23L55.6586 127.118Z" fill="url(#paint1_linear_7054_4697)"/>
<path d="M55.6596 127.118C55.6596 127.118 56.4149 122.158 63.338 122.788C70.2612 123.417 86.1215 125.016 87.9467 112.365C87.9467 112.365 83.3145 119.553 67.8066 117.4C67.7814 117.451 52.4372 115.349 55.6596 127.118Z" fill="url(#paint2_linear_7054_4697)"/>
<path d="M81.9282 128.728C86.5227 128.728 87.278 135.098 85.9059 139.478L84.7478 143.255C83.6182 146.83 81.3337 149.929 78.2527 152.066C75.1633 154.21 71.4461 155.26 67.6917 155.049C64.2122 154.986 60.7672 154.348 57.4957 153.161C50.1446 149.939 43.3599 142.94 44.6816 130.503C44.9104 127.318 45.8867 124.231 47.5313 121.492C49.1759 118.754 51.4425 116.442 54.1474 114.744C54.2133 114.725 54.283 114.725 54.3489 114.744C54.4207 114.757 54.4867 114.792 54.5377 114.844C54.5627 114.869 54.5823 114.898 54.5953 114.931C54.6083 114.963 54.6144 114.998 54.6132 115.033C54.6377 115.094 54.6377 115.161 54.6132 115.222C52.8006 117.828 48.6215 124.851 51.5922 131.875C51.5922 131.875 54.8649 145.47 68.9504 143.015C69.916 142.857 70.8289 142.468 71.6114 141.88C72.3939 141.293 73.0227 140.525 73.4442 139.642C73.4575 139.588 73.4575 139.532 73.4442 139.478C73.4551 139.429 73.4551 139.377 73.4442 139.327C73.4164 139.281 73.3775 139.242 73.3309 139.214C73.277 139.202 73.2212 139.202 73.1673 139.214H72.5882C71.8988 139.214 71.216 139.079 70.5788 138.816C69.9417 138.552 69.3627 138.166 68.8749 137.678C68.3766 137.185 67.9827 136.596 67.7167 135.948C67.4507 135.299 67.3181 134.603 67.3266 133.902C67.3276 133.211 67.4645 132.526 67.7294 131.888C67.9907 131.249 68.3806 130.671 68.8749 130.189C69.3595 129.698 69.9372 129.308 70.5742 129.043C71.2117 128.776 71.8972 128.643 72.5882 128.653L81.9282 128.728Z" fill="url(#paint3_linear_7054_4697)"/>
<path d="M72.9023 139.252C72.9023 139.252 86.7486 139.73 79.9639 150.807C79.9639 150.807 86.8996 145.621 86.6857 134.658C86.6857 134.658 86.6857 128.892 82.4059 128.641H71.933C71.933 128.641 67.1875 128.779 67.1875 133.487C67.1875 137.741 69.705 139.252 72.9023 139.252Z" fill="url(#paint4_linear_7054_4697)"/>
<path d="M245.127 133.764C245.129 119.139 242.25 104.656 236.654 91.1437C231.058 77.6311 222.856 65.3532 212.514 55.0109C202.173 44.6686 189.896 36.4646 176.384 30.8673C162.872 25.2701 148.39 22.3892 133.765 22.3892C-13.9755 28.255 -13.9251 239.286 133.765 245.126C148.389 245.126 162.87 242.246 176.381 236.649C189.893 231.053 202.169 222.85 212.51 212.509C222.851 202.168 231.054 189.892 236.65 176.381C242.247 162.87 245.127 148.388 245.127 133.764Z" stroke="#CCCCCC" stroke-width="2.51752" stroke-miterlimit="10" stroke-dasharray="3.76 3.76"/>
<path d="M249.39 87.7807C254.576 87.7807 258.781 83.5765 258.781 78.3903C258.781 73.2042 254.576 69 249.39 69C244.204 69 240 73.2042 240 78.3903C240 83.5765 244.204 87.7807 249.39 87.7807Z" fill="white" stroke="#0052C9" stroke-width="2.51752" stroke-miterlimit="10"/>
<defs>
<linearGradient id="paint0_linear_7054_4697" x1="0.964968" y1="133.764" x2="266.55" y2="133.764" gradientUnits="userSpaceOnUse">
<stop stop-color="#0052C9"/>
<stop offset="0.58" stop-color="#264777"/>
<stop offset="1" stop-color="#404040"/>
</linearGradient>
<linearGradient id="paint1_linear_7054_4697" x1="89.6828" y1="119.729" x2="50.5229" y2="119.729" gradientUnits="userSpaceOnUse">
<stop stop-color="#3F8CFC"/>
<stop offset="0.47" stop-color="#0F61D6"/>
<stop offset="0.57" stop-color="#0A51C1"/>
<stop offset="0.72" stop-color="#0441AC"/>
<stop offset="0.87" stop-color="#01379F"/>
<stop offset="1" stop-color="#00349B"/>
</linearGradient>
<linearGradient id="paint2_linear_7054_4697" x1="55.219" y1="119.742" x2="87.9467" y2="119.742" gradientUnits="userSpaceOnUse">
<stop stop-color="#3F8CFC"/>
<stop offset="0.47" stop-color="#0F61D6"/>
<stop offset="0.57" stop-color="#0A51C1"/>
<stop offset="0.72" stop-color="#0441AC"/>
<stop offset="0.87" stop-color="#01379F"/>
<stop offset="1" stop-color="#00349B"/>
</linearGradient>
<linearGradient id="paint3_linear_7054_4697" x1="44.5179" y1="134.972" x2="86.5227" y2="134.972" gradientUnits="userSpaceOnUse">
<stop stop-color="#3F8CFC"/>
<stop offset="0.47" stop-color="#0F61D6"/>
<stop offset="0.57" stop-color="#0A51C1"/>
<stop offset="0.72" stop-color="#0441AC"/>
<stop offset="0.87" stop-color="#01379F"/>
<stop offset="1" stop-color="#00349B"/>
</linearGradient>
<linearGradient id="paint4_linear_7054_4697" x1="86.2073" y1="144.023" x2="70.4603" y2="128.276" gradientUnits="userSpaceOnUse">
<stop stop-color="#3F8CFC"/>
<stop offset="0.47" stop-color="#0F61D6"/>
<stop offset="0.57" stop-color="#0A51C1"/>
<stop offset="0.72" stop-color="#0441AC"/>
<stop offset="0.87" stop-color="#01379F"/>
<stop offset="1" stop-color="#00349B"/>
</linearGradient>
</defs>
</svg>
