<svg width="1920" height="363" viewBox="0 0 1920 363" fill="none" xmlns="http://www.w3.org/2000/svg">
<path d="M-1 180.968H1920.5" stroke="#0052C9" stroke-width="1.44796" stroke-miterlimit="10"/>
<path d="M525.885 185.834C528.572 185.834 530.751 183.656 530.751 180.968C530.751 178.281 528.572 176.103 525.885 176.103C523.198 176.103 521.02 178.281 521.02 180.968C521.02 183.656 523.198 185.834 525.885 185.834Z" fill="white" stroke="#0052C9" stroke-width="2.89624" stroke-miterlimit="10"/>
<path d="M525.881 135.367V137.539" stroke="#9E9E9E" stroke-width="1.44812" stroke-miterlimit="10"/>
<path d="M525.881 142.39V169.079" stroke="#9E9E9E" stroke-width="1.44812" stroke-miterlimit="10" stroke-dasharray="4.85 4.85"/>
<path d="M525.881 171.498V173.67" stroke="#9E9E9E" stroke-width="1.44812" stroke-miterlimit="10"/>
<path d="M746.27 185.834C748.957 185.834 751.136 183.656 751.136 180.968C751.136 178.281 748.957 176.103 746.27 176.103C743.583 176.103 741.404 178.281 741.404 180.968C741.404 183.656 743.583 185.834 746.27 185.834Z" fill="white" stroke="#0052C9" stroke-width="2.89624" stroke-miterlimit="10"/>
<path d="M746.273 226.57V224.398" stroke="#9E9E9E" stroke-width="1.44812" stroke-miterlimit="10"/>
<path d="M746.273 219.546V192.872" stroke="#9E9E9E" stroke-width="1.44812" stroke-miterlimit="10" stroke-dasharray="4.85 4.85"/>
<path d="M746.273 190.439V188.267" stroke="#9E9E9E" stroke-width="1.44812" stroke-miterlimit="10"/>
<path d="M1179.35 185.834C1182.04 185.834 1184.21 183.656 1184.21 180.968C1184.21 178.281 1182.04 176.103 1179.35 176.103C1176.66 176.103 1174.48 178.281 1174.48 180.968C1174.48 183.656 1176.66 185.834 1179.35 185.834Z" fill="white" stroke="#0052C9" stroke-width="2.89624" stroke-miterlimit="10"/>
<path d="M1179.35 226.57V224.398" stroke="#9E9E9E" stroke-width="1.44812" stroke-miterlimit="10"/>
<path d="M1179.35 219.546V192.872" stroke="#9E9E9E" stroke-width="1.44812" stroke-miterlimit="10" stroke-dasharray="4.85 4.85"/>
<path d="M1179.35 190.439V188.267" stroke="#9E9E9E" stroke-width="1.44812" stroke-miterlimit="10"/>
<path d="M1397.69 185.834C1400.38 185.834 1402.56 183.656 1402.56 180.968C1402.56 178.281 1400.38 176.103 1397.69 176.103C1395.01 176.103 1392.83 178.281 1392.83 180.968C1392.83 183.656 1395.01 185.834 1397.69 185.834Z" fill="white" stroke="#0052C9" stroke-width="2.89624" stroke-miterlimit="10"/>
<path d="M1397.7 135.367V137.539" stroke="#9E9E9E" stroke-width="1.44812" stroke-miterlimit="10"/>
<path d="M1397.7 142.39V169.079" stroke="#9E9E9E" stroke-width="1.44812" stroke-miterlimit="10" stroke-dasharray="4.85 4.85"/>
<path d="M1397.7 171.498V173.67" stroke="#9E9E9E" stroke-width="1.44812" stroke-miterlimit="10"/>
<path d="M961 185.834C963.688 185.834 965.866 183.656 965.866 180.968C965.866 178.281 963.688 176.103 961 176.103C958.313 176.103 956.135 178.281 956.135 180.968C956.135 183.656 958.313 185.834 961 185.834Z" fill="white" stroke="#0052C9" stroke-width="2.89624" stroke-miterlimit="10"/>
<path d="M961 135.367V137.539" stroke="#9E9E9E" stroke-width="1.44812" stroke-miterlimit="10"/>
<path d="M961 142.39V169.079" stroke="#9E9E9E" stroke-width="1.44812" stroke-miterlimit="10" stroke-dasharray="4.85 4.85"/>
<path d="M961 171.498V173.67" stroke="#9E9E9E" stroke-width="1.44812" stroke-miterlimit="10"/>
<path d="M1480.88 5H1315.69C1310.89 5 1307 8.89008 1307 13.6887V39.8128C1307 44.6115 1310.89 48.5016 1315.69 48.5016H1480.88C1485.67 48.5016 1489.56 44.6115 1489.56 39.8128V13.6887C1489.56 8.89008 1485.67 5 1480.88 5Z" fill="#0052C9"/>
<rect x="1302.75" y="0.75" width="190.5" height="121.5" rx="9.25" stroke="#0052C9" stroke-width="1.5"/>
<path d="M1043.88 5H878.689C873.89 5 870 8.89008 870 13.6887V39.8128C870 44.6115 873.89 48.5016 878.689 48.5016H1043.88C1048.67 48.5016 1052.56 44.6115 1052.56 39.8128V13.6887C1052.56 8.89008 1048.67 5 1043.88 5Z" fill="#0052C9"/>
<rect x="865.75" y="0.75" width="190.5" height="121.5" rx="9.25" stroke="#0052C9" stroke-width="1.5"/>
<path d="M608.876 5H443.689C438.89 5 435 8.89008 435 13.6887V39.8128C435 44.6115 438.89 48.5016 443.689 48.5016H608.876C613.675 48.5016 617.565 44.6115 617.565 39.8128V13.6887C617.565 8.89008 613.675 5 608.876 5Z" fill="#0052C9"/>
<rect x="430.75" y="0.75" width="190.5" height="121.5" rx="9.25" stroke="#0052C9" stroke-width="1.5"/>
<path d="M828.876 244.776H663.689C658.89 244.776 655 248.667 655 253.465V279.589C655 284.388 658.89 288.278 663.689 288.278H828.876C833.675 288.278 837.565 284.388 837.565 279.589V253.465C837.565 248.667 833.675 244.776 828.876 244.776Z" fill="#0052C9"/>
<rect x="650.75" y="240.526" width="190.5" height="121.5" rx="9.25" stroke="#0052C9" stroke-width="1.5"/>
<path d="M1261.88 244.776H1096.69C1091.89 244.776 1088 248.667 1088 253.465V279.589C1088 284.388 1091.89 288.278 1096.69 288.278H1261.88C1266.67 288.278 1270.56 284.388 1270.56 279.589V253.465C1270.56 248.667 1266.67 244.776 1261.88 244.776Z" fill="#0052C9"/>
<rect x="1083.75" y="240.526" width="190.5" height="121.5" rx="9.25" stroke="#0052C9" stroke-width="1.5"/>
</svg>
