<svg width="192" height="123" viewBox="0 0 192 123" fill="none" xmlns="http://www.w3.org/2000/svg">
<path d="M178.876 5H13.6887C8.89008 5 5 8.89008 5 13.6887V39.8128C5 44.6115 8.89008 48.5016 13.6887 48.5016H178.876C183.675 48.5016 187.565 44.6115 187.565 39.8128V13.6887C187.565 8.89008 183.675 5 178.876 5Z" fill="#0052C9"/>
<path d="M62.5586 37H76.7227V33.6094H68.2734V33.5L71.2812 30.5742C75.3555 26.8828 76.4492 25.0371 76.4492 22.7812C76.4492 19.3496 73.6328 16.9297 69.3945 16.9297C65.2246 16.9297 62.3535 19.4043 62.3672 23.2734H66.2773C66.2637 21.373 67.4805 20.1973 69.3398 20.2109C71.1582 20.1973 72.4844 21.291 72.4844 23.0547C72.4844 24.627 71.4863 25.7207 69.6406 27.4844L62.5312 34.0195L62.5586 37ZM87.332 37.2734C92.2812 37.2734 95.2891 33.6094 95.2891 27.1016C95.2891 20.6348 92.2676 16.9297 87.332 16.9297C82.3965 16.9297 79.375 20.6348 79.375 27.1016C79.375 33.582 82.3691 37.2734 87.332 37.2734ZM83.5859 27.1016C83.5859 22.5762 85.0488 20.3066 87.332 20.293C89.6152 20.3066 91.0918 22.5762 91.0781 27.1016C91.0918 31.668 89.6289 33.8828 87.332 33.8828C85.0352 33.8828 83.5586 31.668 83.5859 27.1016ZM106.664 17.2031H102.781L97.8867 20.3203V23.957L102.426 21.1133H102.535V37H106.664V17.2031ZM118.914 37.2734C123.385 37.2871 126.42 34.4023 126.406 30.3828C126.42 26.6504 123.768 23.9844 120.199 23.9844C118.012 23.9844 116.057 25.0098 115.141 26.7734H114.949C114.977 22.877 116.385 20.457 119.078 20.457C120.678 20.457 121.812 21.3184 122.141 22.6992H126.188C125.791 19.4453 123.057 16.9297 119.078 16.9297C114.129 16.9297 110.943 20.8809 110.93 27.5664C110.916 34.8125 114.826 37.2598 118.914 37.2734ZM115.359 30.4922C115.387 28.5645 116.918 26.9785 118.941 26.9648C120.951 26.9785 122.414 28.5098 122.414 30.4922C122.414 32.4883 120.924 34.0332 118.887 34.0195C116.863 34.0332 115.387 32.4336 115.359 30.4922Z" fill="white"/>
<path d="M27.4531 73.6094C27.4727 77.3008 28.4688 80.3672 30.2656 82.9844H31.75C30.4316 81.041 29.2012 77.0957 29.1914 73.6094C29.2012 70.1328 30.4316 66.1777 31.75 64.2539H30.2656C28.4688 66.8613 27.4727 69.9277 27.4531 73.6094ZM41.9648 65.6797V65.5625H47.5117V64.3125H34.6797V65.5625H40.2461V65.6797C40.2363 68.0039 37.1504 69.9766 34.1328 70.4258L34.7383 71.6367C37.4043 71.1777 40.0508 69.7324 41.1055 67.6426C42.1602 69.7324 44.8066 71.1777 47.5117 71.6367L48.0781 70.4258C45.0508 69.9766 41.9551 68.0039 41.9648 65.6797ZM33.1953 74.3906H40.3242V80.582H41.8281V74.3906H49.0156V73.1211H33.1953V74.3906ZM54.8164 73.6094C54.7969 69.9277 53.8008 66.8613 52.0039 64.2539H50.5195C51.8379 66.1777 53.0684 70.1328 53.0781 73.6094C53.0684 77.0957 51.8379 81.041 50.5195 82.9844H52.0039C53.8008 80.3672 54.7969 77.3008 54.8164 73.6094ZM72.1602 63.2188H70.6953V80.582H72.1602V63.2188ZM57.3164 75.7188L58.2148 76.832C60.6367 75.4062 62.3164 73.6191 63.3613 71.5977H67.043V79.7031H68.5078V63.6875H67.043V70.3477H63.9277C64.5234 68.8047 64.7969 67.1543 64.7969 65.4453H58.0586V66.7148H63.2734C62.9805 70.3477 61.0859 73.4824 57.3164 75.7188ZM88.918 63.2383H87.3945V73.1602H88.918V63.2383ZM74.9922 68.2188C74.9824 70.6016 76.9062 72.2617 79.543 72.2617C82.1797 72.2617 84.084 70.6016 84.0938 68.2188C84.084 65.7969 82.1797 64.1562 79.543 64.1562C76.9062 64.1562 74.9824 65.7969 74.9922 68.2188ZM76.4961 68.2188C76.4766 66.5977 77.7559 65.4551 79.543 65.4648C81.3105 65.4551 82.5898 66.5977 82.5898 68.2188C82.5898 69.8301 81.3105 70.9629 79.543 70.9531C77.7559 70.9629 76.4766 69.8301 76.4961 68.2188ZM77.6289 80.3477H88.918V74.0977H77.6289V80.3477ZM79.1328 79.0977V75.3477H87.4141V79.0977H79.1328ZM106.203 63.2383H104.68V75.9336H106.203V63.2383ZM92.2773 68.707C92.2676 71.2363 94.2305 72.9941 96.8281 72.9844C99.4258 72.9941 101.369 71.2363 101.379 68.707C101.369 66.207 99.4258 64.459 96.8281 64.4492C94.2305 64.459 92.2676 66.207 92.2773 68.707ZM93.7812 68.707C93.7617 67.0078 95.0703 65.7969 96.8281 65.7969C98.5566 65.7969 99.875 67.0078 99.875 68.707C99.875 70.4355 98.5566 71.6367 96.8281 71.6367C95.0703 71.6367 93.7617 70.4355 93.7812 68.707ZM94.9922 80.2109H106.75V78.9219H96.5156V74.6445H94.9922V80.2109ZM117.805 65.7773V64.4492H116.203V65.7773C116.193 68.7656 112.824 71.3926 109.816 71.9688L110.52 73.2578C113.146 72.6426 115.891 70.7871 117.023 68.2383C118.146 70.7871 120.9 72.6523 123.527 73.2578L124.23 71.9688C121.213 71.4023 117.814 68.7559 117.805 65.7773ZM109.152 78.2188H125.051V76.9492H109.152V78.2188ZM145.852 63.2188H144.309V66.4219H140.441V67.6914H144.309V72.2031H145.852V63.2188ZM131.438 71.0117L132.277 72.2422C134.328 71.5 135.9 69.9863 136.643 68.0039C137.414 69.7617 138.947 71.1289 140.871 71.8125L141.691 70.6211C139.152 69.791 137.355 67.7012 137.375 65.4258V63.7852H135.871V65.4258C135.852 67.9648 134.055 70.1426 131.438 71.0117ZM134.602 74.3125H144.328V76.0508H134.641V80.3477H146.496V79.1172H136.145V77.2227H145.852V73.082H134.602V74.3125ZM163.078 63.2383H161.555V72.7695H163.078V63.2383ZM149.621 65.3477H156.027V67.5547H149.66V72.418H151.066C154.27 72.3984 156.643 72.3105 159.562 71.8516L159.387 70.582C156.564 71.041 154.25 71.1094 151.145 71.1289V68.7656H157.551V64.0781H149.621V65.3477ZM151.789 80.3477H163.078V73.6484H161.555V75.7188H153.332V73.6484H151.789V80.3477ZM153.332 79.0977V76.9492H161.555V79.0977H153.332ZM25.207 91.7656H12.375V92.9766H15.0508V96.3359H12.4336V97.5273H25.1484V96.3359H22.5312V92.9766H25.207V91.7656ZM10.8906 100.223H26.7109V98.9922H10.8906V100.223ZM12.8047 102.938H23.1758V104.441H12.8438V108.387H25.207V107.215H14.3672V105.555H24.6797V101.785H12.8047V102.938ZM16.5742 96.3359V92.9766H21.0078V96.3359H16.5742ZM42.9219 91.2383H41.457V95.7891H39.0156V91.5703H37.5898V101.57H39.0156V97.0586H41.457V103.074H42.9219V91.2383ZM28.9375 93.8555H34.0547V96.2773H28.9766V101.277H30.1094C32.6484 101.277 34.4844 101.199 36.7305 100.75L36.5547 99.5195C34.5039 99.9395 32.7461 100.047 30.4609 100.047V97.4492H35.5195V92.5859H28.9375V93.8555ZM30.3828 107.312L31.0078 108.504C33.5762 108.074 36.0566 106.736 37.1211 104.793C38.1758 106.736 40.6465 108.074 43.2344 108.504L43.8594 107.312C40.8125 106.844 37.8828 104.998 37.8828 102.703V102.254H36.3594V102.703C36.3398 104.998 33.4102 106.844 30.3828 107.312ZM61.2812 99.9883H54.1133V97.9766H59.7188V96.707H57.1016V93.0547H59.7773V91.7852H46.9453V93.0547H49.6211V96.707H47.0039V97.9766H52.5898V99.9883H45.4609V101.238H61.2812V99.9883ZM47.3945 108.348H59.3477V102.918H47.3945V108.348ZM48.918 107.098V104.109H57.8438V107.098H48.918ZM51.1445 96.707V93.0547H55.5781V96.707H51.1445ZM82.5898 91.2188H81.0859V98.2305H78.6836V91.6875H77.2188V107.723H78.6836V99.5H81.0859V108.582H82.5898V91.2188ZM67.7852 103.777L68.6836 104.852C73.6738 102.068 75.2266 97.8984 75.2461 93.4844H68.4492V94.7539H73.7422C73.4785 98.3477 71.8184 101.521 67.7852 103.777ZM87.2969 91.9609H85.793V99.5195H93.8789V91.9609H92.3555V94.4609H87.2969V91.9609ZM87.2969 98.2695V95.6523H92.3555V98.2695H87.2969ZM87.5508 102.254H97.1016V104.051H87.5898V108.387H99.2695V107.137H89.0938V105.223H98.625V101.023H87.5508V102.254ZM97.1016 100.203H98.625V96.2773H101.242V94.9883H98.625V91.2188H97.1016V100.203ZM123.234 100.047H107.336V101.316H114.641V104.871H116.184V101.316H123.234V100.047ZM109.133 95.1641C109.123 97.3027 111.555 98.6309 115.266 98.6211C118.977 98.6309 121.379 97.3027 121.379 95.1641C121.379 93.0059 118.977 91.6777 115.266 91.668C111.555 91.6777 109.123 93.0059 109.133 95.1641ZM109.387 108.211H121.457V106.902H110.93V103.133H109.387V108.211ZM110.773 95.1641C110.754 93.7773 112.561 92.9277 115.266 92.918C117.961 92.9277 119.758 93.7773 119.758 95.1641C119.758 96.5117 117.961 97.3711 115.266 97.3711C112.561 97.3711 110.754 96.5117 110.773 95.1641ZM129.426 92.2734C126.828 92.2637 124.904 93.9629 124.914 96.3945C124.904 98.8066 126.828 100.506 129.426 100.496C130.891 100.506 132.141 99.9492 132.941 99.0312H137.492V101.512H139.035V91.2188H137.492V93.7383H132.941C132.131 92.8203 130.891 92.2637 129.426 92.2734ZM126.379 96.3945C126.379 94.7441 127.648 93.5918 129.426 93.6016C131.145 93.5918 132.434 94.7441 132.434 96.3945C132.434 98.0059 131.145 99.1973 129.426 99.1875C127.648 99.1973 126.379 98.0059 126.379 96.3945ZM127.453 105.223C127.443 107.332 129.67 108.543 133.273 108.543C136.867 108.543 139.094 107.332 139.094 105.223C139.094 103.133 136.867 101.922 133.273 101.922C129.67 101.922 127.443 103.133 127.453 105.223ZM128.957 105.223C128.947 103.904 130.607 103.123 133.273 103.113C135.939 103.123 137.6 103.904 137.59 105.223C137.6 106.531 135.939 107.322 133.273 107.312C130.607 107.322 128.947 106.531 128.957 105.223ZM133.674 94.9883H137.492V97.7617H133.684C133.83 97.3418 133.918 96.8828 133.918 96.3945C133.918 95.8867 133.83 95.418 133.674 94.9883ZM161.77 91.2188H160.266V98.2305H157.863V91.6875H156.398V107.723H157.863V99.5H160.266V108.582H161.77V91.2188ZM146.965 103.777L147.863 104.852C152.854 102.068 154.406 97.8984 154.426 93.4844H147.629V94.7539H152.922C152.658 98.3477 150.998 101.521 146.965 103.777ZM170.402 95.8867V92.7227H168.879V95.8867C168.859 99.1777 166.721 102.498 164.133 103.68L165.109 104.969C167.141 103.943 168.85 101.746 169.65 99.1289C170.48 101.6 172.189 103.66 174.172 104.617L175.109 103.406C172.551 102.244 170.393 99.0605 170.402 95.8867ZM177.004 108.621H178.547V91.2188H177.004V108.621Z" fill="black"/>
<rect x="0.75" y="0.75" width="190.5" height="121.5" rx="9.25" stroke="#0052C9" stroke-width="1.5"/>
</svg>
