<svg width="1301" height="525" viewBox="0 0 1301 525" fill="none" xmlns="http://www.w3.org/2000/svg">
<rect x="820" y="160" width="291" height="67" rx="33.5" fill="#404040"/>
<path d="M961.963 184.49H959.578V195.404H961.963V190.871H964.67V188.916H961.963V184.49ZM946.494 193.857L947.439 195.77C953.251 194.212 956.56 190.721 956.57 185.672H947.418V187.605H953.971C953.552 190.409 950.995 192.708 946.494 193.857ZM949.395 203.654H961.963V196.178H949.395V203.654ZM951.779 201.764V198.133H959.6V201.764H951.779ZM972.598 189.152V186.059H970.213V189.152C970.202 192.74 968.419 196.457 965.293 197.939L966.754 199.852C968.978 198.734 970.567 196.543 971.416 193.9C972.243 196.371 973.758 198.423 975.863 199.486L977.324 197.574C974.316 196.124 972.576 192.622 972.598 189.152ZM978.484 203.912H980.869V194.137H983.855V192.096H980.869V184.49H978.484V203.912Z" fill="white"/>
<path d="M650.5 57.5L650.5 348" stroke="#0174F5"/>
<circle cx="651" cy="284" r="5" fill="#0174F5"/>
<path d="M190.5 348.5V284H1111.5V348.5" stroke="#0174F5"/>
<line x1="820" y1="193.5" x2="651" y2="193.5" stroke="#0174F5"/>
<circle cx="820" cy="194" r="7" fill="#0174F5"/>
<circle cx="651" cy="193" r="5" fill="#0174F5"/>
<circle cx="653" cy="65" r="65" fill="#0174F5"/>
<path d="M634.16 61.4062H639.504C638.801 55.5527 634.371 52.1953 628.5 52.1953C621.785 52.1953 616.652 56.959 616.652 65.2734C616.652 73.5527 621.697 78.3516 628.5 78.3516C634.969 78.3516 638.924 74.0625 639.504 69.3516L634.16 69.3164C633.65 72.0762 631.471 73.6582 628.57 73.6758C624.686 73.6582 622.031 70.7578 622.031 65.2734C622.031 59.9121 624.65 56.8887 628.605 56.8711C631.576 56.8887 633.738 58.5938 634.16 61.4062ZM643.195 78H660.316V73.6406H648.469V67.4531H659.402V63.0938H648.469V56.9062H660.281V52.5469H643.195V78ZM687.703 65.2734C687.703 56.959 682.553 52.1953 675.82 52.1953C669.035 52.1953 663.902 56.959 663.902 65.2734C663.902 73.5527 669.035 78.3516 675.82 78.3516C682.553 78.3516 687.703 73.5879 687.703 65.2734ZM669.281 65.2734C669.281 59.8242 671.865 56.8887 675.82 56.8711C679.74 56.8887 682.342 59.8242 682.324 65.2734C682.342 70.7051 679.74 73.6582 675.82 73.6758C671.865 73.6582 669.281 70.7051 669.281 65.2734Z" fill="white"/>
<rect x="480.75" y="345.75" width="338.5" height="63.5" rx="9.25" fill="white" stroke="#0174F5" stroke-width="1.5"/>
<path d="M618.758 368.598H616.717V373.797H613.043V375.451H616.717V382.691H618.758V368.598ZM602.73 378.674L603.783 380.328C606.071 379.512 607.758 377.814 608.596 375.688C609.434 377.6 611.034 379.146 613.193 379.898L614.246 378.266C611.335 377.299 609.595 374.882 609.605 372.486V371.734H613.73V370.059H603.354V371.734H607.521V372.486C607.532 375.14 605.685 377.675 602.73 378.674ZM606.254 387.418H619.273V385.764H608.295V381.424H606.254V387.418ZM639.641 371.52H636.848V368.598H634.807V380.285H636.848V377.277H639.641V375.58H636.848V373.195H639.641V371.52ZM622.496 371.369H629.264V373.625H622.518V379.361H624.064C627.76 379.372 630.306 379.243 633.281 378.738L633.066 377.084C630.263 377.557 627.899 377.664 624.559 377.686V375.215H631.262V369.715H622.496V371.369ZM624.129 382.906H634.807V387.805H636.848V381.252H624.129V382.906ZM656.742 368.576H654.68V387.826H656.742V368.576ZM640.93 382.67L642.004 384.324C648.61 381.155 651.006 376.278 651.006 370.639H641.854V372.271H648.943C648.546 376.762 646.043 380.231 640.93 382.67ZM671.846 370.23H667.162V368.447H665.121V370.23H660.459V371.756H671.846V370.23ZM659.836 379.383L660.115 380.973C663.574 380.973 668.172 380.908 672.34 380.221L672.189 378.803C670.589 379.007 668.87 379.146 667.162 379.232V378.083C669.386 377.836 670.825 376.815 670.836 375.279C670.825 373.496 668.935 372.379 666.152 372.4C663.327 372.379 661.479 373.496 661.49 375.279C661.479 376.815 662.887 377.836 665.121 378.083V379.308C663.241 379.372 661.415 379.383 659.836 379.383ZM662.607 383.959H673.672V387.826H675.713V382.369H662.607V383.959ZM663.424 375.279C663.435 374.334 664.498 373.775 666.152 373.797C667.785 373.775 668.881 374.334 668.881 375.279C668.881 376.171 667.785 376.729 666.152 376.719C664.498 376.729 663.435 376.171 663.424 375.279ZM673.672 381.51H675.713V368.619H673.672V381.51ZM696.359 379.898H678.742V381.51H686.498V387.826H688.496V381.51H696.359V379.898ZM680.934 377.707H694.146V369.35H692.105V371.863H682.953V369.35H680.934V377.707ZM682.953 376.074V373.496H692.105V376.074H682.953Z" fill="#0174F5"/>
<rect x="921.75" y="345.75" width="378.5" height="63.5" rx="9.25" fill="white" stroke="#0174F5" stroke-width="1.5"/>
<path d="M1089.76 368.598H1087.72V372.014H1083.54C1083.67 371.369 1083.74 370.682 1083.74 369.973H1074.93V371.648H1081.53C1081.16 374.753 1078.5 377.202 1073.95 378.502L1074.76 380.092C1078.93 378.899 1081.82 376.719 1083.07 373.625H1087.72V375.967H1082.86V377.643H1087.72V379.984H1089.76V368.598ZM1076.93 383.959C1076.93 386.301 1079.47 387.74 1083.42 387.74C1087.32 387.74 1089.88 386.301 1089.89 383.959C1089.88 381.628 1087.32 380.21 1083.42 380.199C1079.47 380.21 1076.93 381.628 1076.93 383.959ZM1078.95 383.959C1078.95 382.584 1080.67 381.8 1083.42 381.811C1086.12 381.8 1087.83 382.584 1087.85 383.959C1087.83 385.312 1086.12 386.097 1083.42 386.107C1080.67 386.097 1078.95 385.312 1078.95 383.959ZM1098.05 369.693C1095.15 369.683 1092.99 371.595 1093 374.312C1092.99 376.998 1095.15 378.921 1098.05 378.91C1099.64 378.921 1101 378.33 1101.91 377.342H1106.73V379.941H1108.77V368.576H1106.73V371.283H1101.92C1101.02 370.284 1099.65 369.683 1098.05 369.693ZM1094.96 374.312C1094.95 372.583 1096.25 371.434 1098.05 371.455C1099.8 371.434 1101.1 372.583 1101.1 374.312C1101.1 375.999 1099.8 377.191 1098.05 377.17C1096.25 377.191 1094.95 375.999 1094.96 374.312ZM1095.82 384.088C1095.81 386.43 1098.3 387.794 1102.33 387.783C1106.33 387.794 1108.83 386.43 1108.84 384.088C1108.83 381.735 1106.33 380.36 1102.33 380.371C1098.3 380.36 1095.81 381.735 1095.82 384.088ZM1097.81 384.088C1097.8 382.713 1099.5 381.95 1102.33 381.939C1105.15 381.95 1106.84 382.713 1106.84 384.088C1106.84 385.409 1105.15 386.183 1102.33 386.172C1099.5 386.183 1097.8 385.409 1097.81 384.088ZM1102.85 372.916H1106.73V375.666H1102.85C1102.98 375.247 1103.06 374.785 1103.06 374.312C1103.06 373.818 1102.98 373.346 1102.85 372.916ZM1118.83 374.248V372.207H1123.21V370.51H1112.36V372.207H1116.76V374.248C1116.74 377.567 1114.59 381.177 1111.69 382.541L1112.88 384.152C1115.12 383.057 1116.92 380.715 1117.82 377.965C1118.71 380.532 1120.51 382.659 1122.78 383.658L1123.9 382.068C1120.93 380.801 1118.82 377.471 1118.83 374.248ZM1125.64 387.826H1127.68V368.576H1125.64V387.826ZM1146.76 368.598H1144.71V379.898H1140.85V381.338H1144.71V383.186H1146.76V368.598ZM1130.66 377.385L1130.92 379.018C1132.48 379.018 1134.27 379.018 1136.14 378.942V382.584H1138.18V378.835C1139.88 378.717 1141.61 378.545 1143.25 378.266L1143.12 376.805C1139.02 377.32 1134.22 377.353 1130.66 377.385ZM1132.17 372.723C1132.16 374.774 1134.11 376.074 1136.96 376.074C1139.77 376.074 1141.73 374.774 1141.73 372.723C1141.73 370.682 1139.77 369.328 1136.96 369.328C1134.1 369.328 1132.16 370.682 1132.17 372.723ZM1133.33 387.418H1147.23V385.764H1135.35V381.768H1133.33V387.418ZM1134.1 372.723C1134.09 371.573 1135.25 370.832 1136.96 370.854C1138.6 370.832 1139.78 371.573 1139.79 372.723C1139.78 373.861 1138.6 374.57 1136.96 374.57C1135.25 374.57 1134.09 373.861 1134.1 372.723ZM1167.36 379.898H1149.74V381.51H1157.5V387.826H1159.5V381.51H1167.36V379.898ZM1151.93 377.707H1165.15V369.35H1163.11V371.863H1153.95V369.35H1151.93V377.707ZM1153.95 376.074V373.496H1163.11V376.074H1153.95Z" fill="#0174F5"/>
<rect x="0.75" y="345.75" width="378.5" height="63.5" rx="9.25" fill="white" stroke="#0174F5" stroke-width="1.5"/>
<path d="M159.188 368.576H157.232V376.182H154.848V369.092H152.936V386.902H154.848V377.836H157.232V387.826H159.188V368.576ZM142.645 382.326L143.826 383.744C149.337 380.64 151.013 376.085 151.023 371.025H143.461V372.701H149.036C148.714 376.622 146.92 379.898 142.645 382.326ZM164.473 369.393H162.475V377.793H171.541V369.393H169.521V372.014H164.473V369.393ZM164.408 380.93H174.828V382.67H164.451V387.633H177.514V386H166.449V384.174H176.848V379.318H164.408V380.93ZM164.473 376.16V373.582H169.521V376.16H164.473ZM174.807 378.48H176.848V374.27H179.641V372.615H176.848V368.576H174.807V378.48ZM196.785 368.598H194.744V371.498H189.942C189.04 370.424 187.654 369.769 186.064 369.758C183.164 369.779 181.005 371.81 181.016 374.656C181.005 377.481 183.164 379.512 186.064 379.512C187.665 379.512 189.062 378.856 189.964 377.771H194.744V382.777H196.785V368.598ZM182.971 374.656C182.96 372.841 184.26 371.595 186.064 371.584C187.794 371.595 189.115 372.841 189.115 374.656C189.115 376.472 187.794 377.718 186.064 377.707C184.26 377.718 182.96 376.472 182.971 374.656ZM184.281 387.418H197.301V385.764H186.322V381.295H184.281V387.418ZM190.845 373.152H194.744V376.117H190.855C190.995 375.666 191.07 375.172 191.07 374.656C191.07 374.119 190.995 373.625 190.845 373.152ZM215.068 369.779H201.898V371.455H213.049V371.477C213.038 373.271 213.038 375.279 212.469 378.029H199.75V379.705H207.441V387.848H209.504V379.705H217.303V378.029H214.531C215.068 375.29 215.068 373.303 215.068 371.477V369.779ZM236.359 379.898H218.742V381.51H226.498V387.826H228.496V381.51H236.359V379.898ZM220.934 377.707H234.146V369.35H232.105V371.863H222.953V369.35H220.934V377.707ZM222.953 376.074V373.496H232.105V376.074H222.953Z" fill="#0174F5"/>
<rect x="590" y="425" width="120" height="100" rx="10" fill="#777777"/>
<path d="M624.57 467.801H616.211V479.363H624.57V467.801ZM618.34 477.625V469.5H622.402V477.625H618.34ZM627.246 483.738H629.414V474.695H632.129V472.859H629.414V466.082H627.246V483.738ZM640.703 468.113H633.789V469.871H638.574C638.516 470.672 638.398 471.443 638.213 472.176L632.93 472.469L633.184 474.344L637.598 473.895C636.738 475.721 635.264 477.312 632.871 478.68L634.102 480.164C636.846 478.621 638.516 476.746 639.482 474.617H642.305V482.898H644.355V466.512H642.305V472.859H640.127C640.537 471.365 640.693 469.773 640.703 468.113ZM646.035 483.738H648.105V466.082H646.035V483.738ZM659.668 467.352H651.133V475.906H652.637C656.445 475.916 658.662 475.857 661.191 475.438L660.977 473.719C658.652 474.109 656.641 474.158 653.34 474.148V472.449H659.16V470.75H653.34V469.07H659.668V467.352ZM652.871 480.418C652.861 482.508 655.137 483.719 658.906 483.719C662.607 483.719 664.941 482.508 664.941 480.418C664.941 478.328 662.607 477.107 658.906 477.117C655.137 477.107 652.861 478.328 652.871 480.418ZM655.039 480.418C655.02 479.373 656.396 478.797 658.906 478.797C661.357 478.797 662.773 479.373 662.773 480.418C662.773 481.473 661.357 482.039 658.906 482.039C656.396 482.039 655.02 481.473 655.039 480.418ZM662.676 476.863H664.863V466.102H662.676V476.863ZM676.953 467.117H668.418V475.672H669.922C673.73 475.691 675.947 475.643 678.477 475.203L678.262 473.504C675.938 473.895 673.926 473.953 670.625 473.953V472.215H676.445V470.516H670.625V468.875H676.953V467.117ZM670.43 483.523H682.148V477.371H670.43V483.523ZM672.578 481.766V479.051H680.02V481.766H672.578ZM679.961 476.59H682.148V466.102H679.961V476.59Z" fill="white"/>
<rect x="985" y="425" width="120" height="100" rx="10" fill="#777777"/>
<path d="M1016.29 466.102H1014.11V478.855H1016.29V466.102ZM1001.9 471.668C1001.9 474.275 1003.98 476.102 1006.66 476.102C1009.35 476.102 1011.42 474.275 1011.41 471.668C1011.42 469.1 1009.35 467.264 1006.66 467.254C1003.98 467.264 1001.9 469.1 1001.9 471.668ZM1004.03 471.668C1004.02 470.145 1005.15 469.148 1006.66 469.148C1008.14 469.148 1009.28 470.145 1009.28 471.668C1009.28 473.23 1008.14 474.207 1006.66 474.207C1005.15 474.207 1004.02 473.23 1004.03 471.668ZM1004.61 483.387H1016.78V481.629H1006.8V477.566H1004.61V483.387ZM1025.18 470.32V467.508H1023.01V470.32C1023 473.582 1021.38 476.961 1018.54 478.309L1019.87 480.047C1021.89 479.031 1023.33 477.039 1024.11 474.637C1024.86 476.883 1026.23 478.748 1028.15 479.715L1029.48 477.977C1026.74 476.658 1025.16 473.475 1025.18 470.32ZM1030.53 483.738H1032.7V474.852H1035.41V472.996H1032.7V466.082H1030.53V483.738ZM1046.02 467.391H1037.02V469.188H1043.88C1043.86 470.271 1043.79 471.629 1043.44 473.445L1045.59 473.641C1046 471.404 1046 469.646 1046.02 468.445V467.391ZM1035.96 475.047L1036.16 476.785C1039.25 476.775 1043.42 476.707 1047.09 476.043L1046.98 474.48C1045.27 474.725 1043.39 474.861 1041.57 474.939V471.414H1039.42V475.008C1038.18 475.027 1037.01 475.037 1035.96 475.047ZM1038.6 483.387H1050.8V481.629H1040.79V478.133H1038.6V483.387ZM1048.01 479.305H1050.24V473.406H1052.52V471.59H1050.24V466.082H1048.01V479.305ZM1068.15 466.082H1066V483.758H1068.15V466.082ZM1054.4 469.383H1060.51V472.527H1054.42V479.578H1055.96C1059.13 479.588 1061.77 479.471 1064.77 478.953L1064.57 477.176C1061.82 477.635 1059.43 477.781 1056.64 477.801V474.246H1062.72V467.625H1054.4V469.383ZM1080.24 467.117H1071.7V475.672H1073.21C1077.02 475.691 1079.23 475.643 1081.76 475.203L1081.55 473.504C1079.22 473.895 1077.21 473.953 1073.91 473.953V472.215H1079.73V470.516H1073.91V468.875H1080.24V467.117ZM1073.71 483.523H1085.43V477.371H1073.71V483.523ZM1075.86 481.766V479.051H1083.3V481.766H1075.86ZM1083.25 476.59H1085.43V466.102H1083.25V476.59Z" fill="white"/>
<rect x="1116" y="425" width="120" height="100" rx="10" fill="#777777"/>
<path d="M1147.9 466.082H1145.83V472.996H1144.01V466.395H1141.96V482.879H1144.01V474.793H1145.83V483.738H1147.9V466.082ZM1132.29 478.602L1133.62 480.262C1135.37 479.227 1136.47 477.459 1137.07 475.262C1137.69 477.176 1138.8 478.729 1140.48 479.637L1141.75 477.977C1139.13 476.629 1138.07 473.729 1138.07 470.594V469.754H1140.96V468.016H1132.82V469.754H1135.96V470.594C1135.96 474.041 1134.91 477.117 1132.29 478.602ZM1165.98 476.082H1149.85V477.84H1156.8V483.719H1158.95V477.84H1165.98V476.082ZM1151.82 474.012H1164.01V466.98H1151.82V474.012ZM1153.95 472.312V468.719H1161.84V472.312H1153.95ZM1181.86 466.082H1179.7V483.738H1181.86V466.082ZM1167.23 478.836L1167.55 480.633C1170.72 480.633 1174.94 480.584 1178.82 479.93L1178.66 478.309C1177.19 478.504 1175.62 478.631 1174.07 478.699V477.146C1176.05 476.824 1177.35 475.623 1177.35 473.953C1177.35 471.961 1175.55 470.643 1172.96 470.633C1170.39 470.643 1168.62 471.961 1168.62 473.953C1168.62 475.633 1169.92 476.844 1171.9 477.156V478.777C1170.23 478.826 1168.64 478.826 1167.23 478.836ZM1167.61 469.832H1178.35V468.113H1174.07V466.141H1171.9V468.113H1167.61V469.832ZM1170.69 473.953C1170.67 472.928 1171.62 472.303 1172.96 472.293C1174.33 472.303 1175.27 472.928 1175.26 473.953C1175.27 474.969 1174.33 475.564 1172.96 475.555C1171.62 475.564 1170.67 474.969 1170.69 473.953ZM1199.68 466.082H1197.61V483.738H1199.68V466.082ZM1184.27 478.465L1185.54 480.008C1188.85 478.055 1190.68 475.535 1191.52 472.605H1193.95V475.223H1191.2V477H1193.95V482.898H1196.02V466.512H1193.95V470.828H1191.89C1192.02 469.988 1192.08 469.119 1192.08 468.23H1185.2V469.988H1189.93C1189.6 473.543 1187.92 476.307 1184.27 478.465ZM1211.24 467.117H1202.7V475.672H1204.21C1208.02 475.691 1210.23 475.643 1212.76 475.203L1212.55 473.504C1210.22 473.895 1208.21 473.953 1204.91 473.953V472.215H1210.73V470.516H1204.91V468.875H1211.24V467.117ZM1204.71 483.523H1216.43V477.371H1204.71V483.523ZM1206.86 481.766V479.051H1214.3V481.766H1206.86ZM1214.25 476.59H1216.43V466.102H1214.25V476.59Z" fill="white"/>
<rect x="61" y="425" width="120" height="100" rx="10" fill="#777777"/>
<path d="M110.742 466.082H108.652V472.918H106.758V466.551H104.727V482.918H106.758V474.676H108.652V483.738H110.742V466.082ZM95.4492 478.543L96.6992 480.047C101.719 477.186 103.223 473.084 103.223 468.309H96.2695V470.047H101.113C100.801 473.582 99.209 476.375 95.4492 478.543ZM115.625 466.863H113.477V474.559H121.895V466.863H119.746V469.109H115.625V466.863ZM115.254 477.527H124.629V478.875H115.273V483.582H127.344V481.863H117.422V480.457H126.797V475.828H115.254V477.527ZM115.625 472.84V470.75H119.746V472.84H115.625ZM124.629 475.125H126.797V471.414H129.258V469.656H126.797V466.082H124.629V475.125ZM139.668 467.117H131.133V475.672H132.637C136.445 475.691 138.662 475.643 141.191 475.203L140.977 473.504C138.652 473.895 136.641 473.953 133.34 473.953V472.215H139.16V470.516H133.34V468.875H139.668V467.117ZM133.145 483.523H144.863V477.371H133.145V483.523ZM135.293 481.766V479.051H142.734V481.766H135.293ZM142.676 476.59H144.863V466.102H142.676V476.59Z" fill="white"/>
<rect x="198" y="425" width="120" height="100" rx="10" fill="#777777"/>
<path d="M238.273 466.082H236.086V483.758H238.273V466.082ZM224.68 479.5H226.184C229.914 479.5 232.189 479.402 234.719 478.934L234.504 477.137C232.15 477.557 230.109 477.645 226.867 477.664V469.461H233.195V467.684H224.68V479.5ZM247.199 471.102V469.617H250.891V467.82H241.184V469.617H245.031V471.102C245.021 474.041 243.312 477.342 240.5 478.68L241.77 480.379C243.801 479.402 245.344 477.332 246.145 474.91C246.936 477.117 248.41 479.012 250.402 479.949L251.613 478.23C248.83 476.932 247.189 473.826 247.199 471.102ZM252.531 483.738H254.699V474.773H257.414V472.957H254.699V466.082H252.531V483.738ZM272.863 466.102H270.676V478.855H272.863V466.102ZM258.469 471.668C258.469 474.275 260.549 476.102 263.234 476.102C265.92 476.102 267.99 474.275 267.98 471.668C267.99 469.1 265.92 467.264 263.234 467.254C260.549 467.264 258.469 469.1 258.469 471.668ZM260.598 471.668C260.588 470.145 261.721 469.148 263.234 469.148C264.709 469.148 265.852 470.145 265.852 471.668C265.852 473.23 264.709 474.207 263.234 474.207C261.721 474.207 260.588 473.23 260.598 471.668ZM261.184 483.387H273.352V481.629H263.371V477.566H261.184V483.387ZM284.953 467.117H276.418V475.672H277.922C281.73 475.691 283.947 475.643 286.477 475.203L286.262 473.504C283.938 473.895 281.926 473.953 278.625 473.953V472.215H284.445V470.516H278.625V468.875H284.953V467.117ZM278.43 483.523H290.148V477.371H278.43V483.523ZM280.578 481.766V479.051H288.02V481.766H280.578ZM287.961 476.59H290.148V466.102H287.961V476.59Z" fill="white"/>
</svg>
