<svg width="191" height="46" viewBox="0 0 191 46" fill="none" xmlns="http://www.w3.org/2000/svg">
<path d="M141.397 34.9973H135.834V7.64433C135.834 6.90837 136.124 6.20255 136.641 5.68215C137.158 5.16175 137.86 4.86938 138.591 4.86938C139.326 4.86927 140.033 5.16004 140.558 5.67907C141.082 6.19809 141.384 6.90385 141.397 7.64433V34.9973Z" fill="#404040"/>
<path d="M149.777 14.5322V34.9973H144.312V8.38769C144.312 7.4546 144.681 6.55974 145.336 5.89994C145.992 5.24015 146.881 4.86948 147.808 4.86948C148.453 4.86468 149.088 5.03753 149.643 5.36938C150.199 5.70124 150.653 6.17949 150.958 6.75247L160.508 25.3346V7.59485C160.508 6.87204 160.793 6.17883 161.301 5.66772C161.809 5.15662 162.497 4.86948 163.215 4.86948C163.938 4.86937 164.632 5.15491 165.148 5.66464C165.663 6.17437 165.959 6.86752 165.972 7.59485V34.9973H160.311L149.777 14.5322Z" fill="#404040"/>
<path d="M175.068 24.7819C175.023 26.1604 175.496 27.5057 176.394 28.5504C177.292 29.595 178.549 30.2627 179.915 30.4206C182.969 30.4206 184.763 28.7193 184.763 26.2402C184.763 23.7611 183.357 22.5945 180.594 22.0598L177.007 21.2821C174.89 21.1448 172.907 20.194 171.472 18.6276C170.036 17.0612 169.258 14.9998 169.3 12.8727C169.3 8.0118 172.644 4.41471 178.994 4.41471C180.771 4.27173 182.552 4.62257 184.143 5.42866C185.733 6.23475 187.071 7.4649 188.01 8.98396C188.207 9.38974 188.297 9.83871 188.274 10.2891C188.251 10.7395 188.114 11.1766 187.877 11.5599C187.64 11.9431 187.31 12.26 186.918 12.4811C186.526 12.7021 186.085 12.8201 185.635 12.8241C185.116 12.8402 184.603 12.7009 184.163 12.4239C183.723 12.1469 183.375 11.7447 183.163 11.2686C182.776 10.5165 182.17 9.89997 181.425 9.5007C180.681 9.10143 179.833 8.93819 178.994 9.03258C176.086 9.03258 174.583 10.5881 174.583 12.8241C174.583 15.0601 175.844 16.0809 178.704 16.7128L182.242 17.442C184.393 17.6153 186.396 18.6091 187.839 20.2186C189.282 21.8281 190.054 23.9309 189.998 26.0944C189.998 31.2955 186.168 34.9899 179.576 34.9899C178.212 35.0426 176.851 34.8168 175.576 34.3263C174.301 33.8357 173.139 33.0905 172.16 32.136C171.181 31.1814 170.405 30.0374 169.88 28.7732C169.355 27.5091 169.092 26.1512 169.106 24.7819H175.068Z" fill="#404040"/>
<path d="M54.9779 7.9509C55.2997 6.9566 55.9877 6.11852 56.9052 5.60325C57.7996 5.12078 58.8021 4.86852 59.8208 4.86963C60.7989 4.86963 61.7576 5.14071 62.5881 5.65217C63.4869 6.15382 64.1586 6.97597 64.466 7.9509L74.3494 34.9975H66.0967L64.6142 30.1066H54.7308L53.3471 34.9975H45.1934L54.9779 7.9509ZM56.8063 24.0908H62.5881L59.7219 14.7981L56.8063 24.0908Z" fill="#0052C9"/>
<path d="M92.789 33.6633C92.3979 33.6596 92.0082 33.619 91.6248 33.5421C91.2039 33.4711 90.7913 33.3582 90.393 33.2052C90.0212 33.0707 89.6703 32.8847 89.3507 32.6526C89.0795 32.4445 88.8807 32.1571 88.7822 31.8306L84.9919 18.2063L83.2593 34.9975H76.1797L79.3201 8.61143C79.3642 8.07117 79.5258 7.54695 79.7939 7.07518C80.0415 6.64211 80.3673 6.25834 80.755 5.9432C81.1177 5.63492 81.5294 5.38897 81.9733 5.21548C82.3835 5.04234 82.8166 4.92888 83.2593 4.87858C83.7431 4.85516 84.2281 4.87771 84.7077 4.94595C85.218 5.02098 85.7121 5.18041 86.1696 5.41762C86.6467 5.65949 87.0738 5.98865 87.4285 6.38789C87.8239 6.83154 88.1071 7.36289 88.2542 7.93763L92.789 25.0387L97.3237 7.93763C97.4716 7.36594 97.7495 6.83573 98.1359 6.38789C98.4773 5.9803 98.9018 5.64958 99.3812 5.41762C99.8498 5.18402 100.352 5.02486 100.87 4.94595C101.35 4.87771 101.835 4.85516 102.319 4.87858C102.761 4.92888 103.194 5.04234 103.605 5.21548C104.047 5.392 104.458 5.63767 104.823 5.9432C105.206 6.26305 105.531 6.64593 105.784 7.07518C106.054 7.54536 106.211 8.07098 106.244 8.61143L109.358 34.9975H102.319L100.627 18.0851L96.7958 31.8306C96.6971 32.1606 96.4926 32.4492 96.2137 32.6526C95.9006 32.8872 95.5538 33.0735 95.1849 33.2052C94.7867 33.3582 94.374 33.4711 93.9531 33.5421C93.5697 33.6183 93.1799 33.6589 92.789 33.6633Z" fill="#0052C9"/>
<path d="M119.036 16.5006H129.374C129.848 16.4856 130.318 16.5878 130.742 16.798C131.112 16.9907 131.438 17.2578 131.699 17.5822C131.948 17.9009 132.133 18.2633 132.246 18.6503C132.352 19.0198 132.407 19.4018 132.41 19.7859C132.41 20.1702 132.355 20.5526 132.246 20.9216C132.135 21.2941 131.954 21.6427 131.712 21.9491C131.458 22.2633 131.135 22.5173 130.769 22.6926C130.34 22.8853 129.873 22.9822 129.401 22.9765H119.064V27.3569C119.021 27.6667 119.099 27.9809 119.282 28.2357C119.543 28.3989 119.851 28.4703 120.157 28.4385H130.126C130.598 28.431 131.065 28.528 131.494 28.7224C131.867 28.8999 132.194 29.1588 132.451 29.4795C132.686 29.7929 132.862 30.1456 132.97 30.5205C133.089 30.8924 133.149 31.2799 133.148 31.6697C133.146 32.0637 133.087 32.4554 132.97 32.8324C132.864 33.2257 132.678 33.5936 132.424 33.9139C132.171 34.241 131.849 34.5088 131.48 34.6981C131.055 34.9052 130.586 35.0073 130.113 34.9955H117.19C116.232 35.0135 115.276 34.9089 114.346 34.6846C113.657 34.5094 113.029 34.1545 112.527 33.6571C112.053 33.1362 111.723 32.5028 111.57 31.8184C111.365 30.9317 111.269 30.0239 111.283 29.1145V10.7683C111.268 9.85884 111.364 8.95094 111.57 8.06436C111.716 7.3776 112.047 6.74248 112.527 6.22571C113.025 5.7233 113.655 5.36757 114.346 5.1982C115.274 4.96201 116.231 4.85285 117.19 4.87374H129.73C130.183 4.849 130.635 4.93615 131.046 5.12732C131.456 5.3185 131.812 5.60768 132.082 5.96883C132.328 6.29392 132.514 6.66029 132.629 7.05039C132.736 7.42892 132.791 7.82001 132.793 8.2131C132.791 8.5973 132.736 8.97942 132.629 9.34875C132.518 9.72973 132.337 10.0872 132.095 10.4033C131.841 10.7175 131.518 10.9715 131.152 11.1468C130.722 11.3382 130.256 11.4351 129.784 11.4307H120.212C119.906 11.3989 119.597 11.4704 119.337 11.6336C119.154 11.8884 119.076 12.2026 119.118 12.5123L119.036 16.5006Z" fill="#0052C9"/>
<g clip-path="url(#clip0_4599_5332)">
<path d="M46.8577 41.8427V43.7638H45.1937V38.54C45.1903 38.3417 45.2106 38.1437 45.2543 37.9503C45.2878 37.8028 45.3591 37.6666 45.4611 37.5549C45.5666 37.4443 45.7007 37.3652 45.8486 37.3263C46.0465 37.2768 46.2502 37.2538 46.4542 37.2578H47.8588C48.1866 37.2547 48.5131 37.2997 48.8278 37.3915C49.1084 37.472 49.3694 37.6093 49.5947 37.7949C49.8147 37.9805 49.9877 38.2154 50.0998 38.4806C50.2271 38.7958 50.289 39.1337 50.2815 39.4737V39.6108C50.2887 39.9507 50.2269 40.2886 50.0998 40.6039C49.9877 40.869 49.8147 41.104 49.5947 41.2896C49.3694 41.4752 49.1084 41.6125 48.8278 41.693C48.5131 41.7848 48.1866 41.8298 47.8588 41.8267L46.8577 41.8427ZM46.8577 40.4371H47.7719C47.8953 40.4393 48.0179 40.4159 48.1319 40.3685C48.2335 40.3256 48.3244 40.2608 48.3982 40.1788C48.4703 40.0987 48.5265 40.0056 48.5639 39.9045C48.6015 39.8009 48.6205 39.6914 48.6199 39.5811V39.5251C48.6206 39.4148 48.6016 39.3053 48.5639 39.2017C48.5262 39.1007 48.47 39.0077 48.3982 38.9274C48.3254 38.8458 48.2357 38.781 48.1353 38.7377C48.0213 38.6903 47.8988 38.6669 47.7753 38.6691H47.0896C47.0243 38.6619 46.9584 38.6777 46.9034 38.7137C46.8638 38.7685 46.8466 38.8364 46.8554 38.9034L46.8577 40.4371Z" fill="#404040"/>
<path d="M50.959 37.7491C50.959 37.4691 51.0413 37.2634 51.2058 37.1354C51.3725 37.0049 51.5793 36.9362 51.7909 36.9412C52.0026 36.9362 52.2094 37.0049 52.3761 37.1354C52.5406 37.2634 52.6229 37.4691 52.6229 37.7491V43.7637H50.959V37.7491Z" fill="#404040"/>
<path d="M56.4978 43.7636L56.4338 43.4208C56.2725 43.567 56.0864 43.6832 55.8841 43.7636C55.6686 43.8511 55.4379 43.895 55.2053 43.8928H55.0281C54.8454 43.8908 54.6637 43.865 54.4876 43.8162C54.293 43.7655 54.1104 43.6765 53.9505 43.5545C53.7779 43.4203 53.6374 43.2493 53.5391 43.054C53.4195 42.8076 53.3622 42.5357 53.3722 42.262C53.3634 41.997 53.419 41.7338 53.5345 41.4952C53.6355 41.2978 53.7839 41.1285 53.9665 41.0026C54.1573 40.874 54.3711 40.7833 54.5962 40.7352C54.8442 40.6808 55.0976 40.654 55.3516 40.6552H56.1835C56.1818 40.5531 56.158 40.4525 56.1138 40.3604C56.077 40.2858 56.0215 40.222 55.9527 40.1752C55.8818 40.1276 55.8022 40.0946 55.7184 40.0781C55.6271 40.0586 55.534 40.0491 55.4407 40.0495C55.351 40.0493 55.2615 40.0573 55.1733 40.0735C55.0876 40.0907 54.995 40.1112 54.899 40.1387C54.8371 40.1591 54.7764 40.1831 54.7173 40.2107C54.6602 40.2381 54.595 40.2678 54.5196 40.2998C54.4458 40.3373 54.3646 40.358 54.2819 40.3604C54.1984 40.363 54.1151 40.3522 54.035 40.3284C53.9545 40.3048 53.8793 40.266 53.8133 40.2141C53.745 40.1605 53.6909 40.0911 53.6556 40.0118C53.6186 39.9394 53.5967 39.8602 53.5911 39.7791C53.5856 39.698 53.5967 39.6166 53.6236 39.5398C53.6797 39.3838 53.7807 39.2478 53.9139 39.149C54.0254 39.0656 54.1477 38.9975 54.2773 38.9467C54.4138 38.8924 54.554 38.8477 54.6967 38.813C54.8416 38.7783 54.9886 38.7531 55.1367 38.7376C55.2801 38.7209 55.4243 38.7125 55.5687 38.7124C55.8502 38.7111 56.131 38.7426 56.4052 38.8062C56.6608 38.8626 56.9006 38.9754 57.1069 39.1364C57.3212 39.3116 57.4879 39.538 57.5915 39.7947C57.7238 40.1369 57.7856 40.5023 57.7732 40.8689V43.7591L56.4978 43.7636ZM56.1835 41.8494H55.4487C55.3205 41.8421 55.1942 41.8828 55.0944 41.9637C55.0531 42.0022 55.0207 42.0492 54.9996 42.1015C54.9785 42.1539 54.9691 42.2102 54.9721 42.2666C54.9678 42.3225 54.9767 42.3788 54.9979 42.4307C55.0191 42.4827 55.0522 42.529 55.0944 42.566C55.1903 42.6348 55.3069 42.6686 55.4247 42.662H55.539C55.6163 42.6622 55.6933 42.6514 55.7675 42.63C55.841 42.6093 55.9106 42.5764 55.9732 42.5328C56.0349 42.4903 56.087 42.4354 56.1264 42.3717C56.1687 42.3031 56.1902 42.2237 56.1881 42.1431L56.1835 41.8494Z" fill="#404040"/>
<path d="M59.1303 40.2117H58.864C58.6114 40.2117 58.4297 40.1432 58.3189 40.0095C58.2119 39.8812 58.1536 39.7193 58.1543 39.5523C58.1542 39.4703 58.1662 39.3887 58.1897 39.3101C58.2145 39.2297 58.2557 39.1553 58.3109 39.0918C58.3726 39.0235 58.4487 38.9696 58.5337 38.9341C58.6384 38.8913 58.7509 38.8707 58.864 38.8735H59.1303V38.0335C59.1279 37.9119 59.1513 37.7912 59.1988 37.6793C59.2397 37.5815 59.3018 37.4941 59.3805 37.4233C59.4557 37.3592 59.5421 37.3096 59.6354 37.277C59.7303 37.2448 59.83 37.2286 59.9302 37.229C60.0305 37.2286 60.1301 37.2448 60.2251 37.277C60.3175 37.3099 60.4031 37.3595 60.4776 37.4233C60.5557 37.4925 60.6177 37.5779 60.6593 37.6736C60.7063 37.7857 60.7297 37.9063 60.7279 38.0278V38.8678H61.2033C61.3153 38.8645 61.4267 38.8851 61.5301 38.9284C61.6134 38.9645 61.6879 39.0183 61.7484 39.0861C61.8045 39.1497 61.8473 39.2239 61.8741 39.3043C61.9003 39.3825 61.9138 39.4642 61.9141 39.5466C61.9149 39.7138 61.8562 39.8759 61.7484 40.0037C61.6341 40.1374 61.457 40.206 61.2033 40.206H60.7279V42.2071C60.7216 42.2507 60.7251 42.2952 60.7382 42.3373C60.7512 42.3794 60.7735 42.418 60.8033 42.4505C60.857 42.4878 60.9198 42.5099 60.985 42.5145C61.0394 42.5204 61.0945 42.5161 61.1473 42.5019C61.2106 42.4875 61.2755 42.481 61.3404 42.4825C61.4697 42.4804 61.5957 42.5232 61.697 42.6036C61.7984 42.684 61.867 42.7986 61.8901 42.9259C61.9294 43.0739 61.9165 43.2309 61.8536 43.3704C61.796 43.4949 61.705 43.6009 61.5907 43.6767C61.4839 43.7433 61.3686 43.7952 61.2479 43.831C61.1116 43.8729 60.9699 43.8944 60.8273 43.895C60.5848 43.8987 60.343 43.8691 60.1085 43.807C59.9118 43.7542 59.7296 43.6573 59.5759 43.5236C59.4243 43.3848 59.3103 43.2098 59.2445 43.015C59.1625 42.7652 59.1239 42.5031 59.1303 42.2402V40.2117Z" fill="#404040"/>
<path d="M62.9433 43.764V40.2122H62.6679C62.4153 40.2122 62.2336 40.1436 62.1227 40.0099C62.0154 39.8818 61.9567 39.7199 61.957 39.5528C61.9571 39.468 61.9694 39.3837 61.9936 39.3025C62.0186 39.2222 62.0598 39.1479 62.1147 39.0842C62.1762 39.0166 62.2525 38.9642 62.3376 38.9311C62.4429 38.8905 62.5551 38.8711 62.6679 38.8739H62.9433V38.6968C62.9357 38.4192 62.9744 38.1423 63.0576 37.8774C63.1248 37.671 63.2426 37.4848 63.4004 37.3357C63.5611 37.1931 63.7534 37.0908 63.9615 37.0375C64.2133 36.9722 64.4728 36.9411 64.7329 36.9449C64.8958 36.9455 65.0582 36.9631 65.2175 36.9975C65.3746 37.0286 65.525 37.087 65.662 37.17C65.7886 37.241 65.8847 37.3561 65.9317 37.4934C65.9713 37.6335 65.9713 37.7819 65.9317 37.922C65.894 38.0454 65.8242 38.1566 65.7294 38.2443C65.6376 38.3334 65.5146 38.3831 65.3866 38.3825C65.3322 38.3832 65.2779 38.379 65.2243 38.37L65.054 38.3414C65.0144 38.3325 64.9744 38.3257 64.934 38.3208C64.9009 38.3208 64.8666 38.3208 64.8278 38.3208C64.7942 38.3183 64.7605 38.3235 64.7292 38.336C64.6979 38.3485 64.6698 38.3679 64.6472 38.3928C64.5988 38.4702 64.5775 38.5614 64.5866 38.6522V38.8808H65.0437C65.1551 38.8777 65.2658 38.8972 65.3694 38.9379C65.4531 38.972 65.5281 39.0243 65.5889 39.0911C65.644 39.1552 65.6863 39.2293 65.7134 39.3094C65.7404 39.39 65.7539 39.4746 65.7534 39.5596C65.7542 39.7266 65.6959 39.8885 65.5889 40.0168C65.4746 40.1505 65.2963 40.219 65.0437 40.219H64.5866V43.7709L62.9433 43.764Z" fill="#404040"/>
<path d="M66.068 40.9376C66.0551 40.5657 66.1266 40.1957 66.2771 39.8554C66.4044 39.5874 66.5921 39.3527 66.8257 39.1697C67.05 38.9983 67.3071 38.8746 67.5811 38.8063C67.8515 38.7373 68.1294 38.702 68.4084 38.7012C68.6852 38.7023 68.9608 38.7376 69.229 38.8063C69.503 38.8746 69.76 38.9983 69.9844 39.1697C70.2184 39.353 70.4072 39.5876 70.5363 39.8554C70.6906 40.1947 70.7641 40.5651 70.7512 40.9376V41.6805C70.7644 42.053 70.6908 42.4235 70.5363 42.7627C70.4072 43.0305 70.2184 43.2651 69.9844 43.4484C69.7598 43.6194 69.5028 43.743 69.229 43.8118C68.9608 43.8805 68.6852 43.9158 68.4084 43.9169C68.132 43.9157 67.8568 43.8804 67.5891 43.8118C67.3156 43.743 67.059 43.6194 66.8348 43.4484C66.5997 43.2658 66.4104 43.0311 66.2817 42.7627C66.1277 42.4234 66.0545 42.0529 66.068 41.6805V40.9376ZM69.1273 40.8656C69.1308 40.7399 69.109 40.6148 69.0633 40.4977C69.0251 40.4055 68.9687 40.3219 68.8976 40.252C68.8327 40.1885 68.7547 40.1401 68.669 40.1103C68.5856 40.0812 68.4979 40.0661 68.4096 40.0657C68.322 40.066 68.2351 40.0811 68.1525 40.1103C68.0667 40.14 67.9887 40.1884 67.9239 40.252C67.8527 40.3219 67.7964 40.4055 67.7582 40.4977C67.7118 40.6146 67.69 40.7399 67.6942 40.8656V41.7536C67.6901 41.879 67.7119 42.0038 67.7582 42.1204C67.7964 42.213 67.8527 42.2969 67.9239 42.3673C67.9887 42.4305 68.0668 42.4785 68.1525 42.5079C68.2351 42.537 68.322 42.5521 68.4096 42.5524C68.4979 42.552 68.5856 42.5369 68.669 42.5079C68.7546 42.4784 68.8327 42.4304 68.8976 42.3673C68.9688 42.2969 69.0251 42.213 69.0633 42.1204C69.1089 42.0037 69.1307 41.8789 69.1273 41.7536V40.8656Z" fill="#404040"/>
<path d="M71.4924 43.7634V39.5248C71.4896 39.4042 71.513 39.2845 71.561 39.1739C71.603 39.0785 71.6649 38.9931 71.7427 38.9237C71.8181 38.8561 71.9058 38.8038 72.001 38.7694C72.0995 38.7338 72.2036 38.716 72.3084 38.7168C72.462 38.7167 72.6131 38.7561 72.7472 38.8311C72.8861 38.908 72.9957 39.0285 73.0592 39.1739C73.2057 39.036 73.3746 38.9239 73.5586 38.8425C73.7385 38.7626 73.9332 38.7213 74.13 38.7214C74.1934 38.7219 74.2568 38.7261 74.3197 38.734C74.3853 38.7413 74.4494 38.7591 74.5094 38.7865C74.6625 38.8475 74.7878 38.9626 74.8614 39.1099C74.9405 39.2665 74.9674 39.4444 74.938 39.6173C74.9189 39.7942 74.8341 39.9573 74.7003 40.0745C74.5715 40.1865 74.4059 40.2472 74.2351 40.2448C74.1757 40.2448 74.114 40.2448 74.05 40.2448C73.988 40.2401 73.9257 40.2401 73.8637 40.2448C73.6694 40.2487 73.4825 40.3198 73.3346 40.4459C73.2701 40.5091 73.2187 40.5845 73.1834 40.6676C73.1481 40.7508 73.1296 40.8401 73.1289 40.9304V43.7726L71.4924 43.7634Z" fill="#404040"/>
<path d="M75.3596 43.7634V39.5248C75.3568 39.4042 75.3802 39.2845 75.4282 39.1739C75.4701 39.0785 75.5321 38.9931 75.6099 38.9237C75.6854 38.8564 75.7731 38.804 75.8682 38.7694C75.9667 38.7338 76.0708 38.716 76.1756 38.7168C76.3292 38.7167 76.4803 38.7561 76.6144 38.8311C76.7501 38.9043 76.8572 39.021 76.9184 39.1625C77.0682 39.0176 77.2452 38.9037 77.4391 38.8274C77.6331 38.7511 77.8402 38.7139 78.0486 38.718C78.2915 38.7173 78.5324 38.7611 78.7594 38.8471C78.9926 38.9387 79.1981 39.0891 79.356 39.2837C79.5286 39.1075 79.7345 38.9672 79.9617 38.8711C80.2311 38.7632 80.5195 38.7111 80.8096 38.718C81.059 38.7181 81.3068 38.7566 81.5445 38.8322C81.774 38.9028 81.9833 39.0274 82.1547 39.1957C82.3446 39.3895 82.4881 39.624 82.5741 39.8813C82.6878 40.2218 82.7412 40.5796 82.7318 40.9384V43.7726H81.0679V40.8413C81.071 40.7245 81.052 40.6082 81.0119 40.4985C80.9787 40.4125 80.9277 40.3346 80.8622 40.2699C80.8054 40.2135 80.7367 40.1705 80.6611 40.1442C80.5948 40.1215 80.5254 40.1096 80.4554 40.1088C80.3839 40.1095 80.3129 40.1215 80.2451 40.1442C80.1685 40.1691 80.0991 40.2123 80.0428 40.2699C79.9792 40.3361 79.9284 40.4136 79.8931 40.4985C79.8503 40.6076 79.8297 40.7241 79.8325 40.8413V43.7726H78.2326V40.8413C78.2353 40.7244 78.2159 40.6081 78.1755 40.4985C78.1423 40.4125 78.0913 40.3346 78.0258 40.2699C77.969 40.2135 77.9002 40.1705 77.8246 40.1442C77.758 40.1214 77.6882 40.1095 77.6178 40.1088C77.5478 40.1096 77.4783 40.1215 77.4121 40.1442C77.3389 40.168 77.2715 40.2069 77.2144 40.2585C77.1505 40.3188 77.0996 40.3915 77.0647 40.4722C77.0215 40.5758 76.9982 40.6867 76.9961 40.799V43.7703L75.3596 43.7634Z" fill="#404040"/>
<path d="M85.5332 40.5264C85.5336 40.4443 85.5459 40.3626 85.5698 40.2841C85.5932 40.2045 85.632 40.1303 85.6841 40.0658C85.7387 39.9986 85.8078 39.9447 85.8863 39.9081C85.9815 39.8658 86.085 39.8455 86.1892 39.8487H87.0611V38.9996C87.0611 38.7367 87.1354 38.5425 87.2828 38.419C87.4284 38.2961 87.6135 38.23 87.804 38.2328C87.9944 38.2302 88.1794 38.2963 88.3251 38.419C88.4725 38.5425 88.5468 38.7367 88.5468 38.9996V39.8487H89.4187C89.5229 39.8455 89.6264 39.8658 89.7216 39.9081C89.8001 39.9447 89.8693 39.9986 89.9239 40.0658C89.9751 40.1309 90.0138 40.2049 90.0381 40.2841C90.0616 40.3627 90.0736 40.4443 90.0736 40.5264C90.0733 40.6095 90.0614 40.6922 90.0381 40.7721C90.0153 40.855 89.9765 40.9326 89.9239 41.0006C89.8689 41.0695 89.7999 41.126 89.7216 41.1663C89.6291 41.2126 89.5266 41.235 89.4233 41.2315H88.5514V42.0783C88.5514 42.3427 88.4774 42.5366 88.3296 42.66C88.1841 42.7828 87.9989 42.8486 87.8085 42.8451C87.6181 42.8489 87.4328 42.783 87.2874 42.66C87.1396 42.5366 87.0657 42.3427 87.0657 42.0783V41.2315H86.1903C86.0856 41.2346 85.9817 41.2122 85.8875 41.1663C85.8083 41.1272 85.7391 41.0705 85.6852 41.0006C85.6328 40.9325 85.594 40.8549 85.5709 40.7721C85.5469 40.6923 85.5342 40.6096 85.5332 40.5264Z" fill="#404040"/>
<path d="M94.4974 41.3334C94.4939 41.5036 94.5254 41.6728 94.59 41.8305C94.6466 41.9657 94.732 42.087 94.8403 42.1859C94.9445 42.2802 95.0665 42.3529 95.1991 42.3996C95.3339 42.4486 95.4763 42.4734 95.6197 42.4727C95.7833 42.4749 95.9467 42.4611 96.1076 42.4316C96.2339 42.4077 96.357 42.3694 96.4745 42.3173C96.5339 42.2899 96.6002 42.2579 96.6733 42.2202C96.7424 42.1831 96.8174 42.1583 96.895 42.147C97.0272 42.1193 97.1647 42.1308 97.2904 42.1802C97.4176 42.2363 97.5228 42.3327 97.5899 42.4544C97.6385 42.5269 97.6706 42.6093 97.6839 42.6956C97.6971 42.7819 97.6911 42.8701 97.6664 42.9538C97.616 43.12 97.5159 43.2668 97.3796 43.3744C97.1392 43.5644 96.861 43.7008 96.5636 43.7744C96.2557 43.8564 95.9384 43.8983 95.6197 43.8989C95.2722 43.8997 94.9263 43.8536 94.5911 43.7618C94.2678 43.6757 93.9648 43.5261 93.6998 43.3218C93.4338 43.1146 93.2185 42.8497 93.0701 42.547C92.9014 42.1902 92.8196 41.7986 92.8312 41.4042V39.7243C92.8193 39.3298 92.9011 38.9381 93.0701 38.5815C93.2182 38.2783 93.4335 38.0129 93.6998 37.8055C93.965 37.6016 94.268 37.4521 94.5911 37.3655C94.9263 37.2738 95.2722 37.2277 95.6197 37.2284C95.9395 37.2238 96.2586 37.2622 96.5682 37.3427C96.797 37.3989 97.0143 37.4944 97.2104 37.6249C97.3675 37.7331 97.4873 37.8872 97.5533 38.0661C97.5856 38.1506 97.598 38.2415 97.5897 38.3316C97.5814 38.4218 97.5525 38.5088 97.5053 38.586C97.4335 38.7181 97.3202 38.8229 97.183 38.8843C97.0539 38.943 96.9098 38.9601 96.7705 38.9335C96.6854 38.9197 96.6026 38.8939 96.5248 38.8569C96.4516 38.8215 96.3853 38.7906 96.3271 38.7643C96.229 38.7262 96.1271 38.699 96.0231 38.6832C95.8883 38.6648 95.7523 38.6564 95.6162 38.658C95.4729 38.658 95.3306 38.6827 95.1957 38.7312C95.0632 38.7787 94.9413 38.8517 94.8368 38.946C94.7283 39.0447 94.6429 39.166 94.5866 39.3014C94.5219 39.4586 94.4904 39.6275 94.494 39.7974L94.4974 41.3334Z" fill="#404040"/>
<path d="M98.2438 40.9376C98.2306 40.5656 98.3026 40.1955 98.454 39.8554C98.5805 39.587 98.7684 39.3521 99.0026 39.1697C99.2264 38.9982 99.4832 38.8745 99.7568 38.8063C100.028 38.7373 100.306 38.702 100.585 38.7012C100.862 38.7024 101.137 38.7377 101.405 38.8063C101.679 38.8743 101.936 38.998 102.16 39.1697C102.395 39.3525 102.584 39.5872 102.712 39.8554C102.866 40.1947 102.94 40.5651 102.927 40.9376V41.6805C102.94 42.053 102.867 42.4235 102.712 42.7627C102.584 43.031 102.395 43.2657 102.16 43.4484C101.936 43.6196 101.679 43.7433 101.405 43.8118C101.137 43.8804 100.862 43.9157 100.585 43.9169C100.309 43.9159 100.034 43.8806 99.766 43.8118C99.4921 43.7433 99.2351 43.6196 99.0106 43.4484C98.7758 43.2655 98.5865 43.0308 98.4575 42.7627C98.3034 42.4234 98.2303 42.0529 98.2438 41.6805V40.9376ZM101.304 40.8656C101.308 40.7398 101.286 40.6145 101.239 40.4977C101.201 40.4052 101.145 40.3216 101.073 40.252C101.008 40.1885 100.93 40.1401 100.845 40.1103C100.762 40.0811 100.674 40.066 100.587 40.0657C100.499 40.0659 100.411 40.081 100.328 40.1103C100.243 40.14 100.164 40.1884 100.1 40.252C100.029 40.3219 99.9722 40.4055 99.934 40.4977C99.8882 40.6148 99.8665 40.7399 99.87 40.8656V41.7536C99.8665 41.8789 99.8883 42.0037 99.934 42.1204C99.9721 42.213 100.028 42.2969 100.1 42.3673C100.164 42.4305 100.243 42.4785 100.328 42.5079C100.411 42.5371 100.499 42.5522 100.587 42.5524C100.674 42.5521 100.762 42.537 100.845 42.5079C100.93 42.4784 101.008 42.4304 101.073 42.3673C101.145 42.2972 101.201 42.2132 101.239 42.1204C101.286 42.0039 101.308 41.8791 101.304 41.7536V40.8656Z" fill="#404040"/>
<path d="M103.668 43.7635V39.5248C103.665 39.4043 103.689 39.2846 103.737 39.174C103.78 39.079 103.841 38.9938 103.918 38.9237C103.994 38.8564 104.082 38.8041 104.178 38.7694C104.276 38.734 104.38 38.7162 104.484 38.7169C104.638 38.7166 104.79 38.756 104.924 38.8311C105.061 38.9053 105.17 39.0215 105.235 39.1626C105.393 39.0166 105.578 38.9039 105.78 38.8311C105.983 38.756 106.198 38.7173 106.414 38.7169C106.659 38.715 106.903 38.7505 107.137 38.822C107.358 38.8906 107.558 39.0141 107.718 39.1808C107.898 39.3776 108.032 39.6118 108.11 39.8665C108.216 40.2118 108.265 40.5719 108.255 40.9328V43.7669H106.591V40.8356C106.595 40.7184 106.574 40.6017 106.531 40.4928C106.496 40.407 106.444 40.3293 106.378 40.2642C106.32 40.2069 106.249 40.1639 106.172 40.1385C106.102 40.1155 106.028 40.1036 105.954 40.1031C105.88 40.1036 105.806 40.1155 105.736 40.1385C105.657 40.1647 105.585 40.2076 105.525 40.2642C105.458 40.3286 105.404 40.4064 105.369 40.4928C105.325 40.6017 105.305 40.7184 105.308 40.8356V43.7669L103.668 43.7635Z" fill="#404040"/>
<path d="M109.618 40.2117H109.35C109.098 40.2117 108.916 40.1432 108.806 40.0095C108.699 39.8816 108.64 39.7196 108.641 39.5523C108.641 39.4703 108.652 39.3887 108.676 39.3101C108.701 39.2294 108.742 39.155 108.798 39.0918C108.86 39.0235 108.935 38.9696 109.02 38.9341C109.125 38.8913 109.237 38.8707 109.35 38.8735H109.618V38.0335C109.615 37.9119 109.638 37.791 109.686 37.6793C109.725 37.5816 109.785 37.494 109.862 37.4233C109.937 37.359 110.023 37.3094 110.116 37.277C110.211 37.245 110.311 37.2287 110.411 37.229C110.511 37.2286 110.611 37.2448 110.706 37.277C110.799 37.3093 110.886 37.359 110.961 37.4233C111.039 37.4922 111.101 37.5777 111.142 37.6736C111.189 37.7857 111.213 37.9063 111.211 38.0278V38.8678H111.687C111.799 38.8646 111.91 38.8852 112.013 38.9284C112.097 38.9648 112.171 39.0186 112.232 39.0861C112.29 39.1501 112.333 39.2252 112.36 39.3066C112.387 39.3846 112.401 39.4665 112.4 39.5489C112.401 39.7159 112.343 39.8778 112.236 40.006C112.122 40.1397 111.943 40.2083 111.691 40.2083H111.211V42.2094C111.211 42.3339 111.236 42.4151 111.287 42.4528C111.341 42.4905 111.404 42.5126 111.469 42.5168C111.523 42.5227 111.578 42.5185 111.63 42.5042C111.694 42.4898 111.759 42.4833 111.824 42.4848C111.953 42.4829 112.079 42.5257 112.18 42.6059C112.281 42.6863 112.35 42.8009 112.373 42.9282C112.413 43.0761 112.4 43.2333 112.336 43.3727C112.279 43.4971 112.189 43.6031 112.075 43.679C111.968 43.7453 111.852 43.7972 111.732 43.8333C111.596 43.8752 111.455 43.8967 111.313 43.8973C111.07 43.901 110.827 43.8714 110.593 43.8093C110.396 43.7562 110.214 43.6593 110.06 43.5259C109.907 43.3894 109.792 43.2164 109.725 43.023C109.643 42.7733 109.604 42.5111 109.611 42.2482L109.618 40.2117Z" fill="#404040"/>
<path d="M115.265 43.9009C114.968 43.8992 114.672 43.8608 114.385 43.7866C114.097 43.7134 113.826 43.5871 113.585 43.4141C113.339 43.2353 113.14 43.0001 113.004 42.7284C112.847 42.3973 112.771 42.0332 112.783 41.6667V40.9559C112.77 40.5862 112.843 40.2186 112.995 39.8816C113.124 39.6146 113.312 39.3801 113.545 39.196C113.765 39.0252 114.018 38.9004 114.288 38.8291C114.548 38.7558 114.817 38.7174 115.088 38.7148C115.364 38.7148 115.639 38.7485 115.907 38.8154C116.174 38.8825 116.419 39.0144 116.622 39.1994C116.851 39.4178 117.024 39.6878 117.126 39.9868C117.266 40.4068 117.33 40.8483 117.316 41.2907C117.316 41.3604 117.316 41.4439 117.305 41.541C117.293 41.6381 117.286 41.7216 117.276 41.7913H114.376V41.7993C114.372 41.9198 114.403 42.0388 114.465 42.1421C114.524 42.2338 114.602 42.3117 114.693 42.3707C114.783 42.4312 114.884 42.475 114.989 42.4998C115.09 42.5238 115.193 42.536 115.296 42.5364C115.448 42.5388 115.601 42.5308 115.753 42.5124C115.863 42.4956 115.97 42.4684 116.075 42.4312C116.134 42.4095 116.195 42.3878 116.257 42.3627C116.321 42.3383 116.387 42.3207 116.454 42.3101C116.585 42.2927 116.717 42.3096 116.838 42.3592C116.896 42.3831 116.948 42.4183 116.992 42.4626C117.036 42.507 117.07 42.5597 117.093 42.6175C117.135 42.7023 117.157 42.7956 117.157 42.8901C117.157 42.9846 117.135 43.0778 117.093 43.1626C116.998 43.3388 116.854 43.4834 116.677 43.5786C116.599 43.6234 116.517 43.6617 116.432 43.6929C116.319 43.7338 116.205 43.7685 116.089 43.7969C115.956 43.8309 115.821 43.8568 115.685 43.8746C115.546 43.8921 115.405 43.9008 115.265 43.9009ZM115.087 40.0256C114.998 40.0251 114.909 40.037 114.824 40.0611C114.742 40.0852 114.666 40.1269 114.602 40.1833C114.534 40.2442 114.479 40.318 114.441 40.4005C114.394 40.5061 114.372 40.621 114.376 40.7365H115.747C115.755 40.6226 115.739 40.5084 115.703 40.4005C115.672 40.3185 115.623 40.2444 115.561 40.1833C115.5 40.1259 115.426 40.084 115.346 40.0611C115.262 40.0369 115.174 40.0249 115.087 40.0256Z" fill="#404040"/>
<path d="M118.033 43.7635V39.5248C118.031 39.4043 118.054 39.2846 118.102 39.174C118.144 39.0788 118.206 38.9935 118.284 38.9237C118.36 38.8563 118.448 38.8039 118.543 38.7694C118.641 38.7338 118.745 38.716 118.849 38.7169C119.003 38.7166 119.155 38.7559 119.289 38.8311C119.426 38.9057 119.535 39.0218 119.6 39.1625C119.758 39.0166 119.943 38.9039 120.145 38.8311C120.348 38.756 120.563 38.7173 120.78 38.7169C121.024 38.7152 121.268 38.7506 121.502 38.822C121.723 38.8906 121.923 39.014 122.084 39.1808C122.263 39.3779 122.397 39.612 122.476 39.8665C122.58 40.212 122.629 40.5719 122.62 40.9328V43.7669H120.957V40.8356C120.96 40.7184 120.94 40.6017 120.896 40.4928C120.861 40.407 120.808 40.3293 120.742 40.2642C120.684 40.2065 120.614 40.1634 120.536 40.1385C120.466 40.1155 120.393 40.1036 120.319 40.1031C120.245 40.1036 120.171 40.1155 120.101 40.1385C120.022 40.1647 119.951 40.2076 119.89 40.2642C119.823 40.3285 119.769 40.4064 119.734 40.4928C119.691 40.6017 119.67 40.7184 119.673 40.8356V43.7669L118.033 43.7635Z" fill="#404040"/>
<path d="M123.976 40.2119H123.71C123.457 40.2119 123.275 40.1433 123.165 40.0096C123.058 39.8814 122.999 39.7195 123 39.5525C123 39.4704 123.012 39.3888 123.035 39.3102C123.06 39.2298 123.101 39.1555 123.157 39.0919C123.22 39.0229 123.298 38.969 123.385 38.9342C123.49 38.8914 123.602 38.8707 123.715 38.8737H123.982V38.0337C123.979 37.9121 124.003 37.7914 124.05 37.6794C124.092 37.5837 124.154 37.4983 124.232 37.4291C124.307 37.3651 124.394 37.3155 124.487 37.2829C124.582 37.2507 124.681 37.2345 124.782 37.2349C124.882 37.2345 124.982 37.2507 125.076 37.2829C125.17 37.3155 125.256 37.3651 125.331 37.4291C125.409 37.4983 125.471 37.5837 125.513 37.6794C125.56 37.7915 125.583 37.9121 125.582 38.0337V38.8737H126.057C126.169 38.8704 126.28 38.891 126.384 38.9342C126.467 38.9704 126.542 39.0242 126.602 39.0919C126.658 39.1555 126.701 39.2298 126.728 39.3102C126.754 39.3883 126.767 39.4701 126.768 39.5525C126.769 39.7197 126.71 39.8817 126.602 40.0096C126.488 40.1433 126.311 40.2119 126.057 40.2119H125.582V42.2129C125.575 42.2566 125.579 42.301 125.592 42.3431C125.605 42.3852 125.627 42.4239 125.657 42.4563C125.711 42.4937 125.773 42.5158 125.839 42.5203C125.893 42.5263 125.948 42.522 126.001 42.5078C126.064 42.4934 126.129 42.4869 126.194 42.4883C126.323 42.4863 126.449 42.5291 126.551 42.6095C126.652 42.6899 126.721 42.8044 126.744 42.9318C126.783 43.0797 126.77 43.2367 126.707 43.3763C126.65 43.5008 126.559 43.6068 126.444 43.6826C126.338 43.7492 126.222 43.8011 126.102 43.8369C125.965 43.8787 125.824 43.9003 125.681 43.9008C125.439 43.9045 125.197 43.8749 124.962 43.8129C124.765 43.7601 124.583 43.6631 124.43 43.5294C124.278 43.3906 124.164 43.2157 124.098 43.0209C124.016 42.771 123.978 42.509 123.984 42.2461L123.976 40.2119Z" fill="#404040"/>
<path d="M128.757 40.2601C128.747 40.3561 128.805 40.4292 128.931 40.4784C129.14 40.547 129.355 40.5982 129.573 40.6315L129.73 40.6635L129.879 40.6955C130.364 40.8197 130.719 41.0311 130.945 41.3297C131.172 41.6284 131.255 42.0227 131.196 42.5126C131.17 42.734 131.092 42.946 130.967 43.1308C130.844 43.308 130.682 43.4556 130.495 43.5628C130.288 43.6813 130.063 43.7669 129.83 43.8165C129.567 43.8748 129.299 43.9031 129.03 43.9011C128.889 43.9011 128.745 43.8942 128.598 43.8816C128.45 43.8679 128.302 43.845 128.157 43.8131C128.013 43.781 127.873 43.7362 127.737 43.6794C127.609 43.6265 127.489 43.5545 127.382 43.4656C127.247 43.3494 127.15 43.1954 127.103 43.0234C127.078 42.9354 127.073 42.8428 127.089 42.7527C127.105 42.6626 127.142 42.5774 127.196 42.5034C127.252 42.4203 127.331 42.3558 127.424 42.3183C127.518 42.2795 127.618 42.2575 127.719 42.2531C127.824 42.2431 127.93 42.2625 128.025 42.3091C128.101 42.3526 128.174 42.396 128.244 42.4383C128.359 42.5025 128.485 42.5461 128.615 42.5674C128.772 42.5999 128.932 42.6163 129.092 42.6165C129.217 42.6243 129.341 42.5962 129.45 42.5354C129.487 42.5156 129.518 42.4881 129.543 42.4547C129.567 42.4213 129.584 42.3829 129.592 42.3423C129.604 42.2451 129.52 42.1686 129.345 42.1137C129.105 42.0401 128.862 41.9795 128.615 41.932C128.556 41.9206 128.501 41.908 128.441 41.8943C128.388 41.8826 128.335 41.8677 128.284 41.8497C128.01 41.7768 127.756 41.6432 127.541 41.4589C127.374 41.3107 127.247 41.1233 127.171 40.9138C127.1 40.7146 127.075 40.5022 127.097 40.2921C127.116 40.0825 127.171 39.8777 127.259 39.6864C127.337 39.5225 127.445 39.3745 127.577 39.2498C127.712 39.1248 127.867 39.0228 128.035 38.9481C128.209 38.8688 128.392 38.8101 128.58 38.7733C128.776 38.7361 128.976 38.7173 129.176 38.7173C129.456 38.7125 129.736 38.7424 130.008 38.8064C130.203 38.8514 130.39 38.9221 130.566 39.0167C130.728 39.1046 130.865 39.2339 130.961 39.3916C131.009 39.4672 131.039 39.5524 131.05 39.641C131.061 39.7297 131.053 39.8197 131.025 39.9047C131.009 39.9719 130.979 40.0351 130.938 40.0905C130.896 40.1459 130.844 40.1923 130.784 40.2269C130.664 40.2881 130.53 40.3187 130.396 40.3161C130.334 40.3151 130.273 40.3054 130.214 40.2875C130.158 40.2738 130.104 40.2506 130.056 40.2189C130.001 40.1834 129.941 40.1549 129.879 40.1344C129.809 40.1104 129.735 40.0875 129.657 40.0658C129.579 40.0447 129.499 40.0283 129.418 40.0167C129.346 40.0071 129.274 40.0022 129.201 40.0018C129.094 39.996 128.986 40.0227 128.894 40.0784C128.858 40.0951 128.827 40.1204 128.803 40.1521C128.779 40.1838 128.763 40.2209 128.757 40.2601Z" fill="#404040"/>
<path d="M133.803 40.5261C133.805 40.4426 133.819 40.3598 133.846 40.2804C133.869 40.2009 133.908 40.1267 133.96 40.0621C134.014 39.9951 134.083 39.9412 134.161 39.9044C134.257 39.8622 134.36 39.8419 134.465 39.845H135.331V38.9959C135.331 38.7331 135.405 38.5388 135.56 38.4154C135.705 38.2924 135.89 38.2263 136.081 38.2291C136.271 38.2263 136.456 38.2924 136.601 38.4154C136.749 38.5388 136.829 38.7331 136.829 38.9959V39.845H137.701C137.805 39.842 137.909 39.8623 138.004 39.9044C138.082 39.9414 138.152 39.9953 138.206 40.0621C138.258 40.1272 138.296 40.2012 138.321 40.2804C138.344 40.359 138.356 40.4407 138.356 40.5227C138.356 40.6059 138.344 40.6886 138.321 40.7684C138.298 40.8513 138.259 40.929 138.206 40.997C138.151 41.0658 138.083 41.1223 138.004 41.1627C137.912 41.2087 137.809 41.2311 137.706 41.2278H136.817V42.0746C136.817 42.339 136.741 42.5329 136.588 42.6563C136.443 42.7794 136.258 42.8452 136.068 42.8415C135.878 42.8452 135.693 42.7794 135.547 42.6563C135.395 42.5329 135.319 42.339 135.319 42.0746V41.2278H134.448C134.343 41.2309 134.238 41.2086 134.144 41.1627C134.065 41.1237 133.996 41.067 133.943 40.997C133.89 40.9288 133.851 40.8512 133.828 40.7684C133.809 40.6892 133.8 40.6077 133.803 40.5261Z" fill="#404040"/>
<path d="M142.767 41.3334C142.763 41.5036 142.795 41.6728 142.859 41.8305C142.916 41.9657 143.001 42.087 143.11 42.1859C143.214 42.2805 143.337 42.3532 143.47 42.3996C143.604 42.4486 143.746 42.4733 143.889 42.4727C144.053 42.4749 144.216 42.4611 144.377 42.4316C144.503 42.4077 144.626 42.3694 144.744 42.3173C144.803 42.2899 144.87 42.2579 144.943 42.2202C145.012 42.1831 145.087 42.1583 145.164 42.147C145.297 42.1193 145.434 42.1308 145.56 42.1802C145.687 42.2359 145.793 42.3324 145.859 42.4544C145.908 42.5269 145.94 42.6093 145.953 42.6956C145.967 42.7819 145.961 42.8701 145.936 42.9538C145.885 43.12 145.785 43.2668 145.649 43.3744C145.409 43.5644 145.13 43.7008 144.833 43.7744C144.525 43.8564 144.208 43.8983 143.889 43.8989C143.542 43.8997 143.196 43.8536 142.861 43.7618C142.537 43.6757 142.234 43.5261 141.969 43.3218C141.703 43.1146 141.488 42.8497 141.34 42.547C141.171 42.1901 141.089 41.7986 141.101 41.4042V39.7243C141.089 39.3299 141.171 38.9383 141.34 38.5815C141.488 38.2783 141.703 38.0129 141.969 37.8055C142.234 37.6016 142.537 37.4521 142.861 37.3655C143.196 37.2738 143.542 37.2277 143.889 37.2284C144.209 37.2238 144.528 37.2622 144.838 37.3427C145.067 37.3986 145.284 37.4942 145.48 37.6249C145.637 37.7331 145.757 37.8872 145.823 38.0661C145.855 38.1506 145.867 38.2415 145.859 38.3316C145.851 38.4218 145.822 38.5088 145.775 38.586C145.703 38.7181 145.59 38.8229 145.452 38.8843C145.323 38.9435 145.179 38.9607 145.04 38.9335C144.955 38.9197 144.872 38.8939 144.794 38.8569C144.721 38.8215 144.655 38.7906 144.596 38.7643C144.498 38.7262 144.397 38.699 144.293 38.6832C144.158 38.6648 144.022 38.6564 143.886 38.658C143.743 38.658 143.601 38.6827 143.466 38.7312C143.333 38.7785 143.211 38.8515 143.106 38.946C142.998 39.0447 142.912 39.166 142.856 39.3014C142.791 39.4586 142.76 39.6275 142.763 39.7974L142.767 41.3334Z" fill="#404040"/>
<path d="M146.511 40.9376C146.498 40.5656 146.57 40.1955 146.722 39.8554C146.848 39.587 147.036 39.3521 147.27 39.1697C147.494 38.9982 147.751 38.8745 148.024 38.8063C148.295 38.7374 148.573 38.7021 148.853 38.7012C149.129 38.7024 149.405 38.7377 149.672 38.8063C149.946 38.8743 150.203 38.998 150.428 39.1697C150.662 39.3529 150.851 39.5875 150.981 39.8554C151.135 40.1948 151.208 40.5652 151.194 40.9376V41.6805C151.208 42.0529 151.135 42.4234 150.981 42.7627C150.852 43.0308 150.662 43.2655 150.428 43.4484C150.203 43.6196 149.946 43.7433 149.672 43.8118C149.405 43.8804 149.129 43.9157 148.853 43.9169C148.576 43.9159 148.301 43.8806 148.034 43.8118C147.76 43.7433 147.503 43.6196 147.278 43.4484C147.043 43.2655 146.854 43.0308 146.725 42.7627C146.572 42.4232 146.498 42.0528 146.511 41.6805V40.9376ZM149.572 40.8656C149.575 40.7399 149.553 40.6148 149.508 40.4977C149.47 40.4052 149.413 40.3215 149.341 40.252C149.276 40.1883 149.198 40.1399 149.112 40.1103C149.029 40.0811 148.942 40.066 148.854 40.0657C148.766 40.0659 148.679 40.081 148.596 40.1103C148.51 40.1403 148.432 40.1886 148.367 40.252C148.296 40.322 148.24 40.4055 148.203 40.4977C148.156 40.6145 148.134 40.7398 148.137 40.8656V41.7536C148.134 41.8791 148.156 42.0039 148.203 42.1204C148.24 42.2129 148.296 42.2969 148.367 42.3673C148.432 42.4303 148.51 42.4783 148.596 42.5079C148.679 42.5371 148.766 42.5522 148.854 42.5524C148.942 42.5521 149.029 42.537 149.112 42.5079C149.198 42.4786 149.276 42.4306 149.341 42.3673C149.413 42.2973 149.47 42.2133 149.508 42.1204C149.553 42.0037 149.575 41.8789 149.572 41.7536V40.8656Z" fill="#404040"/>
<path d="M151.938 43.7635V39.5248C151.935 39.4043 151.958 39.2845 152.006 39.1739C152.049 39.0787 152.111 38.9935 152.188 38.9237C152.264 38.8563 152.352 38.8039 152.447 38.7694C152.546 38.7337 152.649 38.7159 152.754 38.7168C152.908 38.7166 153.059 38.7559 153.194 38.8311C153.329 38.9045 153.436 39.0212 153.497 39.1625C153.646 39.0177 153.823 38.9039 154.017 38.8276C154.211 38.7513 154.418 38.7141 154.627 38.718C154.87 38.7173 155.111 38.761 155.338 38.8471C155.571 38.9387 155.776 39.0891 155.934 39.2837C156.107 39.1072 156.313 38.9669 156.541 38.8711C156.81 38.7631 157.098 38.711 157.388 38.718C157.638 38.718 157.886 38.7566 158.124 38.8323C158.353 38.9031 158.562 39.0277 158.733 39.1957C158.923 39.3892 159.067 39.6238 159.152 39.8813C159.266 40.2219 159.319 40.5796 159.31 40.9384V43.7726H157.647V40.8413C157.65 40.7244 157.631 40.6081 157.59 40.4985C157.557 40.4128 157.506 40.335 157.441 40.2699C157.384 40.2137 157.315 40.1707 157.239 40.1442C157.173 40.1215 157.104 40.1096 157.033 40.1088C156.962 40.1096 156.891 40.1216 156.823 40.1442C156.747 40.1691 156.677 40.2123 156.621 40.2699C156.557 40.3359 156.507 40.4135 156.472 40.4985C156.429 40.6073 156.408 40.724 156.411 40.8413V43.7726H154.811V40.8413C154.813 40.7244 154.794 40.6081 154.754 40.4985C154.721 40.4123 154.67 40.3344 154.604 40.2699C154.547 40.2132 154.479 40.1702 154.403 40.1442C154.336 40.1215 154.266 40.1095 154.196 40.1088C154.126 40.1096 154.056 40.1215 153.99 40.1442C153.917 40.1682 153.85 40.2071 153.792 40.2585C153.729 40.3186 153.678 40.3914 153.644 40.4722C153.6 40.5755 153.576 40.6866 153.575 40.799V43.7703L151.938 43.7635Z" fill="#404040"/>
<path d="M160.094 43.7634V39.5248C160.091 39.4042 160.115 39.2845 160.163 39.1739C160.205 39.0789 160.267 38.9938 160.344 38.9237C160.42 38.8564 160.508 38.804 160.604 38.7694C160.702 38.7339 160.806 38.7161 160.91 38.7168C161.064 38.7166 161.215 38.7559 161.35 38.8311C161.485 38.9045 161.592 39.0212 161.653 39.1625C161.803 39.0177 161.98 38.9039 162.174 38.8276C162.368 38.7513 162.575 38.7141 162.783 38.718C163.026 38.7172 163.267 38.761 163.494 38.8471C163.727 38.9387 163.933 39.0891 164.092 39.2836C164.264 39.1074 164.47 38.9672 164.697 38.8711C164.967 38.7631 165.255 38.711 165.545 38.718C165.795 38.7181 166.042 38.7566 166.28 38.8322C166.509 38.9031 166.718 39.0277 166.889 39.1956C167.079 39.3892 167.223 39.6238 167.309 39.8813C167.423 40.2217 167.476 40.5795 167.466 40.9384V43.7726H165.803V40.8413C165.806 40.7244 165.787 40.6081 165.746 40.4984C165.714 40.4124 165.663 40.3344 165.598 40.2699C165.541 40.2132 165.472 40.1702 165.395 40.1442C165.329 40.1215 165.26 40.1096 165.19 40.1088C165.118 40.1096 165.047 40.1216 164.979 40.1442C164.903 40.1691 164.833 40.2122 164.777 40.2699C164.714 40.3359 164.663 40.4135 164.629 40.4984C164.586 40.6076 164.565 40.7241 164.568 40.8413V43.7726H162.968V40.8413C162.971 40.7245 162.952 40.6083 162.912 40.4984C162.879 40.4128 162.828 40.3349 162.762 40.2699C162.705 40.2132 162.636 40.1702 162.56 40.1442C162.494 40.1213 162.424 40.1094 162.354 40.1088C162.284 40.1094 162.215 40.1213 162.149 40.1442C162.075 40.168 162.007 40.2069 161.95 40.2585C161.886 40.3186 161.835 40.3914 161.801 40.4722C161.758 40.5757 161.734 40.6867 161.733 40.799V43.7703L160.094 43.7634Z" fill="#404040"/>
<path d="M170.073 43.9006C169.828 43.9029 169.584 43.8674 169.349 43.7955C169.128 43.7272 168.928 43.6037 168.768 43.4366C168.588 43.2396 168.455 43.0055 168.377 42.7509C168.271 42.4057 168.222 42.0456 168.232 41.6847V39.5214C168.232 39.2418 168.314 39.0372 168.477 38.9077C168.644 38.7776 168.851 38.709 169.062 38.7134C169.274 38.7088 169.481 38.7774 169.649 38.9077C169.812 39.0364 169.894 39.241 169.894 39.5214V41.7818C169.891 41.899 169.912 42.0157 169.955 42.1247C169.991 42.2103 170.043 42.288 170.109 42.3532C170.167 42.4107 170.237 42.4534 170.315 42.4778C170.385 42.5012 170.458 42.5135 170.532 42.5144C170.604 42.5131 170.675 42.5007 170.742 42.4778C170.818 42.454 170.889 42.4151 170.949 42.3635C171.015 42.3031 171.068 42.2305 171.106 42.1498C171.152 42.0466 171.177 41.935 171.179 41.8218V39.5134C171.179 39.2391 171.258 39.0372 171.417 38.9077C171.578 38.778 171.781 38.7093 171.988 38.7134C172.199 38.7083 172.404 38.777 172.57 38.9077C172.73 39.0364 172.811 39.2383 172.812 39.5134V43.76H171.529L171.439 43.2355C171.287 43.4412 171.088 43.6074 170.858 43.72C170.614 43.8408 170.345 43.9026 170.073 43.9006Z" fill="#404040"/>
<path d="M173.615 43.7635V39.5248C173.613 39.4043 173.636 39.2846 173.684 39.174C173.727 39.079 173.789 38.9938 173.866 38.9237C173.942 38.8564 174.03 38.8041 174.125 38.7694C174.223 38.7339 174.327 38.7161 174.431 38.7169C174.585 38.7166 174.737 38.756 174.871 38.8311C175.008 38.9053 175.117 39.0215 175.182 39.1626C175.34 39.0166 175.525 38.9039 175.727 38.8311C175.93 38.756 176.145 38.7173 176.362 38.7169C176.606 38.715 176.85 38.7505 177.084 38.822C177.305 38.8906 177.505 39.0141 177.666 39.1808C177.845 39.3776 177.979 39.6118 178.058 39.8665C178.163 40.2118 178.212 40.5719 178.203 40.9328V43.7669H176.542V40.8356C176.546 40.7184 176.525 40.6017 176.482 40.4928C176.447 40.407 176.394 40.3293 176.328 40.2642C176.271 40.2069 176.2 40.1639 176.123 40.1385C176.052 40.1155 175.979 40.1036 175.905 40.1031C175.83 40.1036 175.757 40.1155 175.686 40.1385C175.608 40.1647 175.536 40.2076 175.476 40.2642C175.408 40.3286 175.355 40.4064 175.319 40.4928C175.276 40.6017 175.255 40.7184 175.259 40.8356V43.7669L173.615 43.7635Z" fill="#404040"/>
<path d="M179.02 37.6839C179.02 37.4195 179.103 37.2291 179.27 37.1125C179.444 36.9943 179.65 36.9335 179.86 36.9388C180.07 36.9335 180.276 36.9943 180.45 37.1125C180.616 37.2268 180.699 37.4176 180.699 37.6839C180.702 37.8019 180.679 37.9192 180.63 38.0267C180.588 38.1158 180.526 38.194 180.45 38.2553C180.37 38.3163 180.279 38.3602 180.182 38.3844C180.077 38.4123 179.969 38.4261 179.86 38.4256C179.751 38.4262 179.642 38.4123 179.536 38.3844C179.439 38.3609 179.349 38.3169 179.27 38.2553C179.193 38.1944 179.13 38.1161 179.088 38.0267C179.04 37.9192 179.016 37.8019 179.02 37.6839ZM179.028 39.581C179.028 39.3021 179.109 39.0964 179.274 38.9673C179.441 38.837 179.648 38.7684 179.86 38.773C180.071 38.7681 180.278 38.8367 180.445 38.9673C180.608 39.0964 180.691 39.3021 180.691 39.581V43.7636H179.028V39.581Z" fill="#404040"/>
<path d="M181.957 40.0263H181.687C181.434 40.0263 181.252 39.9578 181.142 39.8241C181.034 39.6962 180.976 39.5342 180.977 39.3669C180.977 39.2848 180.989 39.2032 181.013 39.1247C181.037 39.0441 181.079 38.9696 181.134 38.9064C181.196 38.8383 181.272 38.7845 181.356 38.7487C181.461 38.7059 181.574 38.6853 181.687 38.6881H181.954V37.8481C181.951 37.7265 181.975 37.6058 182.022 37.4939C182.063 37.3977 182.125 37.3121 182.204 37.2436C182.279 37.1791 182.365 37.1294 182.459 37.0973C182.554 37.0651 182.653 37.0489 182.754 37.0493C182.854 37.0491 182.953 37.0653 183.048 37.0973C183.141 37.1297 183.228 37.1793 183.302 37.2436C183.381 37.3121 183.443 37.3977 183.484 37.4939C183.531 37.6058 183.555 37.7265 183.552 37.8481V38.6881H184.029C184.141 38.6849 184.252 38.7056 184.356 38.7487C184.439 38.7849 184.514 38.8387 184.574 38.9064C184.63 38.97 184.672 39.0443 184.699 39.1247C184.726 39.2026 184.74 39.2845 184.74 39.3669C184.74 39.5341 184.681 39.6959 184.574 39.8241C184.46 39.9578 184.283 40.0263 184.029 40.0263H183.552V42.0274C183.552 42.1519 183.578 42.2331 183.629 42.2708C183.683 42.3083 183.745 42.3305 183.811 42.3348C183.865 42.3407 183.92 42.3364 183.973 42.3222C184.036 42.3078 184.101 42.3013 184.166 42.3028C184.295 42.3005 184.421 42.3433 184.522 42.4239C184.623 42.5042 184.692 42.6188 184.716 42.7462C184.754 42.8942 184.742 43.051 184.679 43.1908C184.622 43.3152 184.531 43.4212 184.416 43.497C184.31 43.5637 184.194 43.6156 184.074 43.6513C183.938 43.6932 183.796 43.7147 183.654 43.7153C183.412 43.7191 183.17 43.6894 182.935 43.6273C182.738 43.5745 182.556 43.4776 182.402 43.3439C182.25 43.205 182.137 43.0301 182.071 42.8353C181.989 42.5855 181.951 42.3234 181.957 42.0605V40.0263Z" fill="#404040"/>
<path d="M188.233 43.7556C187.986 44.3262 187.654 44.73 187.237 44.967C186.786 45.2096 186.267 45.2922 185.763 45.2012C185.655 45.1883 185.551 45.1541 185.456 45.1007C185.373 45.0518 185.301 44.9874 185.242 44.911C185.188 44.839 185.149 44.7565 185.128 44.6687C185.106 44.5813 185.1 44.4907 185.111 44.4013C185.134 44.2254 185.219 44.0634 185.35 43.9442C185.482 43.823 185.669 43.7849 185.911 43.8299C186.069 43.8623 186.233 43.8541 186.387 43.8059C186.456 43.7866 186.52 43.7537 186.576 43.7091C186.631 43.6645 186.677 43.6092 186.711 43.5465V43.5396L185.063 39.8735C185.012 39.7665 184.986 39.6493 184.986 39.5306C184.988 39.4219 185.011 39.3146 185.055 39.2152C185.097 39.1188 185.159 39.032 185.237 38.9604C185.317 38.8869 185.412 38.8309 185.515 38.7958C185.619 38.7577 185.728 38.7358 185.838 38.7307C185.946 38.7243 186.054 38.7394 186.157 38.7752C186.258 38.8111 186.351 38.8693 186.427 38.9455C186.514 39.0331 186.581 39.1389 186.622 39.2552L187.55 41.7694L188.406 39.2552C188.442 39.1385 188.506 39.0322 188.592 38.9455C188.668 38.8693 188.761 38.8111 188.863 38.7752C188.962 38.7398 189.067 38.7247 189.172 38.7307C189.283 38.7368 189.392 38.7587 189.496 38.7958C189.596 38.8323 189.688 38.8882 189.767 38.9604C189.843 39.0316 189.904 39.1185 189.944 39.2152C189.985 39.3153 190.005 39.4225 190.004 39.5306C190.003 39.6486 189.978 39.7651 189.931 39.8735L188.233 43.7556Z" fill="#404040"/>
</g>
<path d="M11.8579 15.7207C11.8579 15.7207 8.79886 11.6617 10.9845 6.18183C13.1701 0.701975 19.1563 -0.1767 23.5222 0.0258282C27.8882 0.228356 37.369 1.71356 46.2254 0.0258282L43.4828 4.08482L28.4515 9.01195H16.6605L12.9865 11.4581L11.8579 13.7576V15.7207Z" fill="url(#paint0_linear_4599_5332)"/>
<path d="M11.858 15.7208C11.858 15.7208 12.6703 10.4467 20.0288 11.1196C27.3873 11.7926 44.2899 13.4877 46.2256 0.0249023C46.2256 0.0249023 41.2984 7.66928 24.7692 5.43725C24.7692 5.43725 8.42773 3.20417 11.858 15.7208Z" fill="url(#paint1_linear_4599_5332)"/>
<path d="M39.8203 17.4392C44.7137 17.4392 45.5164 24.2186 44.0607 28.8905L42.8287 32.9579C41.6388 36.7831 39.2058 40.1014 35.9156 42.3867C32.6254 44.6719 28.6664 45.7932 24.6665 45.5727C20.6497 45.3501 16.6182 44.7816 13.8134 43.5527C5.98967 40.1234 -1.23699 32.6731 0.178596 19.4128C1.28195 9.07546 7.55083 4.25698 10.2586 2.64098C10.3227 2.60241 10.3982 2.58702 10.4724 2.59739C10.5465 2.60776 10.6148 2.64327 10.666 2.69797C10.7171 2.75267 10.7479 2.82326 10.7532 2.89793C10.7586 2.97261 10.7381 3.04686 10.6953 3.10827C8.76705 5.87932 4.31143 13.3528 7.48015 20.8263C7.48015 20.8263 10.9611 35.3081 25.9545 32.6942C28.0452 32.3293 29.8627 31.0065 30.7371 29.0994C30.7614 29.0462 30.772 28.9877 30.768 28.9294C30.7639 28.8711 30.7453 28.8147 30.7138 28.7654C30.6823 28.7161 30.639 28.6754 30.5878 28.6472C30.5366 28.6189 30.4791 28.6039 30.4207 28.6036H29.7962C28.3135 28.6036 26.8915 28.0146 25.843 26.9661C24.7946 25.9177 24.2056 24.4957 24.2056 23.013C24.2056 22.2783 24.3504 21.5508 24.6318 20.8721C24.9131 20.1934 25.3255 19.5768 25.8453 19.0576C26.3651 18.5384 26.9821 18.1267 27.6612 17.8461C28.3402 17.5655 29.0678 17.4215 29.8025 17.4224L39.8203 17.4392Z" fill="url(#paint2_linear_4599_5332)"/>
<path d="M30.2234 28.6498C30.2234 28.6498 44.9911 29.1508 37.7296 40.9428C37.7296 40.9428 45.125 35.4278 44.8876 23.7497C44.8876 23.7497 44.9204 17.6225 40.3382 17.343H29.1802C29.1802 17.343 24.1328 17.4917 24.1328 22.5022C24.1328 26.9694 26.8437 28.6498 30.2234 28.6498Z" fill="url(#paint3_linear_4599_5332)"/>
<defs>
<linearGradient id="paint0_linear_4599_5332" x1="48.084" y1="7.85902" x2="6.39068" y2="7.85902" gradientUnits="userSpaceOnUse">
<stop stop-color="#3F8CFC"/>
<stop offset="0.47" stop-color="#0F61D6"/>
<stop offset="0.57" stop-color="#0A51C1"/>
<stop offset="0.72" stop-color="#0441AC"/>
<stop offset="0.87" stop-color="#01379F"/>
<stop offset="1" stop-color="#00349B"/>
</linearGradient>
<linearGradient id="paint1_linear_4599_5332" x1="11.3855" y1="7.87286" x2="46.2256" y2="7.87286" gradientUnits="userSpaceOnUse">
<stop stop-color="#3F8CFC"/>
<stop offset="0.47" stop-color="#0F61D6"/>
<stop offset="0.57" stop-color="#0A51C1"/>
<stop offset="0.72" stop-color="#0441AC"/>
<stop offset="0.87" stop-color="#01379F"/>
<stop offset="1" stop-color="#00349B"/>
</linearGradient>
<linearGradient id="paint2_linear_4599_5332" x1="-0.000725208" y1="24.0931" x2="44.7126" y2="24.0931" gradientUnits="userSpaceOnUse">
<stop stop-color="#3F8CFC"/>
<stop offset="0.47" stop-color="#0F61D6"/>
<stop offset="0.57" stop-color="#0A51C1"/>
<stop offset="0.72" stop-color="#0441AC"/>
<stop offset="0.87" stop-color="#01379F"/>
<stop offset="1" stop-color="#00349B"/>
</linearGradient>
<linearGradient id="paint3_linear_4599_5332" x1="44.3803" y1="33.7246" x2="27.6159" y2="16.9591" gradientUnits="userSpaceOnUse">
<stop stop-color="#3F8CFC"/>
<stop offset="0.47" stop-color="#0F61D6"/>
<stop offset="0.57" stop-color="#0A51C1"/>
<stop offset="0.72" stop-color="#0441AC"/>
<stop offset="0.87" stop-color="#01379F"/>
<stop offset="1" stop-color="#00349B"/>
</linearGradient>
<clipPath id="clip0_4599_5332">
<rect width="144.808" height="8.29105" fill="white" transform="translate(45.1934 36.9414)"/>
</clipPath>
</defs>
</svg>
