<svg width="62" height="62" viewBox="0 0 62 62" fill="none" xmlns="http://www.w3.org/2000/svg">
<path d="M1.76073e-07 62V12.2155C-0.000272213 10.6112 0.315501 9.02265 0.929288 7.54048C1.54308 6.05831 2.44285 4.71158 3.57721 3.57721C4.71158 2.44285 6.05831 1.54308 7.54048 0.929288C9.02265 0.315501 10.6112 -0.000272213 12.2155 1.76073e-07H62V62H1.76073e-07Z" fill="white"/>
<path d="M27.0592 49.824H22.1182C21.4691 49.824 20.8264 49.6961 20.2268 49.4477C19.6272 49.1992 19.0824 48.8351 18.6236 48.376C18.1647 47.917 17.8008 47.372 17.5527 46.7723C17.3045 46.1725 17.1769 45.5298 17.1772 44.8807V23.8885H7.29297V17.7031C7.29327 17.0542 7.42138 16.4118 7.66996 15.8124C7.91855 15.2131 8.28274 14.6685 8.74176 14.2099C9.20079 13.7514 9.74567 13.3877 10.3452 13.1396C10.9448 12.8916 11.5874 12.7641 12.2362 12.7644H27.0684L27.0592 49.824Z" fill="#0174F5"/>
<path d="M34.3628 12.875H29.4219V22.7593H39.3038V17.8183C39.3041 17.1692 39.1766 16.5265 38.9284 15.9268C38.6802 15.327 38.3163 14.7821 37.8575 14.323C37.3986 13.8639 36.8538 13.4998 36.2542 13.2513C35.6546 13.0029 35.0119 12.875 34.3628 12.875Z" fill="#0174F5"/>
<path fill-rule="evenodd" clip-rule="evenodd" d="M43.6005 25.1182C43.2789 25.1242 42.963 25.2045 42.6775 25.3528C42.3921 25.5012 42.1448 25.7136 41.9551 25.9733L39.3038 29.3708V25.1182H29.4219V49.8253H36.838C37.4932 49.8253 38.1216 49.5651 38.5849 49.1018C39.0482 48.6385 39.3085 48.0101 39.3085 47.3549V44.1289L41.7326 48.5994C41.9065 48.9559 42.1742 49.2584 42.5069 49.4743C42.8397 49.6903 43.2249 49.8117 43.6214 49.8253H51.7953C52.7385 49.8253 53.2623 48.5275 52.6736 47.6515L45.1625 36.4671L52.5253 27.3847C53.2206 26.5342 52.7084 25.1182 51.7165 25.1182H43.6005Z" fill="#0174F5"/>
</svg>
